<?xml version="1.0" encoding="UTF-8"?>
<svg xmlns="http://www.w3.org/2000/svg" width="555" height="458" viewBox="0 0 555 458">
  <g id="cyan" fill="var(--bs-primary-400)" fill-rule="evenodd" stroke="none">
    <path d="M 329 402 L 324 402 L 309 417 L 296 427 L 282 435 L 282 437 L 290 434 L 312 420 L 329 405 Z"/>
    <path d="M 366 348 L 359 347 L 350 367 L 332 395 L 337 396 L 348 383 L 357 369 Z"/>
    <path d="M 238 304 L 232 306 L 227 311 L 226 321 L 231 328 L 235 330 L 242 330 L 250 324 L 251 313 L 247 307 Z"/>
    <path d="M 237 289 L 226 292 L 217 299 L 211 311 L 211 323 L 214 331 L 222 340 L 233 345 L 244 345 L 254 341 L 262 333 L 266 324 L 266 311 L 264 305 L 257 296 L 251 292 Z M 234 297 L 244 297 L 250 300 L 256 306 L 259 313 L 259 322 L 255 330 L 251 334 L 242 338 L 235 338 L 225 333 L 218 321 L 218 313 L 220 308 L 227 300 Z"/>
    <path d="M 154 227 L 149 229 L 145 233 L 143 241 L 145 247 L 149 251 L 159 253 L 165 250 L 168 246 L 169 236 L 167 232 L 162 228 Z"/>
    <path d="M 152 212 L 140 217 L 133 224 L 129 233 L 128 241 L 132 254 L 140 263 L 149 267 L 160 268 L 171 264 L 178 258 L 183 249 L 184 234 L 180 225 L 174 218 L 164 213 Z M 150 220 L 165 221 L 174 229 L 176 233 L 176 247 L 174 251 L 165 259 L 150 260 L 146 258 L 137 248 L 137 232 L 142 225 Z"/>
    <path d="M 247 211 L 242 211 L 128 346 L 128 351 L 140 361 L 145 360 L 258 225 L 258 221 Z"/>
    <path d="M 336 176 L 336 180 L 348 197 L 358 217 L 367 245 L 371 274 L 371 294 L 368 318 L 363 339 L 370 340 L 376 318 L 379 293 L 378 266 L 375 249 L 367 223 L 358 204 L 344 183 L 338 176 Z"/>
    <path d="M 326 165 L 326 168 L 330 170 L 330 167 Z"/>
    <path d="M 214 118 L 183 120 L 153 128 L 129 139 L 103 157 L 83 177 L 62 208 L 50 238 L 44 268 L 44 303 L 49 330 L 64 367 L 81 392 L 97 409 L 125 430 L 155 444 L 184 450 L 210 450 L 243 444 L 277 430 L 301 414 L 327 388 L 342 366 L 352 345 L 358 327 L 363 299 L 363 268 L 356 234 L 341 200 L 324 176 L 305 157 L 274 136 L 244 124 Z M 196 426 L 209 425 L 210 431 L 205 433 L 198 433 L 196 431 Z M 172 427 L 174 424 L 183 424 L 186 426 L 186 431 L 173 431 Z M 233 422 L 234 427 L 232 429 L 220 429 L 221 423 L 229 421 Z M 149 420 L 151 418 L 161 420 L 162 427 L 158 428 L 151 426 L 149 424 Z M 256 416 L 257 420 L 251 423 L 245 424 L 243 421 L 244 417 L 251 414 L 254 414 Z M 127 411 L 129 409 L 132 409 L 140 414 L 139 419 L 136 420 L 128 416 Z M 275 403 L 278 408 L 272 413 L 267 414 L 265 408 Z M 109 396 L 119 402 L 117 408 L 113 407 L 107 402 L 107 398 Z M 295 389 L 297 391 L 297 394 L 290 400 L 287 400 L 285 398 L 285 395 L 291 389 Z M 90 381 L 94 381 L 100 387 L 98 393 L 96 393 L 88 385 Z M 312 372 L 314 376 L 307 384 L 305 384 L 302 381 L 303 377 L 308 372 Z M 74 363 L 79 362 L 85 372 L 83 374 L 79 374 L 73 366 Z M 325 352 L 327 354 L 327 357 L 323 364 L 320 365 L 316 362 L 316 360 L 321 352 Z M 62 342 L 67 341 L 72 349 L 72 352 L 70 354 L 65 353 L 61 345 Z M 331 330 L 335 330 L 337 332 L 337 336 L 333 343 L 329 343 L 327 341 Z M 54 319 L 59 319 L 61 321 L 63 328 L 61 332 L 57 332 L 55 330 L 53 323 Z M 337 307 L 344 308 L 341 321 L 334 319 Z M 50 295 L 56 296 L 57 307 L 54 309 L 50 308 Z M 339 283 L 346 284 L 346 295 L 344 297 L 338 295 Z M 50 271 L 56 272 L 56 283 L 54 285 L 48 284 L 48 273 Z M 338 259 L 344 260 L 344 272 L 338 271 Z M 53 247 L 60 249 L 57 261 L 52 261 L 50 259 Z M 332 236 L 337 235 L 339 237 L 341 244 L 340 248 L 335 249 L 333 247 L 331 240 Z M 61 224 L 67 227 L 63 238 L 59 238 L 57 236 L 57 232 Z M 325 213 L 329 214 L 333 224 L 329 227 L 326 226 L 322 218 L 322 215 Z M 148 205 L 164 205 L 174 209 L 186 220 L 191 231 L 192 244 L 186 260 L 177 269 L 168 274 L 149 275 L 137 270 L 129 263 L 122 250 L 121 234 L 126 221 L 137 210 Z M 250 204 L 264 216 L 266 221 L 265 228 L 216 286 L 216 288 L 232 282 L 245 282 L 259 288 L 268 297 L 274 312 L 273 327 L 267 339 L 257 348 L 242 353 L 229 352 L 216 345 L 208 336 L 204 327 L 203 312 L 208 298 L 206 298 L 148 367 L 137 368 L 121 354 L 120 345 L 123 340 L 232 210 L 240 203 Z M 75 203 L 78 208 L 73 216 L 69 216 L 67 214 L 67 211 L 71 204 Z M 312 193 L 315 193 L 321 201 L 321 203 L 317 206 L 315 206 L 309 198 Z M 91 185 L 92 189 L 86 196 L 80 194 L 81 190 L 87 184 Z M 293 178 L 296 175 L 299 175 L 306 182 L 306 184 L 303 187 L 300 187 L 293 180 Z M 107 167 L 109 173 L 102 179 L 99 179 L 97 177 L 97 174 L 103 168 Z M 275 162 L 277 160 L 280 160 L 286 164 L 288 168 L 285 171 L 282 171 L 275 166 Z M 127 154 L 129 156 L 129 159 L 119 165 L 116 162 L 116 159 L 124 154 Z M 255 149 L 259 148 L 267 153 L 266 158 L 263 159 L 255 155 Z M 149 143 L 151 150 L 140 154 L 137 148 Z M 232 141 L 237 140 L 244 142 L 244 149 L 241 150 L 232 147 Z M 173 138 L 173 145 L 162 146 L 160 143 L 161 139 L 169 137 Z M 208 137 L 219 136 L 222 138 L 220 144 L 209 143 Z M 184 136 L 197 135 L 198 141 L 193 143 L 185 143 Z"/>
  </g>
  <g id="black" fill="currentColor" fill-rule="evenodd" stroke="none">
    <path d="M 198 426 L 198 431 L 209 431 L 208 426 Z"/>
    <path d="M 174 425 L 174 430 L 184 431 L 185 426 Z"/>
    <path d="M 232 423 L 221 424 L 222 429 L 232 427 Z"/>
    <path d="M 150 424 L 161 426 L 161 422 L 151 420 Z"/>
    <path d="M 255 416 L 252 415 L 245 418 L 245 423 L 255 420 Z"/>
    <path d="M 129 410 L 129 415 L 138 418 L 139 414 Z"/>
    <path d="M 276 405 L 273 404 L 266 409 L 267 413 L 276 409 Z"/>
    <path d="M 108 399 L 108 402 L 114 406 L 117 406 L 118 402 L 112 398 Z"/>
    <path d="M 296 392 L 292 390 L 286 395 L 286 398 L 290 399 L 296 394 Z"/>
    <path d="M 91 382 L 90 386 L 95 391 L 98 391 L 99 387 L 94 382 Z"/>
    <path d="M 311 373 L 308 373 L 303 379 L 305 383 L 307 383 L 312 377 Z"/>
    <path d="M 75 364 L 78 372 L 82 373 L 83 369 L 79 364 Z"/>
    <path d="M 326 354 L 321 354 L 318 359 L 319 363 L 322 363 Z"/>
    <path d="M 63 343 L 66 353 L 71 352 L 67 342 Z"/>
    <path d="M 334 331 L 331 332 L 329 337 L 330 342 L 333 342 L 336 335 L 336 332 Z"/>
    <path d="M 55 320 L 57 331 L 61 330 L 59 320 Z"/>
    <path d="M 338 308 L 336 318 L 340 319 L 342 309 Z"/>
    <path d="M 235 298 L 228 301 L 222 307 L 219 319 L 221 326 L 227 333 L 233 336 L 244 336 L 250 333 L 255 328 L 258 320 L 258 315 L 252 303 L 242 298 Z M 236 303 L 242 303 L 246 305 L 251 310 L 253 315 L 252 323 L 247 329 L 243 331 L 232 330 L 228 327 L 224 319 L 226 310 L 231 305 Z"/>
    <path d="M 50 297 L 51 307 L 56 307 L 55 296 Z"/>
    <path d="M 340 284 L 339 295 L 344 295 L 345 284 Z"/>
    <path d="M 50 272 L 49 283 L 54 283 L 55 273 Z"/>
    <path d="M 339 260 L 339 271 L 344 271 L 343 260 Z"/>
    <path d="M 58 249 L 53 250 L 52 259 L 56 260 Z"/>
    <path d="M 333 237 L 335 248 L 339 247 L 337 237 Z"/>
    <path d="M 64 226 L 61 226 L 58 236 L 63 236 L 65 230 Z"/>
    <path d="M 152 221 L 145 224 L 138 233 L 137 243 L 139 249 L 145 256 L 152 259 L 161 259 L 169 255 L 175 246 L 175 234 L 171 227 L 166 223 L 161 221 Z M 152 226 L 160 226 L 164 228 L 170 235 L 171 241 L 169 247 L 160 254 L 150 253 L 142 243 L 142 237 L 144 233 Z"/>
    <path d="M 324 215 L 324 219 L 327 225 L 330 225 L 331 221 L 328 215 Z"/>
    <path d="M 150 206 L 139 210 L 129 219 L 123 231 L 122 244 L 127 258 L 136 268 L 150 274 L 162 274 L 175 269 L 183 262 L 190 248 L 190 232 L 183 218 L 175 211 L 162 206 Z M 150 211 L 162 211 L 172 215 L 181 224 L 185 233 L 185 247 L 181 256 L 173 264 L 162 269 L 151 269 L 141 265 L 131 255 L 127 244 L 127 236 L 131 225 L 138 217 Z"/>
    <path d="M 76 205 L 71 206 L 68 214 L 73 214 L 76 209 Z"/>
    <path d="M 251 206 L 246 204 L 239 205 L 231 213 L 123 342 L 121 347 L 123 355 L 136 366 L 145 367 L 149 365 L 210 292 L 212 292 L 213 295 L 206 306 L 204 319 L 209 335 L 218 345 L 231 351 L 246 351 L 256 347 L 267 337 L 272 326 L 273 314 L 269 301 L 261 291 L 253 286 L 243 283 L 230 284 L 222 287 L 216 292 L 212 291 L 212 289 L 264 227 L 263 217 Z M 234 288 L 243 288 L 252 291 L 263 301 L 267 309 L 268 321 L 264 332 L 256 341 L 246 346 L 231 346 L 226 344 L 216 336 L 210 325 L 209 315 L 213 303 L 222 293 Z M 246 209 L 259 220 L 258 227 L 144 362 L 138 361 L 127 351 L 126 347 L 237 214 L 241 210 Z"/>
    <path d="M 311 195 L 314 203 L 318 204 L 319 200 L 315 195 Z"/>
    <path d="M 89 185 L 87 185 L 82 191 L 83 195 L 86 195 L 91 189 Z"/>
    <path d="M 296 176 L 295 180 L 300 185 L 304 185 L 304 182 L 298 176 Z"/>
    <path d="M 107 169 L 104 169 L 100 172 L 98 176 L 102 178 L 108 173 Z"/>
    <path d="M 277 161 L 276 165 L 285 170 L 286 166 Z"/>
    <path d="M 127 155 L 119 158 L 118 163 L 122 163 L 127 160 Z"/>
    <path d="M 256 149 L 256 154 L 265 157 L 266 153 Z"/>
    <path d="M 149 145 L 139 148 L 139 151 L 143 152 L 148 150 Z"/>
    <path d="M 233 141 L 233 146 L 243 148 L 242 143 Z"/>
    <path d="M 172 139 L 162 140 L 162 145 L 171 144 Z"/>
    <path d="M 209 137 L 209 142 L 220 143 L 220 138 Z"/>
    <path d="M 185 137 L 185 141 L 196 141 L 196 136 Z"/>
    <path d="M 364 50 L 358 56 L 358 64 L 364 70 L 372 70 L 378 64 L 378 56 L 372 50 Z"/>
    <path d="M 498 48 L 493 43 L 481 39 L 476 39 L 470 43 L 453 94 L 423 93 L 411 95 L 395 100 L 375 111 L 365 119 L 352 133 L 340 151 L 330 171 L 328 171 L 305 149 L 305 145 L 293 132 L 275 117 L 244 99 L 211 88 L 179 84 L 140 87 L 112 95 L 80 111 L 61 125 L 34 154 L 24 169 L 14 189 L 5 216 L 2 239 L 0 240 L 0 273 L 2 274 L 4 293 L 12 320 L 28 351 L 45 373 L 54 380 L 69 400 L 96 424 L 115 436 L 137 446 L 157 452 L 181 455 L 182 457 L 212 457 L 213 455 L 237 452 L 257 446 L 281 435 L 294 427 L 312 413 L 325 400 L 330 402 L 329 426 L 332 434 L 339 441 L 349 445 L 361 446 L 374 441 L 378 437 L 384 426 L 387 413 L 530 443 L 526 436 L 524 428 L 525 384 L 539 286 L 552 216 L 554 215 L 554 191 L 552 190 L 551 177 L 546 160 L 532 135 L 512 116 L 486 102 L 499 54 Z M 331 392 L 347 370 L 359 345 L 514 377 L 521 380 L 519 406 L 521 435 L 518 436 L 333 397 L 331 395 Z M 185 116 L 209 116 L 249 124 L 280 138 L 302 153 L 322 172 L 343 201 L 352 219 L 359 239 L 364 265 L 364 302 L 358 332 L 345 363 L 326 391 L 304 413 L 274 433 L 241 446 L 214 451 L 180 451 L 153 446 L 135 440 L 118 432 L 90 413 L 68 391 L 50 365 L 36 332 L 32 316 L 29 292 L 31 257 L 40 224 L 54 196 L 73 171 L 92 153 L 123 133 L 152 122 Z M 393 106 L 414 99 L 440 97 L 466 101 L 485 107 L 498 113 L 513 123 L 528 138 L 540 158 L 548 188 L 548 218 L 534 287 L 521 374 L 361 340 L 369 302 L 370 280 L 368 258 L 364 239 L 357 218 L 346 196 L 334 179 L 334 176 L 344 154 L 357 135 L 373 119 Z M 281 129 L 281 131 L 278 132 L 258 122 L 229 114 L 215 112 L 179 112 L 160 115 L 131 124 L 109 135 L 84 153 L 66 171 L 50 193 L 38 216 L 30 239 L 25 267 L 25 300 L 31 332 L 37 347 L 36 350 L 33 349 L 19 324 L 10 298 L 5 265 L 6 237 L 9 220 L 16 197 L 28 172 L 42 152 L 62 131 L 83 115 L 103 104 L 127 95 L 160 89 L 186 89 L 219 95 L 255 110 Z M 477 44 L 490 47 L 494 51 L 481 100 L 462 96 L 459 94 L 472 50 Z"/>
    <path d="M 330 0 L 329 2 L 319 7 L 313 18 L 313 30 L 316 37 L 323 44 L 330 47 L 341 47 L 350 43 L 355 38 L 359 29 L 359 19 L 355 10 L 347 3 L 343 2 L 342 0 Z M 334 5 L 342 6 L 347 9 L 354 19 L 354 29 L 351 35 L 344 41 L 337 43 L 325 39 L 320 34 L 317 26 L 320 14 L 326 8 Z"/>
  </g>
</svg>
