<?xml version="1.0" encoding="UTF-8"?>
<svg xmlns="http://www.w3.org/2000/svg" width="523" height="590" viewBox="0 0 523 590">
  <g id="cyan" fill="var(--bs-primary-400)" fill-rule="evenodd" stroke="none">
    <path d="M 329 422 L 329 485 L 331 487 L 431 488 L 434 486 L 435 423 L 433 420 L 333 419 Z"/>
    <path d="M 9 366 L 7 371 L 6 384 L 7 420 L 9 427 L 13 432 L 87 432 L 99 428 L 110 418 L 114 406 L 114 396 L 110 384 L 102 377 L 93 374 L 26 374 L 24 371 L 24 361 L 16 361 Z M 75 386 L 87 386 L 92 389 L 98 397 L 98 410 L 88 420 L 74 420 L 64 410 L 64 397 L 67 392 Z"/>
    <path d="M 500 262 L 494 259 L 479 260 L 479 525 L 476 541 L 471 551 L 462 561 L 442 571 L 411 574 L 310 575 L 108 572 L 108 574 L 124 582 L 141 586 L 293 587 L 294 589 L 434 589 L 435 587 L 470 584 L 486 576 L 491 571 L 498 559 L 503 539 L 503 268 Z"/>
    <path d="M 82 279 L 78 286 L 75 298 L 77 367 L 85 367 L 85 356 L 90 353 L 93 356 L 93 367 L 102 369 L 109 373 L 116 380 L 121 392 L 121 409 L 119 416 L 109 430 L 93 438 L 93 449 L 88 452 L 85 449 L 85 440 L 79 440 L 82 530 L 83 535 L 85 535 L 86 516 L 90 514 L 92 517 L 92 533 L 94 542 L 89 543 L 87 540 L 85 540 L 91 556 L 96 563 L 117 565 L 231 567 L 403 567 L 443 563 L 455 557 L 464 548 L 471 531 L 471 260 L 125 259 L 102 264 L 102 266 L 113 266 L 115 268 L 115 271 L 113 273 L 105 273 L 99 276 L 93 284 L 89 284 L 87 282 L 93 270 L 91 270 Z M 387 546 L 390 544 L 416 544 L 417 548 L 415 550 L 389 550 Z M 341 546 L 343 544 L 370 544 L 371 548 L 369 550 L 342 550 Z M 295 546 L 297 544 L 323 544 L 325 548 L 322 550 L 296 550 Z M 248 546 L 250 544 L 276 544 L 278 546 L 278 549 L 267 551 L 251 551 Z M 202 546 L 204 544 L 230 544 L 232 546 L 232 549 L 230 551 L 204 551 L 202 549 Z M 156 546 L 158 544 L 184 544 L 186 548 L 183 551 L 161 551 L 157 550 Z M 109 546 L 112 544 L 138 544 L 139 548 L 137 550 L 111 550 Z M 433 546 L 436 543 L 450 543 L 452 545 L 452 549 L 435 550 Z M 88 468 L 92 469 L 91 498 L 88 498 L 86 496 L 86 470 Z M 323 418 L 330 412 L 436 413 L 442 420 L 441 489 L 434 495 L 328 494 L 322 487 Z M 88 303 L 92 304 L 91 335 L 88 335 L 86 333 L 86 305 Z M 437 269 L 439 266 L 454 266 L 456 268 L 456 271 L 454 273 L 439 273 Z M 387 268 L 389 266 L 417 266 L 419 268 L 419 271 L 417 273 L 389 273 L 387 271 Z M 336 268 L 338 266 L 366 266 L 368 268 L 368 271 L 366 273 L 338 273 L 336 271 Z M 285 268 L 287 266 L 316 266 L 318 268 L 318 271 L 316 273 L 287 273 L 285 271 Z M 235 268 L 237 266 L 265 266 L 267 268 L 267 271 L 265 273 L 237 273 L 235 271 Z M 184 268 L 186 266 L 214 266 L 216 268 L 216 271 L 214 273 L 186 273 L 184 271 Z M 134 267 L 164 266 L 166 268 L 166 271 L 164 273 L 135 273 Z"/>
  </g>
  <g id="black" fill="currentColor" fill-rule="evenodd" stroke="none">
    <path d="M 389 546 L 389 549 L 416 548 L 415 545 Z"/>
    <path d="M 342 546 L 343 549 L 370 548 L 369 545 Z"/>
    <path d="M 296 546 L 297 549 L 323 548 L 323 545 Z"/>
    <path d="M 250 545 L 250 548 L 252 550 L 277 548 L 276 545 Z"/>
    <path d="M 203 546 L 204 550 L 231 549 L 230 545 Z"/>
    <path d="M 157 546 L 158 549 L 182 550 L 184 548 L 184 545 Z"/>
    <path d="M 111 546 L 111 549 L 137 548 L 137 545 Z"/>
    <path d="M 435 545 L 436 549 L 451 548 L 451 545 L 449 544 Z"/>
    <path d="M 87 516 L 86 536 L 90 542 L 93 542 L 91 535 L 91 517 Z"/>
    <path d="M 88 469 L 87 496 L 90 497 L 91 470 Z"/>
    <path d="M 325 417 L 323 421 L 323 486 L 327 492 L 331 494 L 433 494 L 440 488 L 441 422 L 437 415 L 433 413 L 331 413 Z M 329 420 L 332 418 L 432 418 L 436 422 L 436 485 L 432 489 L 330 488 L 328 485 Z"/>
    <path d="M 77 387 L 72 389 L 67 394 L 65 398 L 65 409 L 71 417 L 78 420 L 84 420 L 91 417 L 95 413 L 98 402 L 95 394 L 90 389 L 86 387 Z"/>
    <path d="M 88 304 L 87 333 L 90 334 L 91 305 Z"/>
    <path d="M 439 268 L 440 272 L 455 271 L 454 267 Z"/>
    <path d="M 388 268 L 389 272 L 418 271 L 417 267 Z"/>
    <path d="M 337 268 L 338 272 L 367 271 L 366 267 Z"/>
    <path d="M 286 268 L 287 272 L 317 271 L 316 267 Z"/>
    <path d="M 236 268 L 237 272 L 266 271 L 265 267 Z"/>
    <path d="M 185 268 L 186 272 L 215 271 L 214 267 Z"/>
    <path d="M 135 268 L 136 272 L 165 271 L 164 267 Z"/>
    <path d="M 114 268 L 103 267 L 97 270 L 90 277 L 89 283 L 92 283 L 100 274 L 104 272 L 113 272 Z"/>
    <path d="M 196 174 L 186 171 L 168 171 L 157 174 L 145 181 L 136 189 L 125 205 L 125 209 L 129 209 L 140 192 L 157 179 L 171 175 L 182 175 L 195 178 Z"/>
    <path d="M 422 32 L 414 34 L 391 62 L 391 67 L 395 72 L 414 84 L 423 83 L 448 53 L 448 49 L 443 43 Z M 418 37 L 422 37 L 440 47 L 443 52 L 420 79 L 415 79 L 399 69 L 396 66 L 396 63 Z"/>
    <path d="M 117 6 L 118 32 L 115 43 L 111 50 L 104 57 L 94 61 L 93 64 L 108 65 L 119 73 L 125 83 L 129 96 L 130 106 L 133 107 L 134 83 L 137 73 L 141 66 L 151 56 L 159 52 L 159 48 L 145 48 L 136 43 L 126 29 L 121 6 Z M 122 35 L 125 36 L 133 47 L 145 53 L 145 55 L 136 65 L 130 79 L 127 78 L 125 73 L 119 66 L 110 61 L 110 58 L 114 54 L 120 43 Z"/>
    <path d="M 507 76 L 472 49 L 412 9 L 398 2 L 397 0 L 387 0 L 303 95 L 276 81 L 256 75 L 241 73 L 214 75 L 209 82 L 183 143 L 170 141 L 151 141 L 140 143 L 120 151 L 106 161 L 89 182 L 83 195 L 79 218 L 77 220 L 52 221 L 38 227 L 30 235 L 25 246 L 23 257 L 26 353 L 24 355 L 15 355 L 10 357 L 5 361 L 2 369 L 0 370 L 0 420 L 2 421 L 3 428 L 8 436 L 12 438 L 26 438 L 28 440 L 29 503 L 32 515 L 41 530 L 49 538 L 65 548 L 75 560 L 87 567 L 99 570 L 230 573 L 404 573 L 440 570 L 452 566 L 460 561 L 470 550 L 477 532 L 477 233 L 474 227 L 464 220 L 427 219 L 426 216 L 522 99 L 522 92 Z M 33 439 L 56 438 L 58 440 L 61 539 L 57 538 L 45 527 L 38 517 L 34 506 L 32 457 Z M 7 367 L 11 362 L 15 360 L 24 359 L 26 373 L 98 374 L 108 380 L 113 387 L 115 394 L 114 412 L 110 420 L 104 426 L 88 433 L 15 434 L 8 428 L 5 414 L 5 375 Z M 473 246 L 473 525 L 469 542 L 457 557 L 447 563 L 436 566 L 411 568 L 213 568 L 104 566 L 87 562 L 74 552 L 67 540 L 64 525 L 62 440 L 64 438 L 86 438 L 87 450 L 90 451 L 91 438 L 104 432 L 114 423 L 119 412 L 120 394 L 117 384 L 110 375 L 101 370 L 91 367 L 91 355 L 87 355 L 86 368 L 60 367 L 58 281 L 63 266 L 71 257 L 80 252 L 95 249 L 439 250 L 458 248 L 468 245 Z M 78 224 L 82 246 L 73 250 L 62 259 L 56 270 L 54 278 L 56 367 L 32 369 L 30 367 L 27 271 L 29 248 L 33 239 L 42 230 L 48 227 L 61 224 Z M 472 233 L 472 238 L 470 240 L 461 243 L 434 246 L 404 245 L 404 243 L 420 224 L 456 223 L 466 226 Z M 110 205 L 117 189 L 125 178 L 136 168 L 147 161 L 171 154 L 188 154 L 198 156 L 210 163 L 220 173 L 232 192 L 238 214 L 238 231 L 236 241 L 234 244 L 110 245 L 107 236 L 107 220 Z M 174 146 L 174 150 L 158 152 L 141 159 L 122 174 L 114 185 L 105 206 L 103 216 L 104 244 L 87 245 L 83 229 L 84 209 L 88 195 L 94 183 L 103 171 L 115 160 L 133 150 L 155 145 Z M 393 105 L 394 110 L 326 244 L 312 245 L 311 242 L 378 109 L 381 106 Z M 246 105 L 248 107 L 247 114 L 225 168 L 222 168 L 208 156 L 207 153 L 227 104 L 229 102 L 235 102 Z M 507 83 L 516 93 L 516 98 L 400 241 L 395 246 L 375 245 L 374 241 L 500 87 L 504 83 Z M 217 79 L 247 78 L 262 81 L 278 87 L 303 101 L 326 107 L 373 108 L 306 242 L 303 245 L 242 245 L 240 243 L 242 234 L 241 205 L 237 192 L 228 176 L 228 173 L 253 111 L 253 106 L 249 101 L 233 97 L 226 98 L 222 104 L 204 150 L 200 151 L 188 145 L 212 87 Z M 395 5 L 469 53 L 470 57 L 355 207 L 351 209 L 350 206 L 400 109 L 400 104 L 396 101 L 384 101 L 364 104 L 338 104 L 315 100 L 310 98 L 309 95 L 385 9 L 390 5 Z"/>
  </g>
</svg>
