<?xml version="1.0" encoding="UTF-8"?>
<svg xmlns="http://www.w3.org/2000/svg" width="623" height="472" viewBox="0 0 623 472">
  <g id="cyan" fill="var(--bs-primary-400)" fill-rule="evenodd" stroke="none">
    <path d="M 545 445 L 532 446 L 532 454 L 546 453 Z"/>
    <path d="M 515 445 L 514 454 L 528 454 L 528 446 Z"/>
    <path d="M 500 443 L 499 455 L 510 455 L 510 445 Z"/>
    <path d="M 558 442 L 549 444 L 550 453 L 559 453 Z"/>
    <path d="M 565 438 L 562 440 L 563 452 L 569 452 L 571 450 L 569 439 Z"/>
    <path d="M 488 438 L 486 446 L 489 452 L 494 454 L 495 440 Z"/>
    <path d="M 456 434 L 451 430 L 445 428 L 434 428 L 426 431 L 418 441 L 415 464 L 65 464 L 65 466 L 71 471 L 436 471 L 436 458 L 440 447 L 446 440 L 453 436 L 456 436 Z"/>
    <path d="M 533 427 L 532 442 L 544 441 L 540 427 Z"/>
    <path d="M 520 427 L 516 441 L 528 442 L 528 427 Z"/>
    <path d="M 545 426 L 548 440 L 556 438 L 555 433 L 550 425 Z"/>
    <path d="M 508 425 L 502 435 L 502 438 L 512 440 L 515 426 Z"/>
    <path d="M 503 423 L 499 422 L 493 427 L 491 433 L 497 436 Z"/>
    <path d="M 551 418 L 551 420 L 553 420 L 553 418 Z"/>
    <path d="M 533 418 L 533 423 L 537 423 L 536 419 Z"/>
    <path d="M 540 417 L 541 421 L 545 422 L 545 420 Z"/>
    <path d="M 528 416 L 526 416 L 523 423 L 528 423 Z"/>
    <path d="M 521 415 L 518 415 L 513 419 L 513 421 L 518 422 Z"/>
    <path d="M 510 415 L 506 416 L 505 419 L 508 419 Z"/>
    <path d="M 62 414 L 63 432 L 239 432 L 239 413 Z"/>
    <path d="M 62 377 L 63 395 L 171 395 L 172 393 L 171 376 Z"/>
    <path d="M 622 362 L 602 359 L 602 441 L 600 447 L 592 456 L 585 459 L 493 463 L 494 471 L 523 471 L 524 469 L 608 466 L 613 464 L 622 454 Z"/>
    <path d="M 60 255 L 60 370 L 172 370 L 177 375 L 177 395 L 173 400 L 60 400 L 60 408 L 241 408 L 245 414 L 245 431 L 241 437 L 60 437 L 60 456 L 408 456 L 410 442 L 414 433 L 422 425 L 432 421 L 432 411 L 434 409 L 437 409 L 439 412 L 439 421 L 451 422 L 458 426 L 466 435 L 473 436 L 483 441 L 488 428 L 499 416 L 511 409 L 523 406 L 539 407 L 556 415 L 561 420 L 561 422 L 555 424 L 555 426 L 560 435 L 563 435 L 565 431 L 560 423 L 563 422 L 572 435 L 575 445 L 575 452 L 582 452 L 589 449 L 594 442 L 595 355 L 580 352 L 572 348 L 563 339 L 558 328 L 558 309 L 563 298 L 572 290 L 583 286 L 595 286 L 595 245 L 439 245 L 439 263 L 437 265 L 434 265 L 432 263 L 432 245 L 126 245 L 122 258 L 113 268 L 104 273 L 95 275 L 84 274 L 75 270 L 65 261 L 62 255 Z M 434 366 L 437 366 L 439 368 L 439 392 L 437 394 L 434 394 L 432 392 L 432 368 Z M 434 323 L 437 323 L 439 325 L 439 349 L 437 351 L 434 351 L 432 349 L 432 325 Z M 434 280 L 437 280 L 439 282 L 439 306 L 437 308 L 434 308 L 432 306 L 432 282 Z"/>
    <path d="M 608 188 L 601 188 L 602 293 L 586 293 L 576 296 L 569 302 L 565 312 L 565 325 L 569 335 L 576 342 L 588 346 L 585 337 L 585 321 L 591 309 L 597 304 L 604 301 L 622 300 L 622 200 L 617 193 Z"/>
    <path d="M 420 188 L 421 192 L 428 200 L 440 204 L 435 188 Z"/>
    <path d="M 60 201 L 60 227 L 62 227 L 65 221 L 76 211 L 88 207 L 97 207 L 112 213 L 120 221 L 124 228 L 126 237 L 595 237 L 595 194 L 593 188 L 499 188 L 491 204 L 481 214 L 472 218 L 463 219 L 455 217 L 447 211 L 439 211 L 439 220 L 437 222 L 432 221 L 432 210 L 424 206 L 417 199 L 411 188 L 74 188 L 67 191 Z"/>
  </g>
  <g id="black" fill="currentColor" fill-rule="evenodd" stroke="none">
    <path d="M 483 451 L 483 453 L 485 453 L 485 451 Z"/>
    <path d="M 507 441 L 507 443 L 511 443 L 512 445 L 516 444 L 516 442 Z"/>
    <path d="M 545 439 L 542 444 L 548 446 L 550 441 Z"/>
    <path d="M 500 438 L 497 438 L 496 448 L 498 448 Z"/>
    <path d="M 558 437 L 560 450 L 562 450 L 562 437 Z"/>
    <path d="M 567 432 L 567 435 L 569 435 L 569 432 Z"/>
    <path d="M 487 432 L 487 435 L 489 435 L 489 432 Z"/>
    <path d="M 521 422 L 516 423 L 516 425 L 521 425 Z"/>
    <path d="M 510 420 L 506 421 L 506 423 L 510 423 Z"/>
    <path d="M 560 420 L 556 418 L 555 422 L 548 421 L 547 423 L 525 424 L 525 426 L 542 426 L 546 424 L 553 425 L 554 422 L 560 422 Z"/>
    <path d="M 499 418 L 499 420 L 501 420 L 501 418 Z"/>
    <path d="M 58 413 L 58 432 L 61 436 L 240 436 L 243 433 L 243 412 L 240 409 L 62 409 Z M 61 413 L 239 412 L 241 414 L 241 431 L 239 433 L 62 433 Z"/>
    <path d="M 519 408 L 519 412 L 525 411 L 540 413 L 541 409 L 537 408 Z"/>
    <path d="M 58 376 L 58 395 L 62 399 L 171 399 L 174 398 L 176 394 L 176 376 L 173 372 L 61 372 Z M 61 376 L 63 374 L 171 374 L 173 376 L 173 394 L 171 396 L 63 396 L 61 394 Z"/>
    <path d="M 434 367 L 433 392 L 437 393 L 438 368 Z"/>
    <path d="M 434 324 L 433 349 L 437 350 L 438 325 Z"/>
    <path d="M 434 281 L 433 306 L 437 307 L 438 282 Z"/>
    <path d="M 0 151 L 0 406 L 9 419 L 15 422 L 32 422 L 34 424 L 35 451 L 42 459 L 48 462 L 415 462 L 415 446 L 417 440 L 424 431 L 432 427 L 447 427 L 456 432 L 464 443 L 468 462 L 583 458 L 594 453 L 599 446 L 601 438 L 600 349 L 581 346 L 569 337 L 564 327 L 564 310 L 567 303 L 574 296 L 580 293 L 601 292 L 601 194 L 599 186 L 589 176 L 570 175 L 568 173 L 568 151 L 563 141 L 556 136 L 441 135 L 436 145 L 428 154 L 420 159 L 413 161 L 405 161 L 393 156 L 384 145 L 381 135 L 16 135 L 8 139 L 5 142 L 2 150 Z M 38 244 L 59 243 L 65 259 L 74 268 L 86 273 L 99 273 L 111 268 L 120 259 L 126 243 L 432 243 L 434 264 L 438 263 L 439 243 L 595 243 L 596 286 L 577 289 L 568 294 L 563 300 L 559 311 L 559 326 L 565 340 L 576 349 L 596 354 L 595 443 L 588 451 L 584 453 L 575 453 L 574 448 L 572 448 L 572 451 L 567 454 L 550 454 L 549 452 L 547 452 L 545 455 L 532 455 L 531 446 L 536 445 L 536 443 L 532 443 L 531 438 L 529 438 L 528 443 L 522 443 L 522 445 L 529 446 L 528 455 L 514 456 L 513 451 L 511 451 L 510 456 L 490 455 L 489 457 L 473 458 L 469 443 L 463 432 L 452 424 L 439 422 L 438 413 L 436 410 L 434 410 L 433 422 L 423 426 L 415 434 L 411 443 L 409 458 L 48 457 L 40 450 L 38 445 Z M 38 191 L 46 181 L 51 179 L 409 179 L 413 190 L 420 201 L 426 206 L 433 209 L 433 220 L 436 221 L 438 218 L 438 211 L 452 208 L 461 203 L 468 196 L 477 179 L 583 179 L 588 181 L 594 187 L 596 192 L 596 238 L 126 239 L 120 223 L 114 216 L 100 209 L 85 209 L 75 213 L 68 219 L 62 229 L 59 239 L 39 239 Z M 6 407 L 5 154 L 8 146 L 16 140 L 377 139 L 384 154 L 392 161 L 402 165 L 416 165 L 428 160 L 436 153 L 445 139 L 550 139 L 558 143 L 563 150 L 564 173 L 562 175 L 473 175 L 471 182 L 464 193 L 457 200 L 447 205 L 436 205 L 429 202 L 419 191 L 415 182 L 414 175 L 45 176 L 39 180 L 34 189 L 34 416 L 32 418 L 18 418 L 13 416 Z"/>
    <path d="M 388 66 L 383 69 L 381 73 L 381 80 L 386 86 L 395 87 L 401 82 L 402 73 L 397 67 Z M 390 68 L 395 69 L 399 73 L 399 80 L 395 84 L 388 84 L 383 78 L 384 73 Z"/>
    <path d="M 411 7 L 403 12 L 402 22 L 407 28 L 414 29 L 421 25 L 423 16 L 420 10 Z"/>
    <path d="M 317 0 L 317 29 L 314 39 L 302 53 L 293 56 L 293 60 L 307 60 L 313 63 L 319 69 L 327 86 L 329 100 L 333 101 L 333 80 L 336 69 L 341 60 L 349 52 L 358 48 L 359 44 L 344 43 L 338 40 L 329 31 L 323 18 L 320 0 Z M 321 32 L 324 32 L 334 43 L 344 48 L 344 50 L 334 62 L 329 73 L 326 72 L 317 60 L 309 56 L 309 53 L 316 45 Z"/>
  </g>
</svg>
