<?xml version="1.0" encoding="UTF-8"?>
<svg xmlns="http://www.w3.org/2000/svg" width="565" height="522" viewBox="0 0 565 522">
  <g id="cyan" fill="var(--bs-primary-400)" fill-rule="evenodd" stroke="none">
    <path d="M 235 394 L 282 394 L 284 382 L 293 367 L 235 367 Z"/>
    <path d="M 210 367 L 210 394 L 227 394 L 227 367 Z"/>
    <path d="M 303 357 L 302 364 L 319 364 L 330 372 L 335 382 L 337 393 L 404 393 L 407 392 L 412 385 L 412 366 L 346 366 L 345 356 L 341 346 L 332 339 L 322 338 L 314 341 L 309 345 Z"/>
    <path d="M 410 220 L 403 232 L 399 244 L 398 270 L 402 285 L 410 300 L 412 300 L 412 220 Z"/>
    <path d="M 39 215 L 39 354 L 43 359 L 295 360 L 297 351 L 302 342 L 311 334 L 319 331 L 332 331 L 343 337 L 350 347 L 353 358 L 412 358 L 412 339 L 392 320 L 385 310 L 377 294 L 373 280 L 371 253 L 374 235 L 380 218 Z M 169 304 L 179 305 L 178 344 L 168 343 Z M 147 304 L 166 305 L 165 344 L 148 344 L 146 342 Z M 135 304 L 138 305 L 137 343 L 134 342 Z M 129 304 L 132 305 L 131 343 L 128 342 Z M 99 304 L 126 305 L 125 344 L 98 343 Z M 93 304 L 96 305 L 95 343 L 92 342 Z M 86 304 L 89 305 L 88 343 L 85 342 Z M 67 304 L 83 305 L 82 344 L 68 344 L 66 342 Z M 323 300 L 328 302 L 327 327 L 321 326 L 321 302 Z M 323 260 L 328 262 L 327 287 L 321 286 L 321 262 Z M 323 220 L 328 222 L 327 247 L 321 246 L 321 222 Z"/>
    <path d="M 410 192 L 397 205 L 385 226 L 379 249 L 379 271 L 382 285 L 389 302 L 400 318 L 410 328 L 412 328 L 412 314 L 401 300 L 395 288 L 390 267 L 390 253 L 394 234 L 400 221 L 412 206 L 412 192 Z"/>
    <path d="M 64 177 L 65 192 L 139 191 L 138 176 Z"/>
    <path d="M 339 172 L 337 172 L 336 175 L 338 175 Z"/>
    <path d="M 39 207 L 384 211 L 394 197 L 411 182 L 412 179 L 407 173 L 404 172 L 349 172 L 344 180 L 334 186 L 328 194 L 328 206 L 322 207 L 321 201 L 303 202 L 295 198 L 287 187 L 284 172 L 146 172 L 146 194 L 141 199 L 62 199 L 57 194 L 57 172 L 39 172 Z"/>
    <path d="M 4 174 L 0 178 L 0 387 L 7 393 L 203 394 L 203 367 L 44 367 L 40 366 L 34 361 L 32 357 L 32 172 L 8 172 Z"/>
  </g>
  <g id="black" fill="currentColor" fill-rule="evenodd" stroke="none">
    <path d="M 173 305 L 173 342 L 178 342 L 178 305 Z"/>
    <path d="M 148 305 L 148 342 L 165 342 L 165 305 Z"/>
    <path d="M 120 305 L 120 342 L 125 342 L 125 305 Z"/>
    <path d="M 99 305 L 99 342 L 116 342 L 116 305 Z"/>
    <path d="M 77 305 L 77 342 L 82 342 L 82 306 Z"/>
    <path d="M 68 305 L 68 342 L 73 342 L 73 306 Z"/>
    <path d="M 323 302 L 322 325 L 326 326 L 327 303 Z"/>
    <path d="M 323 262 L 322 285 L 326 286 L 327 263 Z"/>
    <path d="M 323 222 L 322 245 L 326 246 L 327 223 Z"/>
    <path d="M 434 219 L 424 229 L 424 234 L 452 262 L 452 264 L 426 290 L 425 298 L 433 306 L 439 307 L 467 279 L 470 279 L 496 305 L 504 305 L 511 298 L 512 291 L 485 264 L 485 261 L 511 234 L 512 230 L 510 226 L 502 219 L 496 219 L 469 246 L 466 246 L 440 220 Z M 500 224 L 506 230 L 506 232 L 478 260 L 478 265 L 506 292 L 506 295 L 501 300 L 499 300 L 470 272 L 465 273 L 438 301 L 436 301 L 431 296 L 431 293 L 458 265 L 459 261 L 430 233 L 430 230 L 435 225 L 437 225 L 466 253 L 471 252 L 498 224 Z"/>
    <path d="M 463 183 L 440 188 L 422 198 L 410 209 L 402 220 L 395 235 L 392 247 L 391 263 L 394 281 L 400 296 L 408 308 L 420 320 L 429 326 L 448 334 L 458 336 L 478 336 L 492 333 L 509 325 L 529 307 L 536 296 L 542 281 L 545 261 L 544 247 L 541 235 L 534 220 L 518 201 L 508 194 L 490 186 L 482 184 Z M 459 188 L 477 188 L 490 191 L 511 202 L 530 223 L 535 233 L 540 252 L 540 267 L 537 281 L 531 295 L 524 305 L 506 321 L 485 330 L 472 332 L 456 331 L 442 327 L 422 315 L 406 296 L 399 280 L 396 263 L 399 239 L 404 227 L 412 215 L 431 198 L 446 191 Z"/>
    <path d="M 58 175 L 58 193 L 63 198 L 141 198 L 145 194 L 145 174 L 141 170 L 62 170 Z M 63 177 L 65 175 L 139 175 L 140 192 L 65 193 L 63 191 Z"/>
    <path d="M 542 140 L 538 145 L 538 153 L 545 159 L 553 158 L 558 151 L 557 144 L 551 139 Z"/>
    <path d="M 522 98 L 518 100 L 512 108 L 512 121 L 519 129 L 524 131 L 531 131 L 538 128 L 542 124 L 544 120 L 544 108 L 536 99 Z M 526 102 L 533 103 L 540 112 L 538 121 L 531 126 L 522 125 L 516 117 L 517 109 L 520 105 Z"/>
    <path d="M 285 46 L 278 51 L 276 55 L 276 63 L 281 70 L 285 72 L 292 72 L 298 69 L 301 65 L 302 56 L 299 50 L 295 47 Z M 285 49 L 292 49 L 299 56 L 298 64 L 292 69 L 285 69 L 279 63 L 279 55 Z"/>
    <path d="M 253 46 L 247 49 L 244 53 L 243 62 L 246 68 L 250 71 L 260 72 L 267 67 L 269 63 L 269 55 L 264 48 L 260 46 Z M 253 49 L 260 49 L 266 55 L 266 63 L 260 69 L 253 69 L 246 62 L 247 54 Z"/>
    <path d="M 109 22 L 109 49 L 105 62 L 97 72 L 91 76 L 85 77 L 85 82 L 100 82 L 111 91 L 119 108 L 121 122 L 125 123 L 125 101 L 128 90 L 135 79 L 143 72 L 149 70 L 151 68 L 151 65 L 135 64 L 123 55 L 117 45 L 114 36 L 113 24 Z"/>
    <path d="M 220 0 L 208 10 L 204 19 L 204 152 L 202 154 L 40 154 L 35 158 L 33 163 L 34 359 L 41 365 L 203 366 L 204 473 L 206 479 L 214 488 L 229 493 L 229 503 L 231 508 L 238 516 L 246 519 L 247 521 L 451 521 L 452 519 L 459 517 L 466 510 L 470 498 L 470 356 L 494 352 L 519 341 L 530 333 L 541 322 L 551 308 L 560 287 L 562 274 L 564 273 L 564 247 L 562 246 L 561 236 L 557 224 L 546 204 L 527 184 L 502 170 L 488 166 L 473 165 L 470 163 L 469 45 L 466 39 L 459 32 L 445 28 L 445 20 L 441 10 L 429 0 Z M 210 366 L 228 367 L 229 485 L 227 487 L 217 484 L 212 479 L 209 473 Z M 233 367 L 301 366 L 302 356 L 307 346 L 313 340 L 321 337 L 333 338 L 340 343 L 346 355 L 347 365 L 412 365 L 419 362 L 422 358 L 424 345 L 442 352 L 464 355 L 465 500 L 462 507 L 454 514 L 447 516 L 251 516 L 244 514 L 237 508 L 233 499 Z M 38 215 L 125 214 L 380 217 L 381 221 L 375 236 L 373 246 L 373 273 L 376 287 L 380 298 L 391 317 L 406 333 L 418 342 L 418 354 L 412 360 L 353 360 L 351 358 L 351 354 L 346 342 L 340 336 L 330 332 L 320 332 L 310 336 L 304 341 L 295 361 L 42 360 L 38 355 Z M 459 169 L 477 169 L 492 172 L 510 179 L 525 189 L 539 203 L 550 220 L 556 236 L 559 252 L 558 275 L 554 290 L 547 305 L 535 321 L 519 335 L 505 343 L 486 349 L 471 351 L 455 350 L 442 347 L 427 341 L 413 332 L 397 316 L 390 306 L 383 292 L 378 273 L 378 247 L 384 225 L 395 206 L 409 191 L 421 182 L 435 175 Z M 38 208 L 38 163 L 44 158 L 298 158 L 301 170 L 306 179 L 311 183 L 322 187 L 323 206 L 327 205 L 327 187 L 337 184 L 345 177 L 349 170 L 352 158 L 412 158 L 418 164 L 418 178 L 409 184 L 393 200 L 385 212 Z M 235 44 L 241 37 L 251 33 L 447 33 L 456 36 L 462 42 L 465 49 L 465 163 L 463 165 L 454 165 L 440 168 L 424 174 L 422 161 L 420 157 L 415 154 L 347 154 L 344 169 L 338 177 L 331 181 L 318 181 L 308 173 L 304 163 L 304 154 L 235 154 L 233 152 L 233 50 Z M 209 153 L 209 19 L 212 13 L 217 8 L 224 5 L 425 5 L 432 8 L 437 13 L 440 19 L 439 29 L 247 29 L 241 31 L 233 38 L 229 46 L 229 152 L 227 154 Z"/>
  </g>
</svg>
