<?xml version="1.0" encoding="UTF-8"?>
<svg xmlns="http://www.w3.org/2000/svg" width="667" height="509" viewBox="0 0 667 509">
  <g id="cyan" fill="var(--bs-primary-400)" fill-rule="evenodd" stroke="none">
    <path d="M 107 334 L 111 341 L 120 345 L 328 344 L 321 333 Z"/>
    <path d="M 340 311 L 334 313 L 327 321 L 327 329 L 329 333 L 335 338 L 347 336 L 347 331 Z"/>
    <path d="M 440 300 L 430 304 L 422 312 L 419 319 L 419 332 L 422 339 L 431 348 L 439 351 L 449 351 L 457 348 L 465 341 L 469 333 L 470 323 L 466 312 L 462 307 L 460 307 L 460 311 L 450 338 L 447 341 L 441 339 L 428 327 L 428 324 L 430 322 L 433 322 L 442 330 L 445 330 L 452 309 L 457 305 L 457 303 L 449 300 Z"/>
    <path d="M 327 277 L 317 285 L 316 295 L 322 303 L 330 304 L 336 302 L 337 299 L 330 277 Z"/>
    <path d="M 319 244 L 310 247 L 304 255 L 307 265 L 312 269 L 319 269 L 325 266 L 324 258 Z"/>
    <path d="M 309 213 L 302 215 L 295 224 L 298 235 L 303 239 L 309 239 L 316 236 Z"/>
    <path d="M 313 278 L 313 276 L 307 275 L 300 268 L 297 261 L 297 252 L 299 245 L 293 241 L 288 231 L 288 221 L 291 215 L 300 208 L 300 206 L 112 214 L 104 216 L 105 224 L 124 287 L 129 291 L 309 284 Z"/>
    <path d="M 298 180 L 287 144 L 287 132 L 294 123 L 295 112 L 304 103 L 304 101 L 79 111 L 76 113 L 95 181 L 102 188 Z"/>
    <path d="M 56 46 L 54 48 L 55 54 L 59 55 L 62 53 L 63 49 L 61 46 Z"/>
    <path d="M 85 45 L 83 47 L 83 52 L 89 54 L 92 48 L 89 45 Z"/>
    <path d="M 114 43 L 112 45 L 112 49 L 117 52 L 120 50 L 121 46 L 119 43 Z"/>
    <path d="M 406 35 L 133 39 L 125 40 L 126 51 L 120 57 L 113 57 L 107 52 L 106 45 L 108 40 L 94 40 L 97 46 L 97 53 L 91 59 L 83 59 L 78 54 L 77 47 L 80 40 L 65 41 L 68 46 L 68 54 L 62 60 L 51 59 L 53 68 L 66 65 L 391 55 L 393 57 L 393 60 L 391 62 L 386 63 L 80 73 L 54 72 L 105 326 L 313 326 L 319 325 L 323 311 L 319 310 L 312 304 L 308 292 L 129 299 L 124 297 L 116 288 L 96 220 L 97 213 L 102 208 L 304 198 L 304 195 L 301 187 L 110 196 L 99 195 L 94 192 L 88 184 L 70 123 L 68 113 L 74 105 L 87 103 L 318 92 L 337 93 L 413 71 Z"/>
    <path d="M 414 35 L 420 68 L 428 66 L 438 66 L 444 69 L 449 74 L 474 150 L 485 149 L 494 151 L 501 155 L 509 164 L 511 169 L 513 169 L 496 82 L 487 45 L 484 39 L 476 34 Z"/>
  </g>
  <g id="black" fill="currentColor" fill-rule="evenodd" stroke="none">
    <path d="M 189 356 L 190 364 L 281 434 L 294 439 L 505 424 L 504 420 L 301 435 L 293 434 L 284 430 L 199 365 L 194 360 L 194 358 L 207 356 L 344 353 L 344 348 L 194 352 Z"/>
    <path d="M 438 294 L 426 299 L 416 310 L 413 318 L 413 333 L 420 347 L 426 352 L 438 357 L 450 357 L 461 353 L 469 346 L 475 334 L 476 322 L 471 308 L 465 301 L 454 295 Z M 438 299 L 450 299 L 460 304 L 459 307 L 454 308 L 445 332 L 443 332 L 433 323 L 430 324 L 430 328 L 444 340 L 447 340 L 449 337 L 460 306 L 462 306 L 466 310 L 471 321 L 471 330 L 467 340 L 459 348 L 450 352 L 438 352 L 429 348 L 422 341 L 418 333 L 417 323 L 422 310 L 428 304 Z"/>
    <path d="M 430 198 L 434 210 L 437 211 L 433 198 Z"/>
    <path d="M 601 164 L 596 172 L 598 180 L 604 184 L 613 183 L 618 176 L 617 168 L 611 163 Z M 606 165 L 611 166 L 615 171 L 615 176 L 610 181 L 604 181 L 599 175 L 600 169 Z"/>
    <path d="M 409 130 L 412 142 L 415 143 L 411 130 Z"/>
    <path d="M 626 104 L 619 108 L 617 117 L 620 123 L 629 126 L 637 121 L 638 111 L 633 105 Z"/>
    <path d="M 441 99 L 436 95 L 430 95 L 326 131 L 322 136 L 322 143 L 338 188 L 342 191 L 350 191 L 453 155 L 457 150 L 457 145 L 453 133 L 450 132 L 448 134 L 442 135 L 436 130 L 434 125 L 434 119 L 441 114 L 445 114 Z M 437 102 L 438 110 L 430 116 L 429 126 L 432 133 L 437 138 L 450 140 L 452 145 L 452 149 L 450 151 L 427 159 L 423 159 L 420 153 L 417 152 L 419 161 L 416 163 L 349 186 L 344 186 L 341 183 L 327 142 L 327 137 L 329 135 L 396 112 L 400 112 L 404 120 L 406 120 L 404 113 L 405 109 L 431 100 L 435 100 Z"/>
    <path d="M 392 58 L 390 56 L 73 66 L 57 67 L 56 71 L 73 72 L 391 61 Z"/>
    <path d="M 57 41 L 50 46 L 50 54 L 56 59 L 61 59 L 66 55 L 67 47 L 64 43 Z M 57 44 L 61 45 L 64 48 L 64 52 L 60 56 L 56 56 L 52 51 L 53 47 Z"/>
    <path d="M 86 40 L 79 45 L 78 51 L 82 57 L 90 58 L 95 54 L 96 47 L 93 42 Z M 82 46 L 85 44 L 90 44 L 93 47 L 92 53 L 85 55 L 81 50 Z"/>
    <path d="M 115 38 L 108 43 L 107 48 L 110 54 L 119 56 L 124 52 L 125 44 L 122 40 Z M 115 41 L 118 41 L 122 45 L 122 49 L 118 53 L 115 53 L 111 50 L 111 44 Z"/>
    <path d="M 557 14 L 558 41 L 556 49 L 551 58 L 544 65 L 535 68 L 533 72 L 543 72 L 554 76 L 560 82 L 566 93 L 570 114 L 575 114 L 574 93 L 577 82 L 582 73 L 590 65 L 599 61 L 600 57 L 586 56 L 578 52 L 571 45 L 566 36 L 563 27 L 562 15 Z M 562 45 L 565 45 L 571 53 L 585 61 L 585 63 L 576 73 L 570 86 L 567 85 L 564 79 L 557 72 L 550 68 L 550 66 L 556 60 Z"/>
    <path d="M 4 13 L 2 18 L 0 19 L 0 32 L 2 33 L 51 315 L 57 329 L 68 337 L 69 346 L 78 358 L 271 491 L 290 503 L 304 506 L 305 508 L 318 508 L 319 506 L 554 492 L 553 487 L 325 502 L 299 501 L 289 497 L 84 356 L 75 347 L 73 340 L 75 338 L 78 338 L 79 335 L 82 335 L 289 478 L 307 484 L 324 484 L 546 472 L 546 468 L 333 479 L 302 478 L 292 474 L 91 335 L 92 332 L 321 332 L 324 337 L 333 344 L 343 344 L 347 342 L 352 343 L 367 392 L 372 401 L 383 409 L 400 410 L 457 393 L 462 393 L 473 405 L 490 413 L 501 415 L 524 415 L 536 413 L 564 497 L 568 496 L 568 492 L 542 416 L 543 411 L 560 406 L 560 403 L 555 402 L 527 410 L 509 411 L 487 407 L 476 401 L 469 394 L 469 391 L 471 389 L 515 377 L 524 370 L 533 372 L 547 371 L 556 368 L 567 361 L 566 358 L 562 358 L 555 363 L 544 367 L 529 366 L 517 357 L 507 338 L 505 328 L 507 317 L 511 310 L 516 305 L 522 302 L 507 257 L 507 252 L 527 230 L 526 227 L 523 227 L 500 252 L 474 276 L 468 279 L 463 279 L 460 275 L 464 259 L 476 237 L 505 198 L 518 185 L 530 179 L 538 179 L 544 182 L 555 195 L 660 465 L 664 464 L 663 457 L 557 189 L 547 178 L 537 174 L 526 175 L 515 180 L 507 163 L 499 155 L 490 151 L 473 151 L 449 76 L 442 69 L 437 67 L 429 67 L 424 69 L 419 68 L 411 26 L 404 18 L 400 17 L 397 14 L 395 8 L 391 4 L 385 2 L 384 0 L 361 0 L 360 2 L 13 7 Z M 337 310 L 342 311 L 349 333 L 347 337 L 342 339 L 334 339 L 331 337 L 325 327 L 327 318 Z M 328 275 L 331 276 L 338 302 L 331 305 L 323 305 L 317 300 L 314 289 L 317 283 Z M 316 243 L 319 243 L 321 245 L 327 264 L 325 268 L 320 270 L 310 269 L 305 264 L 303 259 L 305 250 Z M 307 211 L 311 213 L 317 236 L 310 240 L 302 240 L 295 232 L 294 223 L 300 215 Z M 315 278 L 310 285 L 131 293 L 122 286 L 104 225 L 103 216 L 107 213 L 302 204 L 303 207 L 291 217 L 289 222 L 289 230 L 293 239 L 301 245 L 298 253 L 298 260 L 302 269 L 306 273 L 314 275 Z M 459 171 L 461 178 L 453 183 L 451 194 L 458 206 L 462 208 L 472 209 L 474 217 L 471 220 L 448 228 L 445 228 L 442 221 L 439 220 L 441 227 L 439 231 L 370 255 L 366 255 L 364 253 L 349 210 L 349 206 L 351 204 L 419 180 L 422 180 L 425 187 L 428 188 L 426 181 L 428 177 L 454 168 Z M 478 156 L 490 156 L 496 159 L 504 168 L 509 179 L 510 185 L 493 205 L 490 204 L 476 161 L 476 158 Z M 295 131 L 297 131 L 300 136 L 379 390 L 389 398 L 400 398 L 515 364 L 519 366 L 516 371 L 396 406 L 384 404 L 374 395 L 293 142 L 293 134 Z M 308 100 L 307 103 L 303 104 L 298 109 L 295 117 L 295 123 L 288 133 L 288 143 L 299 175 L 298 181 L 101 189 L 94 182 L 75 117 L 75 113 L 78 110 L 302 99 Z M 436 72 L 440 74 L 446 82 L 486 207 L 486 215 L 482 220 L 480 220 L 475 201 L 463 203 L 458 198 L 456 194 L 456 188 L 460 184 L 467 182 L 467 178 L 462 166 L 457 163 L 352 198 L 346 201 L 344 204 L 344 211 L 359 254 L 365 260 L 370 260 L 477 223 L 478 226 L 469 239 L 456 267 L 456 279 L 462 284 L 471 283 L 485 274 L 500 259 L 503 260 L 515 299 L 506 308 L 501 320 L 502 338 L 511 357 L 511 360 L 411 390 L 393 394 L 388 392 L 382 385 L 302 129 L 300 117 L 301 114 L 311 106 L 429 72 Z M 405 26 L 407 30 L 407 38 L 414 71 L 338 94 L 323 93 L 74 106 L 70 111 L 70 118 L 87 177 L 91 187 L 100 194 L 127 194 L 301 186 L 305 194 L 304 199 L 106 208 L 101 210 L 98 214 L 99 226 L 117 287 L 123 295 L 130 298 L 308 290 L 312 302 L 318 308 L 325 311 L 319 327 L 88 327 L 82 322 L 78 307 L 32 45 L 32 37 L 38 29 L 52 27 L 350 21 L 399 21 Z M 392 13 L 391 16 L 40 23 L 35 25 L 28 33 L 27 45 L 75 318 L 77 324 L 80 327 L 80 329 L 75 332 L 69 332 L 61 326 L 57 318 L 54 306 L 5 28 L 5 22 L 13 12 L 67 10 L 384 6 Z"/>
  </g>
</svg>
