<?xml version="1.0" encoding="UTF-8"?>
<svg xmlns="http://www.w3.org/2000/svg" xmlns:xlink="http://www.w3.org/1999/xlink" width="15px" height="18px" viewBox="0 0 15 18" version="1.1">
<defs>
<clipPath id="clip1">
  <path d="M 0.523438 0.53125 L 14.476562 0.53125 L 14.476562 17.46875 L 0.523438 17.46875 Z M 0.523438 0.53125 "/>
</clipPath>
</defs>
<g id="surface1">
<g clip-path="url(#clip1)" clip-rule="nonzero">
<path style=" stroke:none;fill-rule:nonzero;fill:rgb(100%,100%,100%);fill-opacity:1;" d="M 12.175781 9.53125 C 12.199219 12.09375 14.453125 12.945312 14.476562 12.957031 C 14.457031 13.019531 14.117188 14.171875 13.289062 15.367188 C 12.578125 16.398438 11.835938 17.425781 10.667969 17.449219 C 9.519531 17.46875 9.152344 16.777344 7.839844 16.777344 C 6.527344 16.777344 6.117188 17.425781 5.03125 17.46875 C 3.90625 17.511719 3.046875 16.355469 2.324219 15.324219 C 0.855469 13.222656 -0.269531 9.382812 1.238281 6.789062 C 1.988281 5.503906 3.332031 4.6875 4.785156 4.667969 C 5.890625 4.644531 6.9375 5.402344 7.613281 5.402344 C 8.289062 5.402344 9.558594 4.492188 10.894531 4.625 C 11.453125 4.648438 13.023438 4.847656 14.027344 6.304688 C 13.949219 6.355469 12.15625 7.386719 12.175781 9.53125 Z M 10.019531 3.234375 C 10.617188 2.519531 11.019531 1.519531 10.910156 0.53125 C 10.050781 0.5625 9.003906 1.097656 8.386719 1.8125 C 7.832031 2.445312 7.347656 3.460938 7.476562 4.433594 C 8.441406 4.507812 9.421875 3.949219 10.019531 3.234375 Z M 10.019531 3.234375 "/>
</g>
</g>
</svg>
