<svg width="20" height="20" viewBox="0 0 20 20" fill="none" xmlns="http://www.w3.org/2000/svg">
<path d="M5.87467 0.00105558C4.35238 -0.0376974 2.96487 0.993975 2.60904 2.53632L2.09048 4.78218C3.53672 2.42446 6.02607 0.869127 8.77877 0.602691L6.53291 0.0841342C6.31257 0.0332426 6.09214 0.0065917 5.87467 0.00105558ZM10.0003 2.05337C5.61996 2.05337 2.05397 5.61937 2.05397 9.9997C2.05397 14.38 5.61996 17.946 10.0003 17.946C14.3806 17.946 17.9466 14.38 17.9466 9.9997C17.9466 5.61937 14.3806 2.05337 10.0003 2.05337ZM15.2178 2.08989C17.5755 3.53612 19.1309 6.02547 19.3973 8.77817L19.9159 6.53231C20.323 4.76963 19.2264 3.01511 17.4637 2.60845L15.2178 2.08989ZM10.0003 3.45566C13.6228 3.45566 16.5443 6.37722 16.5443 9.9997C16.5443 13.6222 13.6228 16.5437 10.0003 16.5437C6.37782 16.5437 3.45626 13.6222 3.45626 9.9997C3.45626 6.37722 6.37782 3.45566 10.0003 3.45566ZM8.23739 5.18388C8.02254 5.18388 7.8098 5.2262 7.61131 5.30842C7.41282 5.39063 7.23247 5.51114 7.08055 5.66306C6.92864 5.81498 6.80813 5.99533 6.72591 6.19382C6.64369 6.39231 6.60138 6.60505 6.60138 6.81989C6.60138 7.03474 6.64369 7.24748 6.72591 7.44596C6.80813 7.64445 6.92864 7.82481 7.08055 7.97673C7.23247 8.12864 7.41282 8.24915 7.61131 8.33137C7.8098 8.41358 8.02254 8.4559 8.23739 8.4559C8.45223 8.4559 8.66497 8.41358 8.86346 8.33137C9.06195 8.24915 9.2423 8.12864 9.39422 7.97673C9.54614 7.82481 9.66665 7.64445 9.74886 7.44596C9.83108 7.24748 9.8734 7.03474 9.8734 6.81989C9.8734 6.60505 9.83108 6.39231 9.74886 6.19382C9.66665 5.99533 9.54614 5.81498 9.39422 5.66306C9.2423 5.51114 9.06195 5.39063 8.86346 5.30842C8.66497 5.2262 8.45223 5.18388 8.23739 5.18388ZM13.1801 6.60078C12.7462 6.60078 12.3301 6.77315 12.0233 7.07996C11.7165 7.38677 11.5441 7.8029 11.5441 8.23679C11.5441 8.67069 11.7165 9.08681 12.0233 9.39363C12.3301 9.70044 12.7462 9.8728 13.1801 9.8728C13.614 9.8728 14.0301 9.70044 14.3369 9.39363C14.6438 9.08681 14.8161 8.67069 14.8161 8.23679C14.8161 7.8029 14.6438 7.38677 14.3369 7.07996C14.0301 6.77315 13.614 6.60078 13.1801 6.60078ZM10.0003 9.06575C9.87522 9.06189 9.75064 9.08319 9.63396 9.12838C9.51727 9.17358 9.41085 9.24176 9.32101 9.32886C9.23117 9.41597 9.15974 9.52023 9.11096 9.63547C9.06219 9.75071 9.03705 9.87457 9.03705 9.9997C9.03705 10.1248 9.06219 10.2487 9.11096 10.3639C9.15974 10.4792 9.23117 10.5834 9.32101 10.6705C9.41085 10.7576 9.51727 10.8258 9.63396 10.871C9.75064 10.9162 9.87522 10.9375 10.0003 10.9337C10.1254 10.9375 10.2499 10.9162 10.3666 10.871C10.4833 10.8258 10.5897 10.7576 10.6796 10.6705C10.7694 10.5834 10.8409 10.4792 10.8896 10.3639C10.9384 10.2487 10.9635 10.1248 10.9635 9.9997C10.9635 9.87457 10.9384 9.75071 10.8896 9.63547C10.8409 9.52023 10.7694 9.41597 10.6796 9.32886C10.5897 9.24176 10.4833 9.17358 10.3666 9.12838C10.2499 9.08319 10.1254 9.06189 10.0003 9.06575ZM6.82049 10.1266C6.38659 10.1266 5.97046 10.299 5.66365 10.6058C5.35684 10.9126 5.18448 11.3287 5.18448 11.7626C5.18448 12.1965 5.35684 12.6126 5.66365 12.9194C5.97046 13.2263 6.38659 13.3986 6.82049 13.3986C7.25438 13.3986 7.67051 13.2263 7.97732 12.9194C8.28413 12.6126 8.4565 12.1965 8.4565 11.7626C8.4565 11.3287 8.28413 10.9126 7.97732 10.6058C7.67051 10.299 7.25438 10.1266 6.82049 10.1266ZM0.603287 11.2221L0.0847303 13.468C-0.321935 15.2307 0.774235 16.9847 2.53692 17.3919L4.78278 17.9104C2.42552 16.4642 0.869723 13.9748 0.603287 11.2221ZM11.7632 11.5435C11.5484 11.5435 11.3356 11.5858 11.1371 11.668C10.9386 11.7503 10.7583 11.8708 10.6064 12.0227C10.4545 12.1746 10.3339 12.3549 10.2517 12.5534C10.1695 12.7519 10.1272 12.9647 10.1272 13.1795C10.1272 13.3944 10.1695 13.6071 10.2517 13.8056C10.3339 14.0041 10.4545 14.1844 10.6064 14.3363C10.7583 14.4883 10.9386 14.6088 11.1371 14.691C11.3356 14.7732 11.5484 14.8155 11.7632 14.8155C11.9781 14.8155 12.1908 14.7732 12.3893 14.691C12.5878 14.6088 12.7681 14.4883 12.92 14.3363C13.072 14.1844 13.1925 14.0041 13.2747 13.8056C13.3569 13.6071 13.3992 13.3944 13.3992 13.1795C13.3992 12.9647 13.3569 12.7519 13.2747 12.5534C13.1925 12.3549 13.072 12.1746 12.92 12.0227C12.7681 11.8708 12.5878 11.7503 12.3893 11.668C12.1908 11.5858 11.9781 11.5435 11.7632 11.5435ZM17.911 15.2172C16.4648 17.5745 13.9754 19.1303 11.2227 19.3967L13.4686 19.9153C15.2313 20.3219 16.9853 19.2258 17.3925 17.4631L17.911 15.2172Z" fill="currentColor"/>
</svg>
