<svg width="18" height="18" viewBox="0 0 18 18" fill="none" xmlns="http://www.w3.org/2000/svg">
<path d="M4.55229 7.85299C4.93102 5.7541 6.77949 4.16667 8.99475 4.16667C10.3093 4.16667 11.4943 4.72575 12.319 5.61725C12.5534 5.87063 12.538 6.26606 12.2846 6.50046C12.0312 6.73486 11.6358 6.71947 11.4014 6.46609C10.8045 5.82087 9.94822 5.41667 8.99475 5.41667C7.46299 5.41667 6.18312 6.4601 5.82876 7.86276L6.02579 7.67386C6.27495 7.43497 6.67059 7.4433 6.90948 7.69245C7.14836 7.94161 7.14004 8.33725 6.89088 8.57614L5.53885 9.87244C5.4161 9.99012 5.2507 10.0527 5.08079 10.0458C4.91089 10.0388 4.75114 9.96296 4.6384 9.83566L3.49043 8.53936C3.26159 8.28095 3.28556 7.88595 3.54397 7.6571C3.80239 7.42825 4.19739 7.45222 4.42623 7.71064L4.55229 7.85299Z" fill="currentColor"/>
<path d="M12.8321 7.87158C13.0019 7.87831 13.1617 7.95392 13.2746 8.08099L14.4256 9.37656C14.6548 9.63461 14.6315 10.0296 14.3734 10.2589C14.1154 10.4882 13.7203 10.4648 13.4911 10.2068L13.3617 10.0611C12.9829 12.1631 11.1259 13.7507 8.904 13.7507C7.59457 13.7507 6.41285 13.1996 5.58593 12.3185C5.34972 12.0668 5.36227 11.6713 5.61396 11.4351C5.86566 11.1988 6.26118 11.2114 6.4974 11.4631C7.09622 12.1011 7.95163 12.5007 8.904 12.5007C10.4432 12.5007 11.7267 11.4576 12.0836 10.0578L11.8913 10.2424C11.6423 10.4815 11.2467 10.4736 11.0076 10.2246C10.7685 9.97564 10.7764 9.57999 11.0254 9.34089L12.3744 8.04532C12.497 7.92758 12.6622 7.86485 12.8321 7.87158Z" fill="currentColor"/>
<path fill-rule="evenodd" clip-rule="evenodd" d="M8.91052 1.76281e-07C6.98686 -1.05526e-05 5.47933 -1.90487e-05 4.30309 0.158122C3.09914 0.319989 2.14912 0.657772 1.40345 1.40345C0.657772 2.14912 0.319989 3.09914 0.158122 4.30309C-1.90487e-05 5.47933 -1.05526e-05 6.98686 1.76283e-07 8.91052V9.00615C-1.05526e-05 10.9298 -1.90487e-05 12.4373 0.158122 13.6136C0.319989 14.8175 0.657772 15.7675 1.40345 16.5132C2.14912 17.2589 3.09914 17.5967 4.30309 17.7585C5.47933 17.9167 6.98686 17.9167 8.91052 17.9167H9.00614C10.9298 17.9167 12.4373 17.9167 13.6136 17.7585C14.8175 17.5967 15.7675 17.2589 16.5132 16.5132C17.2589 15.7675 17.5967 14.8175 17.7585 13.6136C17.9167 12.4373 17.9167 10.9298 17.9167 9.00614V8.91052C17.9167 6.98686 17.9167 5.47933 17.7585 4.30309C17.5967 3.09914 17.2589 2.14912 16.5132 1.40345C15.7675 0.657772 14.8175 0.319989 13.6136 0.158122C12.4373 -1.90487e-05 10.9298 -1.05526e-05 9.00615 1.76281e-07H8.91052ZM2.28733 2.28733C2.76204 1.81262 3.40431 1.54021 4.46965 1.39698C5.55296 1.25133 6.97648 1.25 8.95833 1.25C10.9402 1.25 12.3637 1.25133 13.447 1.39698C14.5124 1.54021 15.1546 1.81262 15.6293 2.28733C16.104 2.76204 16.3765 3.40431 16.5197 4.46965C16.6653 5.55296 16.6667 6.97648 16.6667 8.95833C16.6667 10.9402 16.6653 12.3637 16.5197 13.447C16.3765 14.5124 16.104 15.1546 15.6293 15.6293C15.1546 16.104 14.5124 16.3765 13.447 16.5197C12.3637 16.6653 10.9402 16.6667 8.95833 16.6667C6.97648 16.6667 5.55296 16.6653 4.46965 16.5197C3.40431 16.3765 2.76204 16.104 2.28733 15.6293C1.81262 15.1546 1.54021 14.5124 1.39698 13.447C1.25133 12.3637 1.25 10.9402 1.25 8.95833C1.25 6.97648 1.25133 5.55296 1.39698 4.46965C1.54021 3.40431 1.81262 2.76204 2.28733 2.28733Z" fill="currentColor"/>
</svg>
