<svg width="20" height="20" viewBox="0 0 20 20" fill="none" xmlns="http://www.w3.org/2000/svg">
<g clip-path="url(#clip0_7345_5412)">
<path d="M6.88003 19.1666C6.84409 19.1666 6.80815 19.1666 6.77221 19.1666C6.52065 19.1308 6.34096 18.9876 6.19721 18.7728L4.43626 15.5863L1.2378 13.8319C1.02217 13.7245 0.878418 13.5097 0.842481 13.2591C0.806543 13.0084 0.878418 12.7936 1.05811 12.6146L2.67531 11.0034C2.855 10.8244 3.10656 10.7528 3.35812 10.7886L5.19095 11.1108L7.59878 8.71201L1.77686 5.84772C1.56124 5.74031 1.41748 5.52549 1.34561 5.27486C1.27373 5.02424 1.38155 4.77361 1.56124 4.5946L3.35812 2.80442C3.53781 2.6254 3.82532 2.55379 4.07688 2.5896L11.6957 4.55879L14.3551 1.90933C15.2895 0.978438 17.4817 0.29817 18.5957 1.40808C19.0989 1.90933 19.2786 2.73281 19.0989 3.6637C18.9551 4.41558 18.5598 5.13165 18.0926 5.5971L15.4332 8.24656L17.4098 15.8369C17.4817 16.0875 17.4098 16.374 17.1942 16.553L15.3973 18.3432C15.2176 18.5222 14.966 18.5938 14.7145 18.558C14.4629 18.5222 14.2473 18.379 14.1395 18.1283L11.2644 12.3282L8.85661 14.727L9.18005 16.553C9.21598 16.8036 9.14411 17.0542 8.96442 17.2333L7.34722 18.8444C7.27534 19.095 7.09565 19.1666 6.88003 19.1666ZM2.855 12.9726L5.37064 14.3332C5.51439 14.4048 5.58627 14.5122 5.65814 14.6196L7.02378 17.1258L7.63472 16.5172L7.34722 14.6912C7.31128 14.4406 7.38316 14.1899 7.56285 14.0109L11.0129 10.5738C11.1926 10.3948 11.4441 10.3232 11.6957 10.359C11.9473 10.3948 12.1629 10.538 12.2707 10.7886L15.1457 16.5888L15.8645 15.8727L13.8879 8.28236C13.816 8.03174 13.8879 7.74531 14.1035 7.56629L17.0504 4.6304C17.5895 4.09335 17.877 2.87603 17.5535 2.55379C17.2301 2.23156 16.0082 2.55379 15.4692 3.05504L12.5223 5.99093C12.3426 6.16995 12.0551 6.24156 11.8035 6.20576L4.14876 4.23656L3.43 4.95263L9.25192 7.81692C9.46755 7.92433 9.6113 8.13915 9.68318 8.38977C9.75505 8.6404 9.64724 8.89102 9.46755 9.07004L6.01752 12.5072C5.83783 12.6862 5.58627 12.7578 5.3347 12.722L3.50188 12.3998L2.855 12.9726Z" fill="#303030"/>
</g>
<defs>
<clipPath id="clip0_7345_5412">
<rect width="20" height="20" fill="white"/>
</clipPath>
</defs>
</svg>
