<svg width="18" height="18" viewBox="0 0 18 18" fill="none" xmlns="http://www.w3.org/2000/svg">
<path d="M5.93659 18C5.90131 18 5.86603 18 5.83074 18C5.58375 17.9648 5.40733 17.8242 5.26619 17.6133L3.53726 14.4847L0.396949 12.7623C0.185243 12.6568 0.0441055 12.4459 0.00882109 12.1998C-0.0264633 11.9538 0.0441055 11.7428 0.220527 11.5671L1.80832 9.98521C1.98475 9.80945 2.23174 9.73914 2.47873 9.77429L4.27823 10.0907L6.64228 7.73544L0.926215 4.92324C0.714508 4.81778 0.573371 4.60686 0.502802 4.3608C0.432233 4.11473 0.538087 3.86866 0.714508 3.6929L2.47873 1.93527C2.65515 1.7595 2.93742 1.6892 3.18441 1.72435L10.6647 3.65774L13.2757 1.05645C14.1931 0.142486 16.3455 -0.525413 17.4393 0.564317C17.9333 1.05645 18.1097 1.86496 17.9333 2.77893C17.7921 3.51713 17.404 4.22019 16.9453 4.67717L14.3343 7.27846L16.2749 14.7308C16.3455 14.9769 16.2749 15.2581 16.0632 15.4339L14.299 17.1915C14.1226 17.3673 13.8756 17.4376 13.6286 17.4024C13.3816 17.3673 13.1699 17.2266 13.064 16.9806L10.2413 11.2859L7.87723 13.6411L8.19479 15.4339C8.23008 15.6799 8.15951 15.926 7.98309 16.1018L6.39529 17.6836C6.32472 17.9297 6.1483 18 5.93659 18ZM1.98475 11.9186L4.45465 13.2544C4.59579 13.3247 4.66636 13.4302 4.73693 13.5356L6.07773 15.9963L6.67757 15.3987L6.39529 13.6059C6.36001 13.3599 6.43058 13.1138 6.607 12.938L9.9943 9.56338C10.1707 9.38762 10.4177 9.31731 10.6647 9.35246C10.9117 9.38762 11.1234 9.52823 11.2292 9.77429L14.052 15.469L14.7577 14.766L12.817 7.31361C12.7465 7.06754 12.817 6.78632 13.0288 6.61056L15.9221 3.72805C16.4513 3.20076 16.7336 2.00557 16.4161 1.6892C16.0985 1.37283 14.8988 1.6892 14.3696 2.18134L11.4762 5.06385C11.2998 5.23961 11.0175 5.30992 10.7706 5.27476L3.25498 3.34137L2.5493 4.04442L8.26536 6.85663C8.47707 6.96209 8.61821 7.173 8.68878 7.41907C8.75934 7.66514 8.65349 7.91121 8.47707 8.08697L5.08977 11.4616C4.91335 11.6374 4.66636 11.7077 4.41937 11.6725L2.61986 11.3562L1.98475 11.9186Z" fill="currentColor"/>
</svg>
