<svg width="22" height="22" viewBox="0 0 22 22" fill="none" xmlns="http://www.w3.org/2000/svg">
<path fill-rule="evenodd" clip-rule="evenodd" d="M9.698 1.12109e-06H11.802C12.7005 -2.8264e-05 13.4497 -5.2765e-05 14.0445 0.0799135C14.6723 0.164318 15.2391 0.349989 15.6945 0.805459C16.15 1.26093 16.3357 1.82773 16.4201 2.45552C16.5001 3.05031 16.5 3.79953 16.5 4.69801L16.5 6.00005C17.0766 6.00051 17.5652 6.00491 17.969 6.04599C18.4425 6.09415 18.8818 6.19886 19.2778 6.46346C19.5781 6.6641 19.8359 6.92191 20.0365 7.22218C20.3011 7.61818 20.4059 8.05755 20.454 8.53102C20.5 8.98336 20.5 9.54209 20.5 10.2117V20H20.75C21.1642 20 21.5 20.3358 21.5 20.75C21.5 21.1642 21.1642 21.5 20.75 21.5H0.75C0.335786 21.5 0 21.1642 0 20.75C0 20.3358 0.335786 20 0.75 20H1L0.999999 10.2117C0.999983 9.54208 0.999969 8.98335 1.04598 8.53102C1.09415 8.05755 1.19886 7.61818 1.46346 7.22218C1.66409 6.92191 1.92191 6.6641 2.22218 6.46346C2.61818 6.19886 3.05755 6.09415 3.53102 6.04599C3.93483 6.00491 4.42343 6.00051 5 6.00005L5 4.69801C4.99997 3.79953 4.99995 3.05031 5.07991 2.45552C5.16432 1.82773 5.34999 1.26093 5.80546 0.805459C6.26093 0.349989 6.82773 0.164318 7.45552 0.0799135C8.0503 -5.2765e-05 8.79952 -2.8264e-05 9.698 1.12109e-06ZM5 7.5001C4.41741 7.50075 4.00586 7.50542 3.68283 7.53828C3.32796 7.57438 3.16399 7.6382 3.05554 7.71067C2.91905 7.80186 2.80186 7.91905 2.71066 8.05554C2.6382 8.16399 2.57438 8.32796 2.53828 8.68283C2.50091 9.05023 2.5 9.53216 2.5 10.25V20H5V7.5001ZM6.5 20H10V17.75C10 17.3358 10.3358 17 10.75 17C11.1642 17 11.5 17.3358 11.5 17.75V20H15V4.75C15 3.78599 14.9984 3.13843 14.9335 2.65539C14.8714 2.19393 14.7642 1.99644 14.6339 1.86612C14.5036 1.7358 14.3061 1.62858 13.8446 1.56654C13.3616 1.5016 12.714 1.5 11.75 1.5H9.75C8.78599 1.5 8.13843 1.5016 7.65539 1.56654C7.19393 1.62858 6.99643 1.7358 6.86612 1.86612C6.7358 1.99644 6.62858 2.19393 6.56654 2.65539C6.50159 3.13843 6.5 3.78599 6.5 4.75V20ZM16.5 20H19V10.25C19 9.53216 18.9991 9.05023 18.9617 8.68283C18.9256 8.32796 18.8618 8.16399 18.7893 8.05554C18.6981 7.91905 18.5809 7.80186 18.4445 7.71067C18.336 7.6382 18.172 7.57438 17.8172 7.53828C17.4941 7.50542 17.0826 7.50075 16.5 7.5001V20ZM8 3.75C8 3.33579 8.33579 3 8.75 3H12.75C13.1642 3 13.5 3.33579 13.5 3.75C13.5 4.16422 13.1642 4.5 12.75 4.5H8.75C8.33579 4.5 8 4.16422 8 3.75ZM8 6.75C8 6.33579 8.33579 6 8.75 6H12.75C13.1642 6 13.5 6.33579 13.5 6.75C13.5 7.16422 13.1642 7.5 12.75 7.5H8.75C8.33579 7.5 8 7.16422 8 6.75ZM8 9.75C8 9.33579 8.33579 9 8.75 9H12.75C13.1642 9 13.5 9.33579 13.5 9.75C13.5 10.1642 13.1642 10.5 12.75 10.5H8.75C8.33579 10.5 8 10.1642 8 9.75ZM8 12.75C8 12.3358 8.33579 12 8.75 12H12.75C13.1642 12 13.5 12.3358 13.5 12.75C13.5 13.1642 13.1642 13.5 12.75 13.5H8.75C8.33579 13.5 8 13.1642 8 12.75Z" fill="currentColor"/>
</svg>
