<svg width="22" height="17" viewBox="0 0 22 17" fill="none" xmlns="http://www.w3.org/2000/svg">
<path fill-rule="evenodd" clip-rule="evenodd" d="M17.4434 5.96839C16.8301 5.95919 16.2211 6.07152 15.6517 6.29885C15.0824 6.52619 14.5642 6.86399 14.1272 7.29259C13.6902 7.7212 13.3431 8.23205 13.1063 8.79544C12.8694 9.35882 12.7474 9.96349 12.7474 10.5742C12.7474 11.185 12.8694 11.7897 13.1063 12.3531C13.3431 12.9164 13.6902 13.4273 14.1272 13.8559C14.5642 14.2845 15.0824 14.6223 15.6517 14.8496C16.2211 15.077 16.8301 15.1893 17.4434 15.1801C18.6582 15.1619 19.817 14.6686 20.6695 13.8068C21.5221 12.945 22 11.7839 22 10.5742C22 9.36458 21.5221 8.20346 20.6695 7.34168C19.817 6.4799 18.6582 5.98662 17.4434 5.96839ZM16.4663 11.1387H18.4206C18.387 11.9024 18.2157 12.6556 17.9162 13.3597C17.8217 13.5899 17.683 13.8012 17.5065 13.9791L17.4434 14.0345L17.3415 14.0105C17.166 13.8326 17.0263 13.6223 16.9317 13.3911C16.6425 12.6741 16.4852 11.9111 16.4673 11.1387H16.4663ZM19.5638 11.1387H20.8877C20.7966 11.6769 20.5803 12.1865 20.2561 12.6266C19.9319 13.0668 19.5088 13.4253 19.0205 13.6736C19.3431 12.8649 19.5267 12.008 19.5638 11.1387ZM14.0002 11.1387H15.3241C15.3629 12.0071 15.5439 12.8633 15.86 13.6736C15.3728 13.4249 14.9509 13.0661 14.6279 12.6259C14.305 12.1857 14.09 11.6764 14.0002 11.1387ZM19.0279 7.47491C19.5142 7.72448 19.9354 8.08339 20.2583 8.52321C20.5811 8.96302 20.7966 9.47164 20.8877 10.0088H19.5638C19.5249 9.14044 19.3431 8.28466 19.0279 7.47491ZM15.8758 7.47491L15.8285 7.59208C15.5437 8.3694 15.3788 9.18333 15.3399 10.0088H14.016C14.1043 9.47272 14.3169 8.96456 14.637 8.52468C14.9571 8.08481 15.3759 7.72536 15.86 7.47491H15.8758ZM17.4518 7.1056L17.5149 7.16837C17.6903 7.34622 17.8301 7.55755 17.9247 7.78876C18.2238 8.49309 18.3946 9.24483 18.429 10.0088H16.4673C16.5017 9.24483 16.6725 8.49309 16.9717 7.78876C17.0543 7.5605 17.1799 7.34996 17.3415 7.16837L17.4518 7.1056Z" fill="#303030"/>
<path d="M15.6319 0.231042C15.8975 0.366757 16.1311 0.557212 16.3171 0.789746C16.6506 1.06596 16.8902 1.43811 17.0031 1.8552C17.116 2.2723 17.0965 2.71394 16.9475 3.11961L16.9002 3.22946C16.6569 3.72309 16.3071 4.15713 15.8758 4.50058L14.575 5.64616C13.8272 6.0735 13.186 6.6636 12.6995 7.37238C12.2716 8.00063 11.9744 8.7078 11.8253 9.45221L11.2736 7.24684C11.2378 7.12138 11.2371 6.98854 11.2717 6.86275C11.3064 6.73695 11.375 6.62302 11.4701 6.53333L14.9375 3.39476L15.135 3.20645C15.3515 3.02022 15.529 2.79425 15.6551 2.53898C15.7497 2.28789 15.7812 2.18641 15.3399 1.71562C14.8986 1.24484 14.5907 1.26053 14.1106 1.65285L14.0002 1.74701L13.8899 1.85686L13.622 2.12364L10.4698 5.5677C10.3818 5.66326 10.2691 5.73284 10.144 5.76883C10.0189 5.80481 9.88624 5.80581 9.76061 5.77171L5.04081 4.51628L2.55062 3.8101C2.36457 3.75254 2.16623 3.74699 1.97723 3.79403C1.78823 3.84108 1.61584 3.93892 1.47889 4.07688L1.41585 4.13965H1.47048L7.88509 7.08991C7.98673 7.13543 8.07614 7.20419 8.14606 7.29061C8.21598 7.37702 8.26443 7.47865 8.28747 7.58723C8.3105 7.6958 8.30748 7.80825 8.27864 7.91544C8.2498 8.02263 8.19596 8.12153 8.1215 8.2041L4.73295 11.7904C4.63388 11.8943 4.50542 11.9656 4.36465 11.9949C4.22388 12.0243 4.07748 12.0102 3.94491 11.9547L2.36884 11.2255C2.32833 11.1992 2.27953 11.1886 2.23169 11.1957C2.18386 11.2029 2.14031 11.2272 2.10932 11.2642C2.08286 11.2964 2.06839 11.3367 2.06839 11.3782C2.06839 11.4198 2.08286 11.4601 2.10932 11.4923C2.10932 11.4923 3.4641 12.2134 4.13787 12.903C4.76306 13.543 5.42642 14.7951 5.42642 14.7951L5.51258 14.8976C5.52518 14.9171 5.54166 14.9339 5.56099 14.9468C5.58032 14.9598 5.6021 14.9687 5.625 14.973C5.65564 14.9781 5.68709 14.9754 5.71635 14.965C5.74561 14.9546 5.77171 14.9369 5.79216 14.9136C5.8126 14.8903 5.82671 14.8622 5.83313 14.8319C5.83955 14.8016 5.83807 14.7702 5.82884 14.7407L5.75004 14.5995L5.02505 13.0302C4.96836 12.8983 4.95379 12.7523 4.9833 12.612C5.01281 12.4716 5.08498 12.3437 5.19001 12.2455L8.88642 8.87889C8.96905 8.80345 9.06845 8.74856 9.17648 8.71871C9.28451 8.68886 9.3981 8.68489 9.50797 8.70714C9.61783 8.72939 9.72085 8.77721 9.80859 8.8467C9.89633 8.91619 9.9663 9.00538 10.0128 9.10696L12.9684 15.5097V15.494H13.0147C13.1335 15.3602 13.2157 15.1981 13.253 15.0234C13.2904 14.8487 13.2818 14.6673 13.228 14.4969V14.4111C13.6303 14.8444 14.0983 15.2123 14.6149 15.5013C14.51 15.8657 14.3182 16.1995 14.0559 16.4742L14.0002 16.5297C13.8465 16.7026 13.652 16.8348 13.4342 16.9144C13.2165 16.994 12.9823 17.0186 12.7527 16.986C12.5231 16.9533 12.3052 16.8644 12.1186 16.7273C11.932 16.5901 11.7824 16.409 11.6834 16.2001V16.129L9.13018 10.6365L6.52967 12.9904L7.01468 14.0494C7.00556 14.0363 6.99625 14.0233 6.98673 14.0105L7.0256 14.0732L7.01468 14.0494C7.1258 14.2091 7.20672 14.3878 7.25331 14.5768C7.30372 14.7813 7.31293 14.9937 7.28041 15.2017C7.24789 15.4097 7.17429 15.6093 7.06386 15.7888C6.95343 15.9684 6.80835 16.1243 6.63702 16.2477C6.46569 16.3711 6.27149 16.4595 6.06567 16.5077C5.85984 16.5559 5.64645 16.563 5.43784 16.5286C5.22923 16.4942 5.02954 16.419 4.8503 16.3073C4.67106 16.1956 4.51582 16.0497 4.39357 15.8779C4.39357 15.8779 3.73368 14.5903 3.08716 13.9492C2.44375 13.3112 1.15527 12.6609 1.15527 12.6609C0.868559 12.4081 0.684092 12.06 0.636332 11.6817C0.58857 11.3034 0.680782 10.9207 0.895742 10.6051L0.966141 10.511C1.19419 10.2168 1.5197 10.0127 1.8847 9.93513C2.2497 9.85754 2.63052 9.91144 2.95934 10.0872L3.99955 10.5193L6.36365 7.93L0.847408 5.37939H0.792772C0.584366 5.28015 0.403988 5.13092 0.267849 4.94509C0.131708 4.75926 0.044075 4.54266 0.0128212 4.31476C-0.0184345 4.08686 0.00767136 3.8548 0.0887909 3.63943C0.16991 3.42406 0.303501 3.23214 0.477558 3.0809L0.533247 3.02546L0.64357 2.9313C0.956869 2.66469 1.33302 2.48164 1.73676 2.3993C2.14051 2.31695 2.55865 2.33802 2.95199 2.46051L5.02505 3.04952L9.69757 4.35935L12.5975 1.16637L12.7867 0.969691C12.9064 0.850425 13.0325 0.737436 13.1649 0.632817C13.3733 0.419914 13.6247 0.253606 13.9026 0.144948C14.1805 0.036289 14.4784 -0.0122308 14.7766 0.00261335C15.0747 0.0174575 15.3663 0.0953256 15.6319 0.231042Z" fill="#303030"/>
</svg>
