<svg width="18" height="15" viewBox="0 0 18 15" fill="none" xmlns="http://www.w3.org/2000/svg">
<path fill-rule="evenodd" clip-rule="evenodd" d="M7.24167 2.65014e-07H10.6751C12.2095 -1.2848e-05 13.4246 -2.32831e-05 14.3756 0.127592C15.3541 0.258904 16.1459 0.535531 16.7705 1.15896C17.699 2.08575 17.8705 3.39794 17.9164 5.1877C17.9321 5.80125 17.4467 6.17785 17.0409 6.28397C16.5917 6.40143 16.2624 6.80952 16.2624 7.29167C16.2624 7.77381 16.5917 8.18191 17.0409 8.29936C17.4467 8.40548 17.9321 8.78209 17.9164 9.39564C17.8705 11.1854 17.699 12.4976 16.7705 13.4244C16.1459 14.0478 15.3541 14.3244 14.3756 14.4557C13.4246 14.5834 12.2095 14.5833 10.6751 14.5833H7.24167C5.70724 14.5833 4.4921 14.5834 3.54115 14.4557C2.56266 14.3244 1.77079 14.0478 1.1462 13.4244C0.217705 12.4976 0.0462085 11.1854 0.000371794 9.39564C-0.0153415 8.78209 0.470079 8.40548 0.875867 8.29936C1.325 8.18191 1.65437 7.77381 1.65437 7.29167C1.65437 6.80952 1.325 6.40143 0.875869 6.28397C0.470079 6.17785 -0.0153415 5.80125 0.000371794 5.1877C0.0462085 3.39794 0.217705 2.08575 1.1462 1.15896C1.77079 0.53553 2.56266 0.258904 3.54115 0.127592C4.4921 -2.32831e-05 5.70724 -1.2848e-05 7.24167 2.65014e-07ZM3.70741 1.36649C2.86711 1.47925 2.3828 1.69078 2.02927 2.04366C1.50608 2.56588 1.30621 3.35639 1.25354 5.09162C2.20644 5.36948 2.90437 6.2479 2.90437 7.29167C2.90437 8.33543 2.20644 9.21386 1.25354 9.49171C1.30621 11.2269 1.50608 12.0175 2.02927 12.5397C2.3828 12.8926 2.86711 13.1041 3.70741 13.2168C4.56557 13.332 5.69672 13.3333 7.28862 13.3333H10.6281C12.22 13.3333 13.3512 13.332 14.2093 13.2168C15.0496 13.1041 15.5339 12.8926 15.8875 12.5397C16.4106 12.0175 16.6105 11.2269 16.6632 9.49171C15.7103 9.21386 15.0124 8.33543 15.0124 7.29167C15.0124 6.2479 15.7103 5.36947 16.6632 5.09162C16.6105 3.35639 16.4106 2.56588 15.8875 2.04366C15.5339 1.69078 15.0496 1.47925 14.2093 1.36649C13.3512 1.25132 12.22 1.25 10.6281 1.25H7.28862C5.69672 1.25 4.56557 1.25132 3.70741 1.36649ZM8.95836 5.65374C8.90992 5.73761 8.85605 5.83419 8.79257 5.94807L8.71064 6.09504C8.70486 6.10542 8.69866 6.11675 8.69203 6.12888C8.62658 6.24856 8.51821 6.44675 8.3375 6.58393C8.15302 6.72397 7.93112 6.77216 7.80136 6.80033C7.78836 6.80316 7.77628 6.80578 7.76526 6.80827L7.60617 6.84427C7.4602 6.87729 7.34129 6.90424 7.23961 6.9298C7.30575 7.0112 7.39165 7.11228 7.50339 7.24295L7.61184 7.36977C7.61954 7.37877 7.62791 7.38841 7.63682 7.39867C7.72676 7.50227 7.87198 7.66955 7.93914 7.88551C8.0055 8.09891 7.98261 8.31869 7.96817 8.45735C7.96673 8.47118 7.96537 8.48421 7.9642 8.49634L7.9478 8.66555C7.9326 8.82243 7.92078 8.94765 7.91291 9.04948C7.99975 9.01123 8.09853 8.96578 8.21589 8.91175L8.36484 8.84316C8.3751 8.83844 8.38633 8.83314 8.39848 8.82741C8.51807 8.77101 8.72614 8.67288 8.95837 8.67288C9.19059 8.67288 9.39866 8.77101 9.51825 8.82741C9.5304 8.83314 9.54163 8.83844 9.55189 8.84316L9.70084 8.91175C9.8182 8.96578 9.91698 9.01123 10.0038 9.04948C9.99595 8.94765 9.98413 8.82243 9.96893 8.66555L9.95253 8.49634C9.95136 8.48421 9.95 8.47119 9.94856 8.45735C9.93412 8.31869 9.91123 8.09891 9.97759 7.88551C10.0447 7.66955 10.19 7.50228 10.2799 7.39867C10.2888 7.38841 10.2972 7.37877 10.3049 7.36977L10.4133 7.24295C10.5251 7.11228 10.611 7.01121 10.6771 6.9298C10.5754 6.90424 10.4565 6.87729 10.3106 6.84427L10.1515 6.80827C10.1404 6.80578 10.1284 6.80316 10.1154 6.80033C9.98561 6.77216 9.76371 6.72397 9.57923 6.58393C9.39852 6.44675 9.29015 6.24856 9.22471 6.12888C9.21807 6.11675 9.21187 6.10542 9.20609 6.09504L9.12417 5.94808C9.06068 5.83419 9.00681 5.73761 8.95836 5.65374ZM8.13628 4.62469C8.27975 4.43734 8.54028 4.16667 8.95837 4.16667C9.37645 4.16667 9.63698 4.43734 9.78045 4.62469C9.91739 4.80351 10.0553 5.05103 10.1967 5.30481C10.2031 5.31634 10.2095 5.32789 10.216 5.33945L10.2979 5.48641C10.3169 5.52049 10.3319 5.54731 10.345 5.57025C10.3677 5.57559 10.3942 5.5816 10.4273 5.58909L10.5864 5.62508C10.5994 5.62803 10.6125 5.63097 10.6255 5.63392C10.8987 5.69565 11.1702 5.757 11.3786 5.83912C11.6087 5.92981 11.9206 6.10642 12.0408 6.49301C12.1589 6.87278 12.0099 7.19447 11.8797 7.40122C11.7593 7.59257 11.5762 7.80655 11.3888 8.02562C11.3803 8.03552 11.3718 8.04543 11.3633 8.05535L11.2549 8.18218C11.2261 8.21578 11.2045 8.24113 11.1862 8.26305C11.1887 8.29333 11.1921 8.32861 11.1967 8.37577L11.2131 8.54498C11.2144 8.55789 11.2156 8.57079 11.2169 8.58366C11.2453 8.87693 11.2729 9.16035 11.2628 9.38706C11.2522 9.62477 11.1951 9.98461 10.8725 10.2295C10.5396 10.4822 10.1721 10.4271 9.93895 10.3603C9.72416 10.2988 9.47039 10.1819 9.21479 10.0641C9.20255 10.0585 9.1903 10.0528 9.17805 10.0472L9.0291 9.97859C9.00123 9.96576 8.97833 9.95522 8.95837 9.94618C8.93841 9.95522 8.9155 9.96576 8.88763 9.97859L8.73868 10.0472C8.72644 10.0528 8.71419 10.0585 8.70195 10.0641C8.44635 10.1819 8.19257 10.2988 7.97778 10.3603C7.74468 10.4271 7.37709 10.4822 7.04425 10.2295C6.72161 9.98461 6.66456 9.62477 6.65397 9.38706C6.64387 9.16035 6.67139 8.87693 6.69988 8.58366C6.70113 8.57079 6.70238 8.55789 6.70363 8.54499L6.72003 8.37577C6.7246 8.32861 6.728 8.29333 6.73049 8.26306C6.71224 8.24113 6.69058 8.21578 6.66185 8.18217L6.55339 8.05535C6.54491 8.04543 6.53642 8.03552 6.52795 8.02562C6.34053 7.80655 6.15745 7.59257 6.037 7.40122C5.90684 7.19447 5.75781 6.87278 5.87591 6.49301C5.99613 6.10642 6.30805 5.92981 6.53817 5.83912C6.74657 5.757 7.01806 5.69565 7.29124 5.63392C7.30427 5.63097 7.3173 5.62803 7.33032 5.62508L7.48941 5.58909C7.52252 5.5816 7.54901 5.57559 7.57178 5.57025C7.58486 5.54731 7.59982 5.5205 7.61882 5.48641L7.70075 5.33945C7.70719 5.32789 7.71362 5.31634 7.72005 5.3048C7.86144 5.05103 7.99934 4.80351 8.13628 4.62469Z" fill="currentColor"/>
</svg>
