<svg width="100" height="100" viewBox="0 0 100 100" fill="none" xmlns="http://www.w3.org/2000/svg">
<path d="M74.3394 24.6654L74.3154 24.8187L74.2866 24.9769L74.2531 25.1493L74.2099 25.3027L74.1572 25.4272L74.114 25.5374L74.0805 25.5662V25.5997H73.9798V25.5231L73.9366 25.4081L73.903 25.2691V24.4738L73.9366 24.3348L73.9798 24.215L74.0229 24.1192L74.0661 24.0329L74.1188 23.9707H74.2914L74.3346 24.0473L74.3634 24.1336L74.3873 24.2486V24.6558L74.3394 24.6654Z" fill="#1F2C51"/>
<path d="M73.2653 24.6127V24.9337L73.2365 25.0966L73.203 25.2452L73.1598 25.3841L73.1071 25.4943L73.0831 25.5231V25.5566L73.0495 25.5806H72.9824V25.5039L72.9297 25.3985L72.8961 25.2595L72.8673 25.0966V24.3013L72.9009 24.1719L72.944 24.0665L72.9872 23.9802L73.0399 23.918H73.0735L73.016 23.8748H73.0687L73.1023 23.8988V23.9275L73.1454 23.9946L73.1742 24.0904V24.6031L73.2653 24.6127Z" fill="#1F2C51"/>
<path d="M72.244 24.6654V25.2931L72.2008 25.4321L72.1577 25.5423L72.1289 25.5854L72.1049 25.6141L72.0714 25.6381H71.9659L71.9323 25.6045V25.5614L71.8892 25.456L71.7741 25.3123L71.7309 24.9912V24.215L71.7597 24.1192L71.8029 24.033L71.8364 24.0042H72.033L72.0762 24.0665L72.1193 24.1527L72.1529 24.2629V24.3779L72.1769 24.5169V24.6558L72.244 24.6654Z" fill="#1F2C51"/>
<path d="M71.1843 24.7517V25.5231L71.1603 25.5662V25.6237L71.1268 25.6524L71.0836 25.686L71.0404 25.7195H70.9014L70.8678 25.686V25.6429L70.8343 25.5902V25.4608L70.7815 25.1589L70.6569 24.8331V24.4738L70.6185 24.354V24.2581L70.6616 24.1815V24.1479L70.6904 24.1192H70.9062L70.9589 24.1815L71.0021 24.2581L71.0452 24.354L71.0788 24.4738V24.7277L71.1843 24.7517Z" fill="#1F2C51"/>
<path d="M70.0575 24.9337V25.7531L70.0335 25.7914L69.9999 25.8345L69.9568 25.8681L69.9136 25.892H69.8177L69.7842 25.8681L69.7554 25.8393L69.7218 25.7962L69.6595 25.7531V25.6237L69.5732 25.3122L69.53 25.0248V24.445L69.5636 24.3683L69.5972 24.3348H69.7794L69.8129 24.3588L69.8657 24.4115L69.9232 24.4881L69.952 24.584L69.9856 24.7037L70.0095 24.8283V24.9673L70.0575 24.9337Z" fill="#1F2C51"/>
<path d="M69.0601 25.1398V25.9543L69.0314 26.007V26.0501L68.9882 26.0837H68.8156L68.7724 26.0549L68.7389 26.0214V25.9016L68.7053 25.8393L68.6382 25.5375L68.5758 25.25V24.6894L68.6046 24.6031L68.6382 24.5696H68.8539L68.9115 24.6223L68.9642 24.699L69.0074 24.7948L69.0505 24.9002L69.0793 25.0296V25.1589L69.0601 25.1398Z" fill="#1F2C51"/>
<path d="M68.1347 25.4512L68.1587 25.5997V26.2657L68.1251 26.3185V26.3616L68.0819 26.3951H67.9093L67.8662 26.3664L67.8326 26.3232V26.2801L67.799 26.213L67.7751 26.1508L67.7127 25.8489L67.6456 25.5614V24.9864L67.6792 24.9146L67.7127 24.881L67.7463 24.8571L67.7415 24.8331H67.847L67.8806 24.8571L67.9333 24.9098L67.9861 24.9816L68.0292 25.0679L68.0724 25.1877L68.0963 25.317L68.1251 25.4464L68.1347 25.4512Z" fill="#1F2C51"/>
<path d="M67.2141 25.9016L67.2476 26.0406L67.2764 26.1795V26.6107L67.2476 26.6634L67.2141 26.6922L67.1709 26.7257L67.1278 26.7497H67.0414L67.0079 26.7161L66.9647 26.6826L66.936 26.6395L66.9024 26.5868L66.8688 26.5245L66.7633 26.2322L66.677 25.9543L66.6339 25.8345L66.6003 25.7099V25.2356L66.6339 25.2021H66.8496L66.912 25.2452L66.9743 25.3123L67.0318 25.3985L67.0846 25.5039L67.1278 25.6237L67.2141 25.9016Z" fill="#1F2C51"/>
<path d="M66.1639 26.146L66.2167 26.2753L66.3462 26.6922V27.0276L66.3126 27.0707L66.2838 27.1138H66.1208L66.0872 27.0803L66.0441 27.0372L66.0153 26.9844L65.9817 26.9317L65.8523 26.6538L65.7468 26.3951L65.6892 26.2753L65.6461 26.1603L65.6173 26.0405V25.6764L65.6509 25.6524H65.7899L65.8523 25.686L65.905 25.7483L65.9721 25.8249L66.0249 25.9303L66.0776 26.0405L66.1352 26.1651L66.1639 26.146Z" fill="#1F2C51"/>
<path d="M65.205 26.5532L65.3009 26.8215L65.3776 27.0803L65.4016 27.2001V27.454L65.3728 27.4971H65.2337L65.1906 27.4636L65.157 27.4301L65.1234 27.3774L65.0899 27.3246L64.9748 27.0659L64.8645 26.8072L64.8118 26.6922L64.7686 26.582L64.7351 26.467V26.1124H64.8981L64.9604 26.1412L65.0132 26.1987L65.0707 26.2705L65.1234 26.3664L65.1762 26.4766L65.2289 26.5916L65.205 26.5532Z" fill="#1F2C51"/>
<path d="M64.2508 27.1234L64.4042 27.3582L64.5289 27.593L64.572 27.7128V28.0146L64.5385 28.0434L64.5049 28.0673H64.4426L64.3994 28.0434H64.3563L64.27 27.9571L64.0973 27.7223L63.9055 27.4684L63.8432 27.3678L63.7809 27.2719L63.7233 27.1665L63.6802 27.0707V26.7928L63.7137 26.7593H63.8959L63.9631 26.8024L64.035 26.8695L64.1021 26.9413L64.1741 27.042L64.2508 27.1474V27.1234Z" fill="#1F2C51"/>
<path d="M63.4261 27.708L63.5747 27.9427L63.7042 28.1823L63.7473 28.2973V28.556L63.7233 28.5992L63.6946 28.6327H63.5411L63.4213 28.5129L63.2534 28.2781L63.0904 28.0625L63.0137 27.9523L62.9609 27.8565L62.9082 27.7511L62.865 27.6553V27.3438L62.8986 27.3199H63.0281L63.1 27.363L63.1671 27.4301L63.2391 27.5019L63.3158 27.6025L63.4261 27.708Z" fill="#1F2C51"/>
<path d="M62.6109 28.3787L62.7691 28.6039L62.9082 28.8291L62.9657 28.9441L62.9945 29.0543V29.2747H62.8458L62.8027 29.2412L62.7595 29.2125L62.7164 29.1693L62.467 28.9585L62.2944 28.7525L62.141 28.5608L62.0355 28.3692V28.2685L61.9875 28.1871V28.0577L62.0115 28.0338H62.1697L62.2369 28.0673L62.3088 28.1296L62.467 28.1871L62.5533 28.2829L62.6301 28.3787H62.6109Z" fill="#1F2C51"/>
<path d="M61.8917 28.9681L62.0739 29.1693L62.2321 29.385L62.2896 29.4952L62.3328 29.6006V29.8353H62.1362L62.0931 29.8018L62.0499 29.7683L61.9876 29.7587L61.7862 29.567L61.5896 29.3658L61.5081 29.2795L61.3546 29.1071L61.3019 29.0112L61.2683 28.925V28.6998L61.3019 28.6758H61.3354L61.5081 28.6662L61.5704 28.6902L61.6567 28.7429L61.743 28.8052L61.9156 28.9777L61.8917 28.9681Z" fill="#1F2C51"/>
<path d="M61.1628 29.6533L61.3306 29.8449L61.4937 30.0509L61.556 30.1564L61.5895 30.2522V30.4486L61.5656 30.4774H61.3738L61.321 30.4486L61.2779 30.4151L61.0765 30.233L60.8943 30.0414L60.8176 29.9647L60.7408 29.8785L60.6785 29.7922L60.6258 29.706L60.5826 29.6245V29.3897H60.784L60.8607 29.4329L60.9374 29.4999L61.0237 29.5718L61.1101 29.6581L61.1628 29.6533Z" fill="#1F2C51"/>
<path d="M60.3668 30.4247L60.549 30.5828L60.7312 30.7745L60.808 30.8751L60.8607 30.9709V31.2153L60.8271 31.2488H60.6162L60.549 31.1961L60.3237 31.0284L60.1079 30.8655L60.012 30.7888L59.9257 30.717L59.8538 30.6307L59.7866 30.5445L59.7339 30.4678L59.7003 30.3816V30.1899H59.8825L59.9688 30.2235L60.0552 30.2762L60.1511 30.3384L60.2613 30.4247H60.3668Z" fill="#1F2C51"/>
<path d="M59.6908 31.2106L59.9257 31.3496L60.1415 31.5079L60.2278 31.5846L60.2901 31.6805L60.3141 31.7236V31.9154L60.2901 31.949H60.012L59.7675 31.8291L59.5277 31.6997L59.4318 31.6469L59.3263 31.5846L59.24 31.5175L59.1633 31.4407L59.1106 31.3592L59.0674 31.2825V31.1339L59.1106 31.0619H59.3455L59.4414 31.1051L59.5469 31.1578L59.6572 31.2154L59.6908 31.2106Z" fill="#1F2C51"/>
<path d="M59.1345 32.097L59.3599 32.2361L59.5709 32.3895L59.6572 32.4758L59.7243 32.5621V32.6053L59.7483 32.658V32.8306H59.5229L59.4702 32.8067L59.2208 32.682L58.9859 32.5525L58.8612 32.4998L58.7653 32.4374L58.679 32.3751L58.5975 32.308L58.54 32.2313L58.4968 32.1593V31.9627L58.5256 31.9388H58.6646L58.7653 31.9627L58.8612 31.9963L58.9667 32.0491L59.077 32.1114L59.1345 32.097Z" fill="#1F2C51"/>
<path d="M58.6311 32.8923L58.7605 32.9547L58.89 33.0218L59.0147 33.0841L59.1345 33.1609L59.2304 33.2472L59.3072 33.3335L59.3407 33.3862V33.6212L59.3072 33.6452H59.0386L58.7605 33.5397L58.5016 33.4198L58.3817 33.367L58.2762 33.3143L58.1516 33.2376L58.0653 33.1705L57.9885 33.0937L57.9454 33.0218V32.806H57.9789V32.7821H58.2475L58.3578 32.8156L58.4728 32.8684L58.5927 32.9211L58.6311 32.8923Z" fill="#1F2C51"/>
<path d="M58.1756 33.9369L58.4153 34.0664L58.6263 34.215L58.7126 34.2917L58.7797 34.378V34.6322H58.564L58.5112 34.6082L58.2523 34.4883L58.0173 34.3637L57.9214 34.3061L57.8207 34.2534L57.7248 34.191L57.6721 34.1239L57.605 34.052L57.5618 33.9849V33.8122L57.5954 33.7883H57.8303L57.9262 33.8314L58.0365 33.8746L58.142 33.9417L58.1756 33.9369Z" fill="#1F2C51"/>
<path d="M57.7584 34.8951L58.0077 35.0006L58.2427 35.1205L58.3386 35.1828L58.4153 35.2595L58.4441 35.3027V35.528H58.4105L58.3769 35.552H58.1756L57.907 35.4657L57.6721 35.4034L57.5522 35.3746L57.4467 35.3314L57.3508 35.2787L57.2645 35.226L57.1926 35.1444L57.135 35.0821V34.8519H57.4803L57.5858 34.8855L57.7057 34.9287L57.7584 34.8951Z" fill="#1F2C51"/>
<path d="M57.3508 36.0354L57.6193 36.0978L57.8878 36.1841L57.9933 36.2368L58.094 36.304L58.1228 36.3327L58.1564 36.3759V36.5629H57.8974L57.6097 36.5197L57.3268 36.467H57.0919L56.9864 36.4238L56.8761 36.3807L56.7946 36.3327L56.7131 36.2944V36.0882H56.7466L56.809 36.0546H57.2166L57.346 36.0786L57.3508 36.0354Z" fill="#1F2C51"/>
<path d="M57.0055 37.0656L57.298 37.1183L57.5666 37.1951L57.6816 37.2478L57.7823 37.3006L57.8111 37.3437L57.8447 37.3869V37.5595L57.8111 37.5882L57.7775 37.6122H57.5522L57.2549 37.5835L56.972 37.5499H56.7274L56.6076 37.5163L56.5021 37.4732L56.4158 37.4204L56.3534 37.3677V37.1423L56.4158 37.1135L56.5021 37.0896H56.8377L56.9624 37.1135L57.0055 37.0656Z" fill="#1F2C51"/>
<path d="M56.8042 38.0095L57.0823 38.0622L57.3508 38.1389L57.4707 38.1917L57.5666 38.2444L57.6097 38.2876L57.6433 38.3307V38.5321H57.3748L57.0727 38.4986L56.7946 38.4698H56.5452L56.4302 38.4362L56.3343 38.3931L56.2336 38.3403L56.1568 38.2876V38.0622L56.224 38.0287H56.7802L56.8042 38.0095Z" fill="#1F2C51"/>
<path d="M56.5692 39.0684L56.8569 39.102L57.1254 39.1547L57.2453 39.1979L57.3508 39.2602L57.4179 39.3273L57.4467 39.3705V39.5431H56.3535L56.2336 39.5191L56.1281 39.476L56.0418 39.4472L55.9651 39.3897V39.1499L56.0178 39.1068L56.1041 39.0732H56.5788L56.5692 39.0684Z" fill="#1F2C51"/>
<path d="M56.387 40.1177H56.7946L56.924 40.1513L57.0391 40.1944L57.135 40.2472L57.1782 40.2807L57.2117 40.3239V40.5301L57.183 40.5588H56.2671L56.152 40.5349H56.0322L55.9363 40.5013L55.8499 40.4581L55.7732 40.415V40.1561L55.8499 40.1656L55.9219 40.1369H56.387V40.1177Z" fill="#1F2C51"/>
<path d="M56.3007 41.1479L56.5884 41.1718L56.8665 41.215L56.9864 41.2486L57.0823 41.3013L57.1255 41.3349L57.1686 41.3636V41.4068L57.1926 41.4499V41.5363L57.1686 41.5698L57.1398 41.6034H55.8692L55.7829 41.5746L55.7109 41.5171H55.6774V41.3109L55.7445 41.2677L55.8164 41.2342H56.2911L56.3007 41.1479Z" fill="#1F2C51"/>
<path d="M56.2575 42.3074L56.5452 42.3314L56.8233 42.3745L56.9432 42.4129L57.0487 42.4704L57.0822 42.4992L57.1254 42.5327V42.7389L57.0822 42.7677H55.9123L55.802 42.7389L55.754 42.7054L55.6917 42.6526H55.6581V42.4512L55.7252 42.4081L55.7972 42.3745H56.2719L56.2575 42.3074Z" fill="#1F2C51"/>
<path d="M56.2335 43.3471H56.5116L56.7801 43.3807L56.8904 43.4142L56.9863 43.467L57.0295 43.5005L57.063 43.5341L57.0918 43.5725V43.7355L57.0583 43.7691H55.8355L55.754 43.7451L55.6917 43.7019H55.6581V43.4574L55.7109 43.419L55.7876 43.3855L55.8835 43.3615H56.2383L56.2335 43.3471Z" fill="#1F2C51"/>
<path d="M56.2048 44.3246H56.4589L56.7083 44.3581L56.8138 44.3917L56.9097 44.4348L56.9432 44.4636L56.9768 44.4972L57.0104 44.5403V44.7034L56.9768 44.7321L56.9336 44.7561H56.8905L56.8377 44.7801H55.9219L55.826 44.7561L55.7541 44.7417L55.6918 44.689V44.4492L55.7493 44.4061L55.8212 44.3725L55.9075 44.3485H56.2432L56.2048 44.3246Z" fill="#1F2C51"/>
<path d="M56.1808 45.3308H56.4397L56.6843 45.3643L56.7946 45.3979L56.8905 45.4506L56.924 45.4746L56.9528 45.5178V45.7192H55.9123L55.8164 45.6856L55.7301 45.652L55.6629 45.6137V45.4075L55.7157 45.3643L55.7924 45.3212H56.0801L56.1808 45.3308Z" fill="#1F2C51"/>
<path d="M56.2336 46.3178H56.4925L56.7371 46.3514L56.8425 46.3849L56.9432 46.4281L56.9864 46.4568L57.0152 46.5V46.7062H55.8356L55.7541 46.735L55.6918 46.6918V46.4664L55.7445 46.4137L55.8164 46.3801H56.1185L56.2336 46.3178Z" fill="#1F2C51"/>
<path d="M56.2336 47.4246H56.7371L56.8569 47.4582L56.9432 47.5013L56.9816 47.5349L57.0152 47.5685V47.7794H56.972L56.9288 47.8034H55.874L55.7541 47.8322H55.6965V47.5732L55.7493 47.5301L55.8116 47.5013H56.1137L56.2336 47.4246Z" fill="#1F2C51"/>
<path d="M56.2576 48.4548H56.5261L56.7946 48.4883L56.9097 48.5171L57.0104 48.5602L57.0487 48.5938L57.0823 48.6274L57.1159 48.6705V48.8192H57.0823L57.0392 48.8479H55.8596L55.7541 48.8815L55.6918 48.8383L55.6774 48.7904V48.5938L55.7301 48.5411L55.8068 48.5075H56.1281L56.2576 48.4548Z" fill="#1F2C51"/>
<path d="M56.363 49.4514H56.6411L56.9001 49.4801L57.0199 49.5137L57.1158 49.5569L57.159 49.5904L57.1878 49.6192L57.2213 49.6624V49.8254L57.1878 49.8589H55.9794L55.8787 49.8254L55.8164 49.7822L55.7828 49.7487H55.7541V49.6432L55.778 49.6096L55.8452 49.5521L55.9171 49.5233H56.3582L56.363 49.4514Z" fill="#1F2C51"/>
<path d="M56.4158 50.3953H56.6987L56.9528 50.4288H57.0727L57.1686 50.472L57.2117 50.5056L57.2453 50.5343L57.2741 50.5679V50.7213H56.0993L56.0226 50.6878L55.9698 50.6446L55.9219 50.7069V50.5104L55.9507 50.4816L56.0178 50.448L56.0801 50.424H56.2863L56.4158 50.3953Z" fill="#1F2C51"/>
<path d="M56.5548 51.3248H56.8042L57.0487 51.3584H57.159L57.2549 51.3872L57.2885 51.4111H57.3172L57.3508 51.4447V51.5646H56.224L56.1904 51.531V51.3152H56.5548V51.3248Z" fill="#1F2C51"/>
<path d="M57.4563 52.1441V52.3839L57.4275 52.4127H57.1254V52.1969H57.1542L57.1925 52.1441H57.4563Z" fill="#1F2C51"/>
<path d="M56.1377 51.895L55.7205 51.665L55.3225 51.3967L54.9341 51.1044L54.5697 50.7834L54.2293 50.4384L53.908 50.0743L53.582 49.6814L53.2943 49.2741L53.0161 48.8333L52.7476 48.3829L52.4983 47.9037L52.2633 47.4246L52.0476 46.9215L51.8462 46.4424L51.664 45.9153L51.4913 45.3883L51.3283 44.8516L51.1893 44.3198L51.0646 43.7688L50.9591 43.2273L50.8536 42.6811L50.7673 42.1349L50.6762 41.603L50.6139 41.0664L50.5563 40.5441L50.5132 40.0075V36.4427L50.4796 36.1408L50.4365 35.9061V35.8006L50.4029 35.7L50.3741 35.6186L50.331 35.5419L50.2974 35.4748L50.2447 35.4221L50.1727 35.3742L50.1152 35.3311L49.1562 34.713L48.1972 34.0997L46.2792 32.9402L45.301 32.3987L44.3133 31.8621L43.2871 31.359L42.2898 30.8799L41.2733 30.4007L40.2519 29.9503L39.221 29.5239L38.2045 29.0975L37.164 28.6998L36.1235 28.3356L35.0734 27.9811L34.0185 27.66L32.9684 27.3486L31.9039 27.0707L30.8538 26.812L29.7893 26.5772L28.7296 26.3616L27.6651 26.1699L26.5958 25.9974L25.5457 25.8585L24.4813 25.7387L23.4216 25.6429L22.3715 25.5662L21.307 25.5231H19.1876L18.1375 25.5566L17.097 25.6093H16.6798L16.6463 25.5039L16.5839 25.4368L16.5168 25.341L16.4641 25.2356L16.4017 25.0871L16.2387 24.6798L16.0901 24.2581L15.9558 23.8221L15.8215 23.3957L15.7113 22.9165L15.6154 22.4662L15.5386 22.0301L15.4763 21.5893V21.4312L15.5099 21.3545L15.5386 21.2875L15.5818 21.2348L15.6489 21.1916L15.7113 21.1485H15.7976L16.4976 21.0527L17.26 21H18.9527L19.8877 21.0623L20.8754 21.1389L21.9064 21.2491L22.9756 21.3881L24.1072 21.5558L25.258 21.7522L26.4232 21.9583L27.6364 22.2026L28.8687 22.4949L30.1249 22.8063L31.4004 23.1465L32.6903 23.5203L33.9801 23.918L35.2891 24.3492L36.5742 24.8331L37.8832 25.3123L39.1826 25.8249L40.4725 26.3712L41.748 26.9509L43.0138 27.5546L44.2701 28.1871L45.4832 28.8483L46.6724 29.5383L47.8424 30.2522L48.9692 31.0044L50.0529 31.7759L51.0934 32.5904L52.1051 33.4193L52.2969 33.6349L52.4551 33.8266L52.599 33.9991L52.7045 34.1476L52.7812 34.2866L52.8339 34.4159V34.8855L52.8004 35.0292L52.6517 35.5084L52.5319 35.9396L52.4455 36.3229L52.3832 36.7446L52.3209 37.171L52.2633 37.6214L52.2202 38.1005L52.1914 38.5797V41.2485L52.2346 41.8091L52.2873 42.3745L52.3496 42.9446L52.4264 43.51L52.5223 44.0802L52.6326 44.6504L52.7476 45.2062L52.8867 45.7764L53.0401 46.3322L53.2175 46.8736L53.3997 47.4102L53.5963 47.9373L53.8073 48.45L54.0471 48.9291L54.2916 49.4082L54.5505 49.8874L54.8286 50.3378L55.1307 50.769L55.452 51.1667L55.7828 51.55L56.1377 51.9046V51.895Z" fill="#1F2C51"/>
<path d="M49.2713 76.1395L49.6789 75.7993L50.0769 75.4352L50.868 74.6925L51.2564 74.2948L51.6304 73.9019L52.0044 73.4899L52.3593 73.0634L52.7141 72.6322L53.0593 72.1962L53.3902 71.7554L53.7115 71.2762L54.0231 70.7971L54.3252 70.318L54.6033 69.8388L54.8718 69.3597L55.1308 68.8805L55.3753 68.4014L55.6007 67.8983L55.8069 67.3712L55.9987 66.8586L56.1713 66.3219L56.3295 65.7949L56.4686 65.2486L56.5884 64.7024L56.6843 64.1562L56.7611 63.6004L56.8138 63.0398L56.8474 62.4744V61.3341L56.8138 60.7543L56.7706 60.4572L56.7131 60.141L56.6508 59.8391L56.5836 59.5517L56.5117 59.2738L56.4254 58.9959L56.3295 58.7371L56.2432 58.488L56.061 58.052L55.8884 57.6878L55.7541 57.4147L55.6582 57.2422L55.5048 56.9356L55.3226 56.6481L55.1308 56.3558L54.9342 56.0779L54.5314 55.5221L54.3156 55.2729L54.0903 55.019L53.8745 54.7603L53.6395 54.5159L53.4142 54.2667L53.1744 54.0224L52.9299 53.7876L52.6949 53.548L52.436 53.3228L52.1914 53.0881L51.6736 52.6233L51.1461 52.2064L50.6139 51.7992L50.0625 51.3919L49.5206 51.0182L48.9644 50.6396L47.8376 49.9209L47.2239 49.5472L46.6149 49.1926L46.0155 48.8477L45.4114 48.5266L44.8024 48.2152L44.1886 47.9181L43.5461 47.6163L42.8748 47.3527L41.9973 46.9982L41.1055 46.6436L40.626 46.4807L40.1752 46.3082L39.2162 46.0111L38.7368 45.8578L38.2573 45.7332L37.7778 45.6039L36.8188 45.3643L35.8598 45.1726L35.3803 45.096L34.8241 44.957L34.1096 44.8277L33.3904 44.6887L32.6711 44.5593L32.3067 44.4779L31.9519 44.4204L31.5874 44.3773L31.223 44.3485L30.8682 44.315L30.5038 44.291H27.5741L27.4638 44.2479H27.3775L27.1185 44.085L26.8692 43.9173L26.6342 43.7448L26.3801 43.5196L25.939 43.1746L25.5458 42.8105L25.1478 42.4559L24.7498 42.1061L24.3662 41.7372L23.9778 41.3731L23.9059 41.2437L23.8244 41.1239V41.0185L23.8532 40.9754L23.9299 40.9227L24.0354 40.8556L24.1648 40.7933L24.347 40.7262L24.6156 40.6639L25.143 40.5681L25.68 40.4914L26.2171 40.4292L26.7637 40.3717H27.3103L27.8665 40.3477H28.9742L29.5304 40.3812L30.0914 40.4244L30.6476 40.4866L31.2038 40.5633L31.7649 40.6496L32.3115 40.7454L32.8677 40.8508L33.961 41.1095L34.498 41.2485L35.035 41.397L35.5721 41.5599L36.0995 41.7324L36.6126 41.9145L37.1304 42.1061L37.6099 42.2978L38.1134 42.4943L38.5929 42.7051L39.5519 43.1363L40.0074 43.3615L40.4534 43.5867L40.8849 43.8215L41.3021 44.0562L41.7432 44.3054L42.1939 44.5498L42.3857 44.6695L42.5679 44.775L42.731 44.8708L42.8365 44.957L42.894 45.0002L42.9467 45.0337L42.9899 45.0672H43.3399L43.3831 45.0433H43.4358L43.479 45.0097L43.5317 44.9762L43.5749 44.9331L43.618 44.8804L43.6612 44.8277L43.6948 44.7606V44.3773L43.6612 44.3102L43.6276 44.2575L43.5845 44.1952L43.5413 44.1377L43.4358 44.0323L43.3735 43.9892L43.2872 43.9988L43.2248 43.97L42.5583 43.5723L41.8918 43.1986L41.2397 42.844L40.5828 42.5086L39.9307 42.178L39.2834 41.881L38.6361 41.603L38.0127 41.3299L37.3654 41.0856L36.7325 40.8604L36.0947 40.6448L35.4618 40.4531L34.8384 40.2806L34.2295 40.1177L33.6157 39.9692L33.0163 39.8398L32.4266 39.7248L31.8464 39.629L31.2518 39.5427L30.6812 39.4661L30.125 39.4134L29.5784 39.3703L29.0317 39.3367H26.9795L26.5 39.3703L26.0205 39.4134L25.541 39.4757L25.0998 39.5427L24.6731 39.6194L24.2991 39.6913L23.9107 39.7584L23.7189 39.7871L23.5463 39.8111H23.201L23.1579 39.7679L23.1483 39.7248L23.0092 39.5954L22.8366 39.4325L22.453 39.0157L22.0023 38.5365L21.5516 38.0334L21.144 37.5543L20.7988 37.1902L20.583 36.965L20.2953 36.7062V36.4379L20.3384 36.3612L20.396 36.299L20.4679 36.2463L20.5638 36.1935L20.6933 36.1265L20.8467 36.0642L21.0385 35.9971L21.2303 35.9252L21.4221 35.8677L21.6187 35.815L21.8105 35.7719L22.1989 35.7L22.5921 35.633L22.8318 35.5994L23.086 35.5707L23.3785 35.5275L23.6997 35.494L24.0306 35.4605H25.1286L25.6081 35.494L26.0876 35.5227L26.5911 35.5659L27.1185 35.6234L27.6556 35.6857L28.1926 35.7527L28.7392 35.8246L29.2954 35.9204L29.8661 36.0163L30.4367 36.1169L31.0025 36.2319L31.5827 36.3612L32.1628 36.5002L32.7334 36.6487L33.3088 36.8021L33.8794 36.9745L34.45 37.1566L35.0159 37.3387L35.5769 37.5208L36.1331 37.7124L36.6941 37.8945L37.2407 38.0862L37.7778 38.2922L38.31 38.4934L38.8374 38.6995L39.3553 38.9055L39.8348 39.1163L40.7938 39.5475L41.2733 39.7727L41.724 39.9883L42.1556 40.2231L42.2611 40.2662L42.3713 40.3094L42.4672 40.3381L42.5727 40.3621H42.9276L42.9611 40.3333L43.0139 40.2806L43.0474 40.1656V39.9069L43.0139 39.8111L42.9803 39.6865L42.9276 39.5907L42.8652 39.5044L42.8077 39.4469L42.7118 39.3703L42.6159 39.3175L42.3809 39.2073L42.146 39.1019L41.887 38.9821L41.6281 38.8672L41.1055 38.618L40.5876 38.3736L40.0745 38.1389L39.5471 37.9089L39.034 37.6837L38.4922 37.4824L38.0127 37.2908L37.4949 37.0991L36.9674 36.9075L36.4543 36.711L35.9269 36.5433L35.3851 36.3325L34.8672 36.16L34.3398 36.0115L33.8171 35.8534L33.2801 35.7048L32.7382 35.5946L32.2156 35.4653L31.6786 35.3359L31.1559 35.2305L30.6189 35.1251L30.0818 35.0292L29.5448 34.9286L28.9982 34.8424L28.4515 34.7705L27.9049 34.6938L27.3583 34.6315L26.7973 34.5741L26.2411 34.5309L25.6848 34.4926L25.1142 34.4591L24.5436 34.4159H23.6278L23.1483 34.4495L22.6688 34.4926L22.1893 34.5693L21.7098 34.6555L21.2591 34.7609L20.8179 34.8807L20.559 34.9765L20.3241 35.0724H20.2042H20.209H20.0891L20.0268 35.0484H19.9644L19.8973 35.0053L19.7918 34.8951L19.6623 34.7418L19.4993 34.5405L19.3123 34.3201L19.1301 34.0518L18.9431 33.7499L18.7705 33.4577L18.5883 33.1366L18.4061 32.8252L18.2334 32.4994L18.0848 32.2071L17.9553 31.9532L17.8738 31.7567L17.7971 31.5746V31.3686H17.8307L17.8834 31.3351L17.9697 31.3015L18.0656 31.2728L18.3246 31.1961L18.6027 31.1194L18.8904 31.0476L19.1493 30.9901L19.3315 30.947H19.9213L20.1898 30.9134L20.4919 30.8895L21.1871 30.8272L21.6043 30.7936H22.0838L22.5969 30.7697H23.1483L23.7477 30.7936L24.3902 30.8272L25.0903 30.8895L25.8383 30.9661L26.6678 31.0619L27.5693 31.1817L27.9864 31.244L28.4132 31.3063L29.2954 31.4596L30.1729 31.6321L31.0648 31.8334L31.9567 32.0586L32.8485 32.2933L33.6972 32.4994L34.5843 32.7773L35.4762 33.0791L36.3584 33.3906L37.2263 33.7212L38.0846 34.0757L38.9238 34.4303L39.7485 34.804L40.554 35.1921L41.326 35.5898L41.4651 35.6521L41.6041 35.7048L41.6665 35.7288H42.0117L42.0549 35.6857L42.098 35.6425L42.1412 35.5755L42.1747 35.5036V35.2113L42.1076 35.1059L42.0117 35.0101L41.8775 34.8951L41.7576 34.8088L41.6377 34.7322L41.5082 34.6699L40.8897 34.3824L40.5349 34.2003L40.2136 34.0518L39.5135 33.7595L38.8183 33.4577L38.1086 33.1798L37.3894 32.8971L36.6701 32.6431L35.9605 32.3844L35.2412 32.1352L34.5364 31.9004L34.2439 31.8046L33.8171 31.6752L33.3376 31.5459L32.9828 31.4405L32.8293 31.3973L32.6375 31.3351L32.4122 31.2776L32.1533 31.2057L31.8847 31.1386L31.6258 31.0619L31.3381 30.9949L31.0456 30.9422L30.7148 30.8799L30.2976 30.7936L29.8181 30.7074L28.8591 30.5157L28.4324 30.4391L28.0967 30.3624L27.8713 30.3193L27.6364 30.2905L27.2911 30.233L26.8548 30.1899L25.4163 30.0318L25.0183 29.9983L24.7162 29.9647L24.3518 29.936L23.9778 29.912H20.2857L19.8781 29.9456L19.4801 29.9791L19.0965 30.0222L18.7369 30.1037L18.3533 30.1468L18.2047 30.1707H17.9889L17.9362 30.1468L17.8738 30.1037L17.7779 29.9983L17.6724 29.8689L17.5621 29.706L17.3272 29.3418L17.0922 28.9154L16.8525 28.4746L16.6415 28.0529L16.4353 27.6792L16.2963 27.4109L16.2339 27.2959L16.1812 27.1761L16.1237 27.0707L16.0949 26.9509V26.7497L16.138 26.7066L16.2004 26.673L16.2771 26.6395L16.4353 26.6059L16.5648 26.5772L16.7134 26.5437H17.0683L17.4567 26.5101L17.8738 26.4382H23.3449L23.7381 26.4718L24.2176 26.5245L24.7306 26.5772L25.2773 26.6443L25.8479 26.7209L26.4281 26.7928L26.9843 26.879L27.5884 26.9749L28.207 27.0851L28.8303 27.2001L29.4537 27.3294L30.077 27.4684L30.7004 27.6217L31.3333 27.7798L31.9567 27.9427L32.5896 28.1104L33.8219 28.4794L34.4453 28.671L35.059 28.8627L35.6584 29.0543L36.2578 29.2604L36.8475 29.4616L37.4277 29.6772L38.0846 29.9264L38.7799 30.1947L39.4896 30.4822L40.1848 30.7745L40.8322 31.0524L41.398 31.3207L41.8775 31.5459L42.8077 32.0202L43.2872 32.279L43.7667 32.5329L44.2462 32.8012L44.7257 33.0791L45.2052 33.3618L45.6847 33.6397L46.1642 33.9272L46.6437 34.2195L47.1232 34.5166L48.0822 35.1203L48.5617 35.4317L49.4631 36.0738L49.5159 36.1169L49.559 36.16L49.6022 36.2031L49.6357 36.2463L49.6789 36.3325V40.2279L49.7077 40.6448L49.7412 41.0616L49.7844 41.4928L49.8371 41.9097L49.9042 42.3409L49.9666 42.7578L50.1392 43.5915L50.2351 43.9988L50.331 44.3964L50.4509 44.7941L50.5564 45.1822L50.6858 45.556L50.7386 45.7189L50.8249 45.9632L50.9352 46.2507L51.0502 46.5622L51.1701 46.888L51.2756 47.1659L51.3619 47.3911L51.429 47.5204L51.4914 47.645L51.5969 47.851L51.7359 48.1098L51.875 48.3877L52.0284 48.6752L52.1771 48.9435L52.3065 49.1687L52.4024 49.3316L52.5415 49.5472L52.6949 49.758L52.8436 49.9641L53.0066 50.1653L53.1648 50.3617L53.3374 50.563L53.5101 50.7546L53.6827 50.9415L54.0375 51.3057L54.4115 51.6554L54.7951 52.0004L55.1835 52.3214L55.4089 52.4939L55.6438 52.6664L55.9028 52.8389L56.1617 52.997L56.4302 53.1503L56.6987 53.2989L56.9864 53.4474L57.2741 53.5768L57.5666 53.7157L57.8687 53.8355L58.1756 53.9649L58.4872 54.0703L58.8085 54.1757L59.1346 54.2763L59.4558 54.3722L59.7771 54.4584L60.1079 54.5303L60.4292 54.6069L60.7649 54.6692L61.0957 54.7363L61.4314 54.789L61.7526 54.8321L62.0835 54.8657L62.4047 54.8992H64.2844L64.5817 54.8657L64.8742 54.8321L65.2482 54.8034L65.6126 54.7507L65.9578 54.6932L66.2983 54.6405L66.6195 54.5638L66.9312 54.5015L67.2333 54.4249L67.5354 54.3434L67.8135 54.2572L68.0916 54.1565L68.3697 54.0607L68.6382 53.9649L69.1561 53.7636L69.6787 53.5576L69.8753 53.4714L70.0863 53.3755L70.3021 53.2701L70.5274 53.1503L71.0069 52.8916L71.4864 52.6041L71.9371 52.3166L72.3639 52.0244L72.5701 51.8758L72.7523 51.7369L72.9249 51.5979L73.0736 51.4686L73.1359 51.4015L73.203 51.3727L73.2462 51.3392H73.3517L73.3852 51.3631L73.4188 51.4159L73.4907 51.5548L73.577 51.7273L73.6537 51.9094L73.8455 52.4987L73.9414 52.8389L74.0805 53.318L74.1908 53.7684L74.2867 54.2476L74.3634 54.698L74.4161 55.1771L74.4593 55.6275V56.9787L74.4257 57.4195L74.3826 57.8699L74.3202 58.3107L74.2435 58.7515L74.1572 59.1779L74.0517 59.6187L73.9319 60.0452L73.7928 60.4764L73.6537 60.8933L73.4955 61.3101L73.3229 61.7318L73.1407 62.139L72.9441 62.5463L72.7331 62.9536L72.5173 63.3512L72.292 63.7441L72.057 64.1322L71.8077 64.5156L71.5535 64.8941L71.2802 65.2678L71.0021 65.6415L70.724 66.0105L70.4363 66.3603L70.0287 66.8394L69.6068 67.3185L69.1704 67.7689L68.7197 68.2002L68.2402 68.6266L67.7607 69.0482L67.2812 69.4459L66.8017 69.8292L66.2839 70.203L65.7612 70.5671L65.2338 70.9217L64.6967 71.2571L64.1501 71.5877L63.5939 71.8991L63.0329 72.2106L62.4767 72.4981L61.9061 72.776L61.3403 73.0586L60.7601 73.3126L60.1895 73.5617L59.0291 74.0313L58.4489 74.2469L57.8831 74.4529L57.3029 74.6446L56.7323 74.8363L56.1665 75.0088L55.5959 75.1717L55.0397 75.3298L54.493 75.4687L53.9416 75.6077L53.395 75.737L53.0977 75.8041L52.5894 75.9L51.9565 76.0293L51.2708 76.1443L50.5851 76.2641L49.981 76.3599L49.7268 76.3935H49.2329V76.221L49.2665 76.1779L49.3097 76.1347L49.2713 76.1395Z" fill="#1F2C51"/>
<path d="M73.975 30.6834H73.7928L73.716 30.7122L73.6489 30.7553L73.5962 30.8225L73.553 30.8848L73.5242 30.9615L73.4955 31.0622V31.2444L73.5386 31.3307L73.5914 31.4122L73.6681 31.4794L73.764 31.5417L73.8599 31.5849L73.9702 31.6088H74.2723L74.3538 31.5753H74.3873L74.4209 31.5513H74.4545V31.1869L74.4305 31.1341L74.3777 31.0239L74.301 30.928L74.2195 30.8416L74.1092 30.7793L74.0661 30.7457H73.9078L73.975 30.6834Z" fill="#1F2C51"/>
<path d="M72.7283 44.751H72.4406L72.3351 44.7079L72.2392 44.6552L72.1289 44.5929L72.057 44.4779L71.9371 44.3821L71.822 44.2719L71.7117 44.1425L71.5967 44.0179L71.4768 43.8646L71.2418 43.5627L71.0165 43.2321L70.7911 42.8872L70.5705 42.5613L70.3787 42.2259L70.2061 41.9193L70.0575 41.627L69.9376 41.3683L69.8513 41.1575L69.7985 41.0041L69.7026 40.7166L69.6067 40.4244L69.53 40.1273L69.4677 39.835L69.4006 39.5571L69.3574 39.2696L69.3142 38.9774V36.9027L69.3478 36.6775L69.3814 36.4619L69.4101 36.2606L69.4533 36.069L69.4965 35.8869L69.5396 35.7144L69.5924 35.5611L69.6499 35.4221L69.7026 35.2976L69.7554 35.1874L69.8081 35.1011L69.8753 35.0292L69.928 34.9717L69.9807 34.943L70.0335 34.919H70.1006L70.1438 34.943L70.2493 35.1586L70.4746 35.7767L71.7213 39.5236L71.7837 39.6913L71.9323 40.1704L72.1625 40.8125L72.4166 41.5743L72.6755 42.3361L72.9009 43.0117L73.0735 43.4909L73.1454 43.7256V44.3917L73.1119 44.4539L73.0687 44.521L72.9392 44.6504L72.8529 44.7031L72.757 44.7414L72.7283 44.751Z" fill="#1F2C51"/>
<path d="M80.3907 40.2279H80.242L80.1893 40.2519H80.1557V40.3477L80.3283 40.5058L80.5105 40.6687L80.5345 40.7118V40.755L80.5585 40.7981V42.5996H80.7023L80.7791 42.5709L80.8606 42.5038L80.9469 42.4319L81.0428 42.3457L81.2154 42.1636L81.3688 41.9672L81.4743 41.8186L81.5175 41.7516L81.6374 41.5312L81.7428 41.3156L81.8292 41.1191L81.9059 40.9274L81.9778 40.7358L82.0545 40.5298L82.1169 40.3046L82.184 40.0602V39.9213L82.1504 39.8781L82.1073 39.8446H81.9442L81.8915 39.8733L81.8292 39.9069L81.7524 39.9404L81.6661 39.974L81.5606 40.0027L81.3257 40.0554L81.0668 40.089L80.8174 40.1225L80.5825 40.156H80.2612L80.3907 40.2279Z" fill="#1F2C51"/>
<path d="M84.5239 23.1897V23.0938L84.4712 22.998L84.3321 22.9166H84.265L84.1931 22.883L84.0444 22.8159L83.8526 22.7728L83.6368 22.7393H81.997L81.4359 22.8016L80.9325 22.8638L80.4818 22.9309L80.0742 22.9932L79.7098 23.0603L79.3981 23.1226L79.1296 23.1897L78.9042 23.252L78.698 23.319L78.4966 23.3622L78.2904 23.3957L78.0795 23.4724L77.9596 23.5155L77.8541 23.5778L77.7246 23.6448L77.6048 23.7263L77.4753 23.8269L77.3362 23.9323L77.1972 24.0617L77.0486 24.2007L76.7465 24.5121L76.4492 24.8331L76.1567 25.1541L75.869 25.4656L75.5861 25.7674L75.3224 26.0549L75.0634 26.3328L74.8141 26.582L74.536 26.8503L74.2051 27.1617L73.5146 27.8038L72.9488 28.3165L72.7762 28.4794L72.7139 28.5321L72.6276 28.6087L72.5605 28.7142L72.5077 28.8435L72.4646 28.9825L72.431 29.131V29.9264L72.4741 30.051L72.5269 30.1707L72.5988 30.257L72.6851 30.3097L72.7858 30.3337H72.8913L72.9968 30.2714L73.0208 30.1947L73.0831 30.1085L73.1502 30.0558L73.2989 29.9695L73.4379 29.9072L73.577 29.8306L73.6106 29.7683L73.6537 29.6485L73.7065 29.476L73.7496 29.337L73.8263 29.2077L73.9126 29.0927L74.0085 28.9825L74.0709 28.9394L74.138 28.8962L74.2003 28.8675L74.2771 28.8339H74.5983L74.8333 28.8771L75.0347 28.9298L75.2169 29.0016L75.3895 29.0783L75.7251 29.2604L76.0896 29.4568L76.2478 29.5287L76.4012 29.5814L76.5163 29.6054H76.7417L76.8615 29.5622L76.9814 29.4952L77.1061 29.3993L77.4609 29.1118L77.8397 28.81L78.2233 28.5225L78.6213 28.2302L79.4269 27.6409L80.2516 27.0515L81.0667 26.4622L81.8627 25.892L82.2511 25.6045L82.6155 25.3266L82.9655 25.0439L83.3108 24.766L84.2122 24.0377L84.2986 23.9323L84.4088 23.803L84.4903 23.6736V23.2903L84.5239 23.1897ZM83.9198 23.4819L83.8334 23.5874L83.7088 23.7071L83.5457 23.8317L83.3443 23.985L83.1142 24.1336L82.5819 24.4977L81.9778 24.905L81.6661 25.1302L81.3353 25.3554L81.014 25.6045L80.6927 25.8489L80.2852 26.1699L79.8632 26.4814L79.4364 26.7928L79.0193 27.0707L78.8131 27.2097L78.6117 27.3294L78.4151 27.4349L78.2233 27.5307L78.0411 27.6073L77.8589 27.6744L77.6959 27.7175H77.2164L77.0629 27.6313L77.0006 27.5882L76.9383 27.5355L76.8184 27.4301L76.7225 27.3103L76.6362 27.2049L76.5738 27.1186L76.5307 26.9988V26.7305L76.5547 26.6586L76.5978 26.5724L76.7033 26.4095L76.8328 26.2274L76.9958 26.0358L77.1876 25.8393L77.4034 25.6477L77.6479 25.4464L77.9068 25.2404L78.185 25.0391L78.4727 24.8331L78.7747 24.6319L79.096 24.4354L79.4173 24.2534L79.7289 24.0809L80.0598 23.9323L80.405 23.803L80.7455 23.6736L81.0907 23.5778L81.4216 23.4819L81.7572 23.4053L82.0881 23.343L82.3997 23.2903L82.6922 23.2567H83.6033L83.7519 23.2903L83.8622 23.3238L83.9245 23.3765V23.4436L83.9198 23.4819ZM75.4758 29.9887L75.3799 29.9024L75.2936 29.8497L75.1881 29.8066L75.0682 29.7731L74.9531 29.7443L74.8333 29.7204H74.5024L74.4161 29.7826L74.3634 29.9216V29.9983L74.4593 30.0845H74.6415L74.747 30.1085H74.8572L74.9388 30.1516L75.0395 30.1947L75.1258 30.2282H75.3703L75.4326 30.1851L75.4998 30.1085V30.0366L75.4758 29.9887ZM79.6858 34.6843L79.6426 34.5884L79.5755 34.4926L79.4892 34.3968L79.3837 34.3105L79.2542 34.2339L79.1152 34.1812L78.9665 34.138H78.5686L78.4631 34.1812L78.3768 34.2387L78.3 34.3105L78.2569 34.4064V34.6124L78.3 34.7082L78.3768 34.804L78.4631 34.8999L78.5686 34.9861L78.698 35.0532L78.8371 35.1155L78.9761 35.149H79.3789L79.4844 35.1059L79.5707 35.0532L79.6378 34.9765L79.681 34.8807V34.7849L79.6858 34.6843ZM79.6858 34.6843L79.6426 34.5884L79.5755 34.4926L79.4892 34.3968L79.3837 34.3105L79.2542 34.2339L79.1152 34.1812L78.9665 34.138H78.5686L78.4631 34.1812L78.3768 34.2387L78.3 34.3105L78.2569 34.4064V34.6124L78.3 34.7082L78.3768 34.804L78.4631 34.8999L78.5686 34.9861L78.698 35.0532L78.8371 35.1155L78.9761 35.149H79.3789L79.4844 35.1059L79.5707 35.0532L79.6378 34.9765L79.681 34.8807V34.7849L79.6858 34.6843ZM81.014 34.622V34.4399L80.9708 34.2578L80.9037 34.0949L80.8174 33.9368L80.7119 33.7835L80.592 33.6445L80.4674 33.5152L80.3139 33.4002L80.1557 33.29L79.9831 33.1941L79.8009 33.1223L79.6091 33.0552L79.4029 33.0025L79.2015 32.9689H78.3528L77.9884 33.0552L77.8157 33.1127L77.6623 33.1845L77.5137 33.2708L77.3842 33.357L77.2691 33.4624L77.1684 33.5822L77.0869 33.7116L77.0198 33.8505L76.967 33.9895L76.9239 34.1524V34.6747L76.967 34.8472L77.0198 35.0197L77.0965 35.2017L77.1924 35.3646L77.3027 35.5323L77.4178 35.6857L77.5568 35.8342L77.6959 35.9731L77.8589 36.1025L78.0315 36.2223L78.2233 36.3181L78.4151 36.4044L78.6213 36.4667L78.8323 36.5194H79.6474L79.8392 36.4571L80.0214 36.3708L80.1845 36.275L80.3427 36.1552L80.4818 36.0259L80.6112 35.8869L80.7311 35.7288L80.827 35.5659L80.9037 35.3934L80.9565 35.2113L80.99 35.1251V34.7418L81.014 34.622ZM80.3571 34.8472V34.9861L80.3235 35.1251L80.2804 35.2544L80.2084 35.3742L80.1461 35.4796L79.9735 35.6713L79.8776 35.7479L79.7721 35.8246L79.6522 35.8773L79.5323 35.9204L79.4029 35.9636H78.8467L78.7076 35.93L78.5686 35.8773L78.4295 35.8102L78.3 35.7384L78.161 35.6521L78.0411 35.5563L77.926 35.4461L77.8157 35.3407L77.7103 35.2209L77.6144 35.0915L77.5376 34.9669L77.4657 34.8472L77.3986 34.7178L77.3554 34.5884L77.3219 34.4591V34.2147L77.3554 34.1045L77.3986 33.9991L77.4513 33.9033L77.5232 33.817L77.6239 33.7403L77.7294 33.6685L77.8493 33.611L77.9644 33.5583L78.1034 33.5152L78.2329 33.472H79.1008L79.2398 33.5056L79.3789 33.5583L79.5084 33.6014L79.6282 33.6637L79.7481 33.7403L79.8536 33.817L79.9591 33.8985L80.0598 33.9847L80.1317 34.0949L80.2084 34.2003L80.2708 34.3057L80.3139 34.4351L80.3475 34.5645V34.6938L80.3571 34.8472ZM79.6426 34.5884L79.5755 34.4926L79.4892 34.3968L79.3837 34.3105L79.2542 34.2339L79.1152 34.1812L78.9665 34.138H78.5686L78.4631 34.1812L78.3768 34.2387L78.3 34.3105L78.2569 34.4064V34.6124L78.3 34.7082L78.3768 34.804L78.4631 34.8999L78.5686 34.9861L78.698 35.0532L78.8371 35.1155L78.9761 35.149H79.3789L79.4844 35.1059L79.5707 35.0532L79.6378 34.9765L79.681 34.8807V34.7849V34.6747L79.6426 34.5884ZM82.8409 33.8074L82.8169 33.5583L82.7738 33.3139L82.7306 33.0791L82.6778 32.8396L82.6011 32.6048L82.5292 32.37L82.4429 32.1352L82.347 31.8957L82.2463 31.6609L82.1312 31.4261L82.0641 31.2967L81.9682 31.1338L81.8531 30.9517L81.7141 30.7601L81.551 30.5828L81.388 30.3576L81.0236 29.9264L80.8318 29.7108L80.6304 29.5095L80.4338 29.3179L80.2324 29.1454L80.0406 28.9921L79.8536 28.8627L79.7721 28.81L79.5995 28.7237H79.4508L79.3406 28.7764L79.0624 28.9825L78.7939 29.1981L78.6309 29.337L78.4391 29.4952L78.2137 29.6677L77.998 29.8306L77.8062 30.003L77.6863 30.0845L77.5376 30.2043L77.3458 30.3241L77.154 30.4487L76.8184 30.6547L76.6697 30.7409L76.5595 30.784L76.4444 30.8272L76.2814 30.8895L76.2046 30.923L76.1327 30.9997V31.0619L76.2046 31.1578L76.2909 31.2009L76.3581 31.2249H76.5834L76.6458 31.2584L76.7561 31.3446L76.8376 31.4501L76.9239 31.6465L76.967 31.7855L77.0102 31.9148V32.0538L77.039 32.1256L77.0821 32.1927L77.202 32.2886L77.2643 32.3221H77.4801L77.7055 32.2454L77.9404 32.1831L78.1658 32.1256L78.3911 32.0825H79.2926L79.518 32.1161L79.7433 32.1688L79.8536 32.2023L79.9591 32.2454L80.079 32.2981L80.1845 32.3508L80.2947 32.4035L80.4098 32.4802L80.5201 32.5521L80.6256 32.6287L80.7455 32.715L80.851 32.8108L80.9565 32.9162L81.0763 33.0264L81.1962 33.1558L81.3017 33.2852L81.388 33.4097L81.4743 33.5391L81.551 33.6685L81.6134 33.7978L81.6661 33.9272L81.7093 34.0566L81.7428 34.1859V34.3105L81.7668 34.4399V35.0628L81.7237 35.1826L81.6901 35.3119L81.6373 35.4269L81.5846 35.5467L81.5175 35.6617L81.4551 35.7815L81.3784 35.8869L81.2921 36.0067L81.1195 36.2223L80.9277 36.4379L80.7119 36.6296L80.477 36.8212L80.4002 36.8883L80.3475 36.9506L80.2947 37.056V37.1566L80.3619 37.2285L80.4434 37.2956H80.5105L80.6927 37.3387H80.9804L81.0667 37.3052H81.153L81.3161 37.2285L81.4743 37.1422L81.6278 37.0368L81.9059 36.7781L82.0353 36.6391L82.1504 36.4762L82.2607 36.3181L82.3566 36.1552L82.4525 35.9827L82.5292 35.815L82.6011 35.6425L82.6539 35.47L82.7114 35.3071L82.7642 35.0388L82.8073 34.7945L82.8409 34.5357V33.8074ZM82.2079 38.5126V38.3736L82.1792 38.2682L82.136 38.1724L82.0785 38.1053L81.9538 38.0191H81.599L81.3736 38.0622L81.1243 38.1293H80.6448L80.5345 38.0957L80.429 38.067L80.3331 38.0239L80.2372 37.9712L80.0502 37.861L79.868 37.746L79.6762 37.5926L79.4748 37.4345L79.259 37.3052H78.9569L78.7699 37.195H78.5877L78.4151 37.1614L78.2473 37.1183L78.0747 37.0752L77.9116 37.0225L77.763 36.9554L77.6096 36.8931L77.4705 36.8164L77.3315 36.7302L77.202 36.6439L77.0869 36.5481L76.967 36.4427L76.852 36.3325L76.7417 36.2127L76.6458 36.0929L76.5595 35.9636L76.4731 35.8246L76.4012 35.6857L76.3341 35.5371L76.2718 35.3886L76.2286 35.2257L76.1759 35.0532L76.1423 34.8807V33.7116L76.1759 33.4864L76.2094 33.2756V33.0264L76.243 32.7725V32.37L76.219 32.2502L76.1902 32.1352L76.1327 32.0346L76.0608 31.9388L75.9649 31.8669L75.845 31.8094H75.706L75.6196 31.7855H75.3176L75.2456 31.819L75.1689 31.8909L75.0922 31.9771L75.0203 32.0442L74.9771 32.1065L74.9004 32.2023L74.8045 32.2886L74.7086 32.3413L74.6415 32.3652L74.5264 32.4083H73.9462L73.7544 32.3844L73.5482 32.3508L73.3468 32.2886L73.2461 32.255L73.1646 32.2119L73.0783 32.1688L72.992 32.1161L72.9153 32.0634L72.7858 31.934L72.7427 31.8621L72.6276 31.6992L72.5173 31.5698L72.4022 31.474L72.2919 31.3782L72.1864 31.2919L72.0905 31.2153L71.9803 31.1194L71.8987 30.9997L71.8124 30.8751L71.7357 30.7457L71.6734 30.5924L71.6063 30.4343L71.5535 30.2714L71.5104 30.0989L71.4768 29.9312V29.2125L71.5104 29.04L71.5535 28.8771L71.6158 28.719L71.6926 28.556L71.7885 28.4171L72.1001 28.0194L72.6659 27.4636L72.9057 27.2576L73.3229 26.9174L73.5818 26.6395L73.6537 26.5532L73.6873 26.4766V26.4143L73.5914 26.3137H73.3085L73.016 26.2705H72.2632L71.7501 26.3041L71.2706 26.3712L70.7527 26.443L70.2733 26.5389L69.7554 26.6586L69.2759 26.788L68.7724 26.9365L68.2929 27.109L67.8134 27.2911L67.3339 27.4828L66.8544 27.6984L66.3749 27.9236L65.9242 28.1584L65.4879 28.4171L65.2625 28.556L64.9796 28.7285L64.6583 28.9441L64.3083 29.1981L63.9103 29.4904L63.5027 29.8306L63.287 30.0174L63.0616 30.1995L62.8362 30.4007L62.2465 30.9901L61.9012 31.3686L61.5704 31.7759L61.2587 32.1831L60.9566 32.6L60.6785 33.0264L60.4196 33.4768L60.0695 33.9368L59.8346 34.4159L59.6188 34.8951L59.4222 35.3742L59.24 35.8534L59.0722 36.3325L58.9188 36.8116L58.7797 37.2908L58.6311 37.837L58.5112 38.3545L58.4057 38.8767L58.3098 39.4038L58.2235 39.9308L58.1516 40.4531L58.0892 40.9897L58.0365 41.5168L57.9933 42.0534L57.9646 42.5613V46.2076L58.1276 50.4528L58.2666 51.9525L58.3625 52.5323L58.4584 52.9204L58.5447 53.0354L58.6454 53.136L58.7509 53.1983L59.2304 53.3803L59.7099 53.5289L60.1894 53.6726L60.6689 53.778L61.1484 53.8739L61.6279 53.9505L62.1074 53.9936L62.5869 54.0272H63.5459L64.0254 54.0032L64.5049 53.9601L64.9844 53.8978L65.4639 53.8211L65.9434 53.7253L66.4229 53.6151L66.9024 53.4905L67.3819 53.3516L67.8614 53.1983L68.3409 53.0258L68.7916 52.8437L69.2327 52.652L69.6643 52.4508L70.0814 52.2352L70.489 52.01L70.887 51.7704L71.2706 51.5261L71.635 51.2673L71.9899 51.0134L72.3255 50.7307L72.6468 50.4528L72.9584 50.1653L73.2365 49.8874L73.3229 49.8107L73.4283 49.7772H73.5386L73.601 49.8299L73.6777 49.8922L73.74 49.9593L73.8024 50.0311L73.9462 50.218L74.0613 50.4097L74.1812 50.6349L74.2962 50.8696L74.4065 51.1284L74.512 51.3871L74.6942 51.8998L74.8572 52.3789L74.9867 52.8293L75.0826 53.1839L75.1785 53.572L75.2648 53.9457L75.3271 54.3338L75.3943 54.7171L75.4374 55.1052L75.4662 55.4886V57.0649L75.4374 57.453L75.4039 57.8507L75.3511 58.234L75.284 58.6317L75.2121 59.0198L75.1354 59.4031L74.9436 60.1793L74.7038 60.9268L74.5791 61.3053L74.4401 61.6695L74.2866 62.0336L74.138 62.3882L73.975 62.7523V63.1644L73.6106 63.8544L73.4188 64.1754L73.2174 64.506L73.0112 64.8174L72.7954 65.1289L72.2392 65.8811L71.6494 66.6094L71.0261 67.3042L70.3835 67.9798L69.7074 68.6218L69.0074 69.2447L68.2881 69.8484L67.5497 70.4138L66.7825 70.9744L65.9961 71.5014L65.1954 71.9806L64.3802 72.4597L63.5411 72.9389L62.6924 73.3653L61.8245 73.7774L60.9566 74.1511L60.0743 74.5152L59.1825 74.8602L58.281 75.1812L57.3796 75.4783L56.4685 75.761L54.6464 76.2497L53.7306 76.4653L52.8195 76.6618L51.9085 76.8391L51.007 77.002L50.1056 77.1409L49.2041 77.2607L48.3219 77.3661L47.4444 77.4524L46.5717 77.5195H46.5094L46.4039 77.4667L46.3463 77.3709V77.2511L46.3799 77.1457L46.4758 77.0259L46.5525 76.9637L46.7251 76.8247L46.9505 76.6618L47.43 76.2976L47.9335 75.9095L48.4465 75.4831L48.974 75.0327L49.4918 74.5536L50.0001 74.0217L50.518 73.4755L51.0214 72.9149L51.5009 72.3256L51.9804 71.7171L52.4599 71.0846L52.9107 70.4282L53.3422 69.7526L53.7354 69.0674L54.1142 68.3583L54.4546 67.6396L54.7951 66.9113L55.0636 66.159L55.2746 65.4116L55.4712 64.6401L55.6102 63.8687L55.7061 63.0829L55.7541 62.3019V61.5161L55.6869 60.7256L55.5575 59.9302L55.3657 59.1396L55.0972 58.3442L54.7951 57.5632L54.3875 56.7774L53.908 55.9964L53.3566 55.225L53.0881 54.8896L52.81 54.5686L52.5318 54.2572L52.2298 53.9601L51.9181 53.6678L51.6064 53.3899L51.2564 53.1024L50.9207 52.8437L50.8248 52.7814L50.7289 52.7479H50.5803L50.5467 52.8197V52.9299L50.633 53.0689L50.9543 53.433L51.8366 54.5399L52.2346 55.1292L52.5894 55.7185L52.8771 56.2935L53.16 56.8924L53.3949 57.4962L53.5963 58.1047L53.7594 58.7084L53.908 59.3313L54.0039 59.9446L54.0566 60.5531L54.0902 61.152V61.7653L54.0566 62.3642L53.9895 62.9679L53.884 63.5669L53.7642 64.1658L53.6059 64.7551L53.4237 65.3349L53.2175 65.9147L52.9826 66.4944L52.7141 67.0502L52.4359 67.6108L52.1243 68.157L51.7934 68.7033L51.4386 69.2303L51.0742 69.743L50.6762 70.2557L50.259 70.7348L49.8275 71.214L49.3768 71.6931L48.8973 72.1722L48.4178 72.6083L48.0725 72.9101L47.7321 73.188L47.3773 73.4659L47.0224 73.7342L46.6676 73.993L46.3032 74.2517L45.5743 74.7309L45.2099 74.9561L44.8359 75.1717L44.4571 75.3873L44.0831 75.5885L43.6947 75.7945L43.3111 75.9766L42.9227 76.1683L42.5391 76.3408L42.1411 76.5133L41.7527 76.681L41.3548 76.8439L40.9472 77.0068L40.1416 77.3038L39.3265 77.5961L38.4922 77.8261L36.8283 78.3388L35.9796 78.5736L35.5001 78.8227L35.6152 78.976L36.4064 79H43.7618L44.577 78.9665L45.3921 78.9233L46.2073 78.8706L47.0032 78.794L47.7944 78.7077L48.5904 78.6023L49.0315 78.54L49.4679 78.4729L49.8994 78.4202L50.307 78.3675L50.6714 78.31L50.9927 78.2573L51.2612 78.2142L51.453 78.1855L52.6661 77.9603L53.8601 77.7111L54.4355 77.5817L55.0156 77.4428L55.5862 77.3038L56.1568 77.1553L56.7131 77.0595L57.2693 76.9109L57.8303 76.7385L58.3769 76.566L58.9235 76.3983L59.4702 76.2018L60.0072 76.0102L60.5442 75.8089L61.0813 75.6029L61.6087 75.3777L62.1314 75.1525L62.6588 74.9081L63.1863 74.659L63.7089 74.4002L64.2268 74.1223L64.7494 73.8444L65.2673 73.557L65.7804 73.2455L66.3078 72.9341L66.8209 72.5987L67.3387 72.2585L67.8614 71.8943L68.3792 71.5302L68.8923 71.1421L69.765 70.4665L70.5801 69.7574L71.3521 69.0434L72.057 68.2912L72.7331 67.5389L73.3756 66.7675L73.975 65.977L74.512 65.172L74.9915 64.3575L75.4326 63.519L75.8306 62.6853L76.1711 61.8372L76.4731 60.9795L76.7081 60.1218L76.9047 59.2498L77.0294 58.3826L77.1157 57.5057L77.1492 56.6337L77.1157 55.7665L77.0294 54.8848L76.8903 54.0272L76.6985 53.1599L76.4396 52.3023L76.1279 51.4542L75.7539 50.6205L75.3128 49.782L74.8333 48.9674L74.2723 48.1529L73.6777 47.3527L72.9872 46.5669L72.2488 45.8051L71.4336 45.0672L71.2179 44.8612L71.0021 44.6696L70.8103 44.4779L70.6185 44.2814L70.4363 44.0802L70.2637 43.8886L70.091 43.6825L69.9424 43.4909L69.789 43.2848L69.6499 43.0836L69.5109 42.8776L69.3814 42.6763L69.2663 42.4607L69.156 42.2451L69.0505 42.0343L68.9546 41.8187L68.8443 41.5264L68.7484 41.2293L68.6525 40.9275L68.5662 40.6256L68.5039 40.319L68.4368 39.9931L68.3744 39.6817L68.3313 39.3607L68.2642 38.7186V37.1375L68.2977 36.826L68.384 36.2223L68.4464 35.9348L68.5231 35.6473L68.6094 35.3646L68.6957 35.1107L68.8012 34.852L68.9211 34.6076L69.0361 34.368L69.18 34.1428L69.3286 33.9416L69.4917 33.7451L69.6595 33.5631L69.8417 33.4049L70.0479 33.2564L70.2493 33.127L70.326 33.1031L70.4027 33.127L70.4986 33.2133L70.5609 33.3187L70.7671 33.908L71.3473 35.4509L72.057 37.4729L72.2296 38.0095L72.4022 38.5365L72.5748 39.0588L72.9201 40.1129L73.0879 40.6448L73.2605 41.1718L73.4427 41.6989L73.5722 42.0534L73.6921 42.3745L73.7448 42.5134L73.788 42.6428L73.8215 42.7386V42.8153L73.8551 42.9207L73.975 43.0405L74.0421 43.0932L74.1044 43.1507L74.1812 43.189L74.2675 43.2465L74.4593 43.3423L74.675 43.4286L74.9004 43.5148L75.1449 43.5963L75.6244 43.7496L76.0752 43.8646L76.4492 43.9652L76.6889 44.0275L76.8999 44.0898L77.3075 44.2096L77.5232 44.2527H77.7822L77.8589 44.224V43.9556L77.7918 43.6777L77.739 43.5388L77.6863 43.3759L77.6239 43.2273L77.5472 43.074L77.4705 42.9255L77.3986 42.7769L77.3123 42.638L77.2356 42.5086L77.1492 42.3888L77.0629 42.2834L76.991 42.1972L76.9143 42.1301L76.6266 41.9193L76.1855 41.5743L75.7683 41.2437L75.5861 41.1047L75.447 40.961L75.284 40.846L74.7661 40.4579L74.6079 40.3285L74.4689 40.204L74.3298 40.0602L74.2866 39.9979L74.2531 39.9356L74.2099 39.8254V39.7536L74.2723 39.6577L74.349 39.605L74.4353 39.5715L74.5312 39.538H74.9723L75.2073 39.5715L75.4326 39.605L75.6484 39.6577L75.821 39.7009L76.1327 39.7775L76.6697 39.9165L76.9239 40.0027L77.1732 40.089L77.4178 40.1944L77.6863 40.3237L77.9644 40.4819L78.2665 40.6448L78.5254 40.8077L78.6309 40.8795L78.7412 40.9562L78.8371 41.0281L78.909 41.1143L78.9857 41.2102L79.0481 41.3204L79.1056 41.4401L79.1487 41.5647V42.6045L79.1152 42.7578L79.0864 42.9303V43.28L79.12 43.4621L79.1631 43.625L79.1967 43.7017L79.2926 43.7544H79.3549L79.5084 43.7209L79.6906 43.6777H79.82L79.9159 43.6154L79.9879 43.5484L80.031 43.4765V43.1507L79.9783 43.0357V42.959L79.9543 42.8871V42.7003L79.9303 42.5086V41.5024L79.8632 41.3299L79.7289 41.1718L79.6666 41.0856L79.5995 41.0137L79.5276 40.9275L79.4508 40.8508L79.12 40.5633L78.8275 40.3381L78.6884 40.2279L78.5494 40.089L78.487 40.0171L78.4535 39.9404V39.7488L78.5062 39.6625L78.5829 39.6098L78.7028 39.5667H80.1269L80.5441 39.5332H80.7503L80.9517 39.4996L81.1578 39.4565L81.3496 39.4038L81.5462 39.3415L81.738 39.2648L81.9202 39.1882L82.0929 39.0924L82.1888 38.9007V38.7186L82.2079 38.5126ZM83.5266 31.3926L83.4738 31.3063H83.3012L83.2053 31.3399L83.0854 31.383L82.9799 31.4357L82.8936 31.4884L82.8265 31.5555L82.7738 31.6178L82.7306 31.7136L82.7546 31.7902L82.8073 31.8957L82.9272 32.0586L82.9991 32.0921H83.0758L83.1813 32.0681L83.3012 32.0154L83.3875 31.9388L83.4498 31.8525L83.493 31.7567L83.5266 31.6609V31.3926ZM83.6656 30.2474L83.6033 30.1947L83.5361 30.1707H83.258L83.1382 30.1947L83.0231 30.2235L82.9032 30.2666L82.7738 30.3193L82.6443 30.3959L82.5292 30.463L82.4333 30.5349L82.3566 30.6116L82.3038 30.6978L82.3374 30.7601L82.3997 30.784H82.6155L82.745 30.7601H82.884L83.0231 30.7266L83.1526 30.6834L83.2676 30.6499L83.3635 30.5972L83.4642 30.5541L83.6033 30.4391L83.6752 30.3289L83.6656 30.2474ZM83.2341 29.2891L83.1717 29.2364H82.7977L82.6778 29.2795L82.558 29.3227L82.4333 29.3897L82.3038 29.4616L82.1744 29.5479L82.0545 29.6437L81.9586 29.7299L81.8627 29.8593V29.9264L81.8915 29.9887H82.2031L82.3326 29.9551L82.4813 29.912L82.6203 29.8593L82.7498 29.8018L82.8696 29.7491L82.9895 29.6868L83.071 29.6245L83.1573 29.5574L83.2101 29.4952L83.2532 29.4281L83.2772 29.3658L83.2341 29.2891ZM82.5052 28.2302L82.4429 28.2063H82.2943L82.1936 28.2398L82.0881 28.2829L81.9682 28.3356L81.8627 28.4027L81.7428 28.489L81.6278 28.5848L81.5079 28.6902L81.412 28.8004L81.3257 28.9058L81.2729 29.0016L81.2394 29.0783L81.2825 29.1646H81.3592L81.4647 29.131L81.5846 29.0879L81.7141 29.0352L81.8531 28.9729L81.9826 28.8962L82.0977 28.8196L82.2175 28.7477L82.3134 28.6615L82.3902 28.5848L82.4621 28.5081L82.5052 28.4267L82.5388 28.3596V28.2734L82.5052 28.2302ZM75.4135 24.2821L75.3559 24.1863L75.284 24.1432L75.1977 24.1767L75.1114 24.2534L75.0778 24.3156V24.9817L75.1114 25.0439L75.1833 25.111L75.2504 25.0775L75.3128 25.0008L75.3463 24.9289L75.3799 24.8427V24.4115L75.4135 24.2821ZM81.7764 27.5786L81.6997 27.5355H81.5414L81.4455 27.569L81.3353 27.5978L81.2298 27.6648L81.1099 27.7271L80.9948 27.8134L80.8749 27.9092L80.6592 28.1248L80.5729 28.2302L80.5201 28.3261L80.4865 28.4027L80.5393 28.489H80.616L80.7119 28.465L80.8318 28.4219L80.9613 28.3692L81.1003 28.3069L81.2298 28.2302L81.3592 28.1584L81.4647 28.0817L81.5606 27.9954L81.6469 27.9188L81.7093 27.8373L81.7668 27.7607L81.7956 27.6936V27.6313L81.7764 27.5786Z" fill="#1F2C51"/>
</svg>
