<svg width="32" height="32" viewBox="0 0 32 32" fill="none" xmlns="http://www.w3.org/2000/svg">
<path d="M20.7415 19.3969L20.1343 20.0363C20.1343 20.0363 18.6908 21.556 14.7508 17.4079C10.8108 13.2598 12.2543 11.7401 12.2543 11.7401L12.6367 11.3375C13.5788 10.3457 13.6676 8.75329 12.8457 7.5908L11.1643 5.21282C10.147 3.774 8.18128 3.58393 7.01527 4.81152L4.92247 7.01485C4.34431 7.62354 3.95687 8.4126 4.00385 9.28792C4.12405 11.5273 5.08095 16.3454 10.4205 21.9669C16.0829 27.9283 21.3958 28.1652 23.5684 27.9508C24.2556 27.883 24.8532 27.5124 25.3348 27.0053L27.2289 25.0112C28.5074 23.6652 28.147 21.3576 26.5111 20.416L23.9638 18.9498C22.8897 18.3315 21.581 18.5131 20.7415 19.3969Z" fill="currentColor"/>
<path d="M17.6792 2.50677C17.7674 1.96158 18.2828 1.59175 18.828 1.68001C18.8617 1.68647 18.9703 1.70677 19.0272 1.71944C19.141 1.74477 19.2997 1.78378 19.4976 1.84142C19.8933 1.95668 20.4461 2.14655 21.1096 2.45073C22.4379 3.05973 24.2057 4.12508 26.0401 5.95947C27.8745 7.79387 28.9398 9.56162 29.5488 10.89C29.853 11.5535 30.0429 12.1063 30.1581 12.502C30.2158 12.6999 30.2548 12.8586 30.2801 12.9723C30.2928 13.0292 30.302 13.0749 30.3085 13.1087L30.3162 13.1503C30.4044 13.6954 30.038 14.2321 29.4928 14.3204C28.9492 14.4084 28.437 14.0404 28.3466 13.4977C28.3438 13.4832 28.3362 13.444 28.3279 13.4071C28.3115 13.3333 28.283 13.2162 28.2379 13.0613C28.1477 12.7515 27.991 12.2911 27.7308 11.7235C27.211 10.5898 26.2763 9.02417 24.6259 7.37369C22.9754 5.72321 21.4098 4.78855 20.2761 4.26877C19.7085 4.00856 19.248 3.85185 18.9383 3.76162C18.7834 3.71651 18.5887 3.67183 18.5149 3.65539C17.9722 3.56496 17.5911 3.0504 17.6792 2.50677Z" fill="currentColor"/>
<path fill-rule="evenodd" clip-rule="evenodd" d="M17.9808 7.10605C18.1325 6.57502 18.686 6.26753 19.2171 6.41925L18.9423 7.38078C19.2171 6.41925 19.2171 6.41925 19.2171 6.41925L19.219 6.4198L19.221 6.42039L19.2255 6.42169L19.2358 6.42478L19.2622 6.43299C19.2823 6.43942 19.3074 6.4478 19.3373 6.45842C19.3972 6.47967 19.4764 6.50989 19.5734 6.55149C19.7677 6.63474 20.0331 6.7633 20.3591 6.95625C21.0117 7.34249 21.9027 7.98406 22.9493 9.03069C23.9959 10.0773 24.6375 10.9682 25.0237 11.6209C25.2167 11.9469 25.3452 12.2123 25.4285 12.4065C25.4701 12.5036 25.5003 12.5828 25.5216 12.6426C25.5322 12.6726 25.5405 12.6977 25.547 12.7178L25.5552 12.7442L25.5583 12.7545L25.5596 12.7589L25.5602 12.761C25.5602 12.761 25.5607 12.7629 24.5992 13.0376L25.5607 12.7629C25.7124 13.2939 25.405 13.8474 24.8739 13.9992C24.3474 14.1496 23.7988 13.8486 23.6416 13.3258L23.6367 13.3115C23.6296 13.2914 23.6149 13.252 23.5902 13.1944C23.5409 13.0793 23.4514 12.891 23.3026 12.6395C23.0053 12.1372 22.4683 11.3782 21.5351 10.4449C20.6018 9.51163 19.8428 8.97469 19.3405 8.6774C19.089 8.52858 18.9007 8.43912 18.7856 8.38978C18.728 8.36509 18.6886 8.35038 18.6685 8.34327L18.6541 8.33835C18.1314 8.18118 17.8304 7.63258 17.9808 7.10605Z" fill="currentColor"/>
</svg>
