<svg width="20" height="22" viewBox="0 0 20 22" fill="none" xmlns="http://www.w3.org/2000/svg">
<path fill-rule="evenodd" clip-rule="evenodd" d="M14.7535 0.249822C15.0297 -0.0588232 15.5039 -0.0850888 15.8125 0.191156C18.0746 2.2158 19.5 5.16044 19.5 8.437C19.5 14.1884 15.1112 18.9147 9.50001 19.4496V20H10.75C11.1642 20 11.5 20.3358 11.5 20.75C11.5 21.1642 11.1642 21.5 10.75 21.5H6.75001C6.33579 21.5 6.00001 21.1642 6.00001 20.75C6.00001 20.3358 6.33579 20 6.75001 20H8.00001V19.4915C4.89923 19.371 2.12537 17.9736 0.191156 15.8125C-0.0850888 15.5039 -0.0588232 15.0297 0.249822 14.7535C0.558467 14.4772 1.03261 14.5035 1.30886 14.8122C3.06098 16.7698 5.60483 18 8.437 18C13.7185 18 18 13.7185 18 8.437C18 5.60483 16.7698 3.06098 14.8122 1.30886C14.5035 1.03261 14.4772 0.558467 14.7535 0.249822ZM3.9718 4.72099C3.05349 5.80894 2.50001 7.21484 2.50001 8.75001C2.50001 12.2018 5.29823 15 8.75001 15C8.84626 15 8.942 14.9978 9.03719 14.9935C8.95051 14.3845 8.99389 13.6405 9.37848 12.9157C9.86588 11.9972 10.8593 11.6191 11.5362 11.4527C11.8985 11.3637 12.2329 11.32 12.4751 11.2983C12.5971 11.2873 12.698 11.2817 12.7702 11.2789C12.8064 11.2774 12.8355 11.2767 12.8567 11.2763L12.8824 11.2759L12.8877 11.2759C13.6373 11.2681 14.0589 11.0932 14.3063 10.9148C14.5546 10.7357 14.7013 10.4999 14.8076 10.235C14.8169 10.2118 14.8272 10.1894 14.8385 10.1676C14.9442 9.71216 15 9.23761 15 8.75001C15 7.06604 14.334 5.53762 13.2511 4.41377C13.1286 4.77084 12.9725 5.10649 12.8097 5.36271C12.5988 5.69459 12.2009 6.01677 11.893 6.24617C11.6812 6.40397 11.4621 6.53702 11.2699 6.65192C11.2465 6.66589 11.2236 6.67956 11.201 6.693C11.0293 6.79543 10.8809 6.88396 10.7381 6.98182C10.4314 7.19195 10.2066 7.40882 10.0544 7.73436C10.0136 7.82161 10.0096 7.90859 10.0378 8.01509C10.0963 8.23633 10.1367 8.48647 10.1373 8.74317C10.1401 9.86417 9.10024 10.5096 8.24152 10.4999C6.25666 10.4774 5.08638 8.81142 4.93391 7.05154C4.86154 6.21619 4.43135 5.3729 3.9718 4.72099ZM5.07838 3.69163C5.66808 4.48757 6.31822 5.65135 6.42831 6.92207C6.53839 8.19264 7.29691 8.9891 8.2585 8.99998C8.35911 9.00112 8.47107 8.96102 8.55055 8.89459C8.62444 8.83284 8.63739 8.77996 8.6373 8.7469C8.63704 8.64046 8.61957 8.51932 8.58771 8.39899C8.49012 8.03039 8.47494 7.57078 8.69564 7.09889C9.00079 6.44642 9.45455 6.04293 9.89025 5.74441C10.075 5.61785 10.2665 5.50371 10.4339 5.40396C10.4565 5.39051 10.4787 5.37731 10.5003 5.36439C10.6915 5.25008 10.8522 5.15111 10.9968 5.04334C11.3212 4.80161 11.5001 4.62677 11.5436 4.55831C11.7125 4.29254 11.9009 3.81019 11.9718 3.39333C11.031 2.82624 9.92861 2.50001 8.75001 2.50001C7.37798 2.50001 6.10921 2.94211 5.07838 3.69163ZM13.5686 12.7307C13.3601 12.7581 13.1385 12.7734 12.9033 12.7758L12.8955 12.7759L12.8847 12.776C12.8733 12.7763 12.8546 12.7767 12.8295 12.7777C12.7791 12.7797 12.7033 12.7838 12.6091 12.7923C12.4191 12.8093 12.1633 12.8432 11.8943 12.9094C11.3087 13.0533 10.8748 13.2959 10.7035 13.6188C10.5028 13.997 10.4756 14.4062 10.517 14.7467C11.7273 14.3907 12.785 13.6782 13.5686 12.7307ZM1.00001 8.75001C1.00001 4.4698 4.4698 1.00001 8.75001 1.00001C13.0302 1.00001 16.5 4.4698 16.5 8.75001C16.5 13.0302 13.0302 16.5 8.75001 16.5C4.4698 16.5 1.00001 13.0302 1.00001 8.75001Z" fill="currentColor"/>
</svg>
