<svg version="1.2" xmlns="http://www.w3.org/2000/svg" viewBox="0 0 205 60" width="205" height="60">
	<title>default-svg</title>
	<style>
		.s0 { fill: #ffffff } 
		.s1 { fill: #2ac5f5 } 
		.s2 { fill: #3699ff } 
	</style>
	<g id="Layer">
		<path id="Layer" class="s0" d="m80.5 50.3h-11.9l18.8-36 18.4 36h-11.6l-7-13.6z"/>
		<path id="Layer" class="s1" d="m96.1 28.2l7.2-13.9 18.7 36h-11.8l-7.1-13.5-1.5 2z"/>
	</g>
	<g id="Layer">
		<path id="Layer" fill-rule="evenodd" class="s0" d="m122.2 39.5c0-6.6 2.6-10.9 8.4-10.9 5.9 0 8.5 4.4 8.5 10.9 0 6.4-2.6 10.8-8.5 10.8-5.8 0-8.4-4.4-8.4-10.8zm11.5 0c0-3.9-0.9-5.8-3.1-5.8-2.1 0-3.1 1.9-3.1 5.8 0 3.8 1 5.8 3.1 5.8 2.2 0 3.1-2 3.1-5.8z"/>
		<path id="Layer" class="s0" d="m140.6 39.7c0-7 4.2-11.1 10-11.1 1.5 0 3 0.3 4.5 0.9v4.8c-1.1-0.4-2.4-0.7-3.8-0.7-3.2 0-5.3 2.1-5.3 6.1 0 3.5 1.2 5.1 2.9 5.5 0.6 0.1 1.1 0.1 1.7 0v-6.7h5v10.5c-1.6 0.9-3.3 1.3-5.7 1.3-4.9 0-9.3-3-9.3-10.6z"/>
		<path id="Layer" class="s0" d="m173.2 50.3h-5.2v-8.4h-4.8v8.4h-5.2v-21.7h5.2v8.4h4.8v-8.4h5.2z"/>
		<path id="Layer" class="s0" d="m181.4 50.3h-5.4v-21.7h5.4z"/>
		<path id="Layer" class="s0" d="m184.1 28.6h4.5l4.9 9.7 5-9.7h4.4v21.7h-5v-6.6c0-1.9 0.2-3.9 0.5-5.9l-4 7.5h-1.7l-4-7.5c0.3 2 0.5 3.9 0.5 5.9v6.6h-5.1z"/>
	</g>
	<g id="Layer">
		<path id="Layer" class="s1" d="m62.2 32.7c0 6.6-2.9 12.5-7.5 16.6 4.1-17.4-6.4-33.3-25.9-35.1-0.4 0-0.7-0.1-1.1-0.1 3.5-2.3 7.7-3.7 12.3-3.7 12.2 0 22.2 10 22.2 22.3z"/>
		<path id="Layer" class="s1" d="m53.5 50.3q-0.1 0.1-0.2 0.2c0.1-12.6-9.7-22.4-23.5-21.2-4.9 0.5-8.7 0.1-11.8-0.5q0.5-2.2 1.3-4.3c3.3 0.6 7.4 1 12.2 1 20.4 0.2 22.2 16.9 22 24.8z"/>
		<path id="Layer" class="s1" d="m19.8 42q-1.2-2.5-1.7-5.3c3.4 1.2 8.2 1.4 15.3 0.2 13.3-2.2 17.6 7.7 18.9 13.5-3-8.1-11.5-12.8-20.6-9.8-5.3 1.8-9.3 1.8-11.9 1.4z"/>
		<path id="Layer" class="s1" d="m51.9 51.4c-3.5 2.2-7.6 3.5-11.9 3.5-6.6 0-12.5-2.9-16.6-7.4 2.9 0.8 6.7 0.3 12.5-2.1 8.7-3.7 13.7 2.1 16 6z"/>
	</g>
	<g id="Layer">
		<path id="Layer" class="s2" d="m53.2 53.6c0 0 5.6-28.3-21.1-29-26.6-0.6-28.8-10.7-29.4-23.3 0 0 5.6 9.7 27 12 21.3 2.3 31.4 21.2 23.5 40.3z"/>
		<path id="Layer" class="s2" d="m53.2 53.6c0 0-0.9-20.7-19.6-17.5-18.7 3.2-21.8-3.6-24.4-12.2 0 0 5.6 6 20.8 4.7 15.3-1.4 25.5 10.6 23.2 25z"/>
		<path id="Layer" class="s2" d="m53.2 53.6c0 0-5-14.5-17.5-9.2-12.6 5.4-16.2 1.1-19.9-4.6 0 0 5.2 3.4 15.7-0.1 10.5-3.5 20.3 3.3 21.7 13.9z"/>
	</g>
</svg>