<svg version="1.2" xmlns="http://www.w3.org/2000/svg" viewBox="0 0 198.1 178.5" width="198" height="178">
	<title>default-svg</title>
	<g _ngcontent-rwb-c211="">
    <path _ngcontent-rwb-c211=""
      d="M124.1,30.4c-15.1,0-29.2,4.6-40.9,12.3c1.3,0.1,2.5,0.3,3.8,0.4C152,48.9,186.8,102,173.1,160c15.4-13.6,25.1-33.4,25.1-55.5C198.1,63.6,165,30.4,124.1,30.4z"
      fill="#3699ff"></path>
    <path _ngcontent-rwb-c211=""
      d="M95.8,80.7c-16-0.1-29.4-1.3-40.6-3.4c-1.8,4.6-3.2,9.4-4.1,14.4c10.1,2.1,22.9,3.2,39.1,1.8c46.1-4,78.5,28.4,78.3,70.3c0.2-0.1,0.4-0.3,0.6-0.4C169.9,137.1,163.7,81.2,95.8,80.7z"
      fill="#3699ff"></path>
    <path _ngcontent-rwb-c211=""
      d="M96.6,131.1c30.3-10,58.6,5.4,68.7,32.5c-4.5-19.4-18.7-52.4-63.2-44.9c-23.4,4-39.5,3.2-50.9-0.7c1.1,6.2,3,12.1,5.6,17.6C65.6,137,78.8,137,96.6,131.1z"
      fill="#3699ff"></path>
    <path _ngcontent-rwb-c211=""
      d="M110.4,146.9c-19,8.1-31.9,9.6-41.4,7c13.6,15.1,33.2,24.6,55.1,24.6c14.6,0,28.2-4.3,39.7-11.6C156.2,153.9,139.4,134.6,110.4,146.9z"
      fill="#3699ff"></path>
  </g>
  <g _ngcontent-rwb-c211="">
    <path _ngcontent-rwb-c211=""
      d="M168.1,174.1c0,0,18.7-94-70.1-96.3C9.2,75.6,2.1,42,0,0c0,0,18.7,32.5,89.9,40.1C161,47.7,194.6,110.5,168.1,174.1z"
      fill="#2ac5f5"></path>
    <path _ngcontent-rwb-c211=""
      d="M168.1,174.1c0,0-3-68.7-65.2-58.1s-72.7-11.9-81.2-40.8c0,0,18.5,20.1,69.2,15.7C141.7,86.4,175.9,126.2,168.1,174.1z"
      fill="#2ac5f5"></path>
    <path _ngcontent-rwb-c211=""
      d="M168.1,174.1c0,0-16.5-48.2-58.3-30.4c-41.9,17.8-54,3.7-66.1-15.4c0,0,17.3,11.2,52.3-0.4S163.6,138.9,168.1,174.1z"
      fill="#2ac5f5"></path>
  </g>
</svg>
