<svg xmlns="http://www.w3.org/2000/svg" xmlns:xlink="http://www.w3.org/1999/xlink" x="0px"
  y="0px" viewBox="-203 369.3 204.1 54.7" xml:space="preserve" style="enable-background: new -203 369.3 204.1 54.7;">
  <g>
    <polygon points="-185,424 -203,424 -174.5,369.3 -146.5,424 -164.2,424 -174.7,403.3"
      class="st0"></polygon>
    <polygon points="-161.3,390.4 -150.3,369.3 -121.9,424 -139.9,424 -150.6,403.4 -152.9,406.5"
      class="st1"></polygon>
  </g>
  <g>
    <path
      d="M-121.6,407.5c0-9.9,3.9-16.5,12.8-16.5s12.8,6.7,12.8,16.5c0,9.8-3.9,16.5-12.8,16.5S-121.6,417.3-121.6,407.5z M-104.1,407.5c0-5.9-1.4-8.8-4.7-8.8c-3.2,0-4.7,2.9-4.7,8.8c0,5.9,1.4,8.8,4.7,8.8S-104.1,413.4-104.1,407.5z"
      class="st0"></path>
    <path
      d="M-93.7,407.8c0-10.5,6.4-16.8,15.2-16.8c2.3,0,4.6,0.4,6.9,1.3v7.4c-1.8-0.7-3.7-1.1-5.9-1.1c-4.8,0-8,3.2-8,9.3c0,5.3,1.9,7.7,4.4,8.3c0.9,0.2,1.7,0.2,2.6,0v-10.1h7.6V422c-2.4,1.4-5,2-8.6,2C-87,424-93.7,419.4-93.7,407.8z"
      class="st0"></path>
    <path  d="M-44.2,424H-52v-12.8h-7.3V424h-7.9v-33h7.9v12.8h7.3V391h7.8V424z" class="st0">
    </path>
    <path  d="M-31.7,424h-8.2v-33h8.2V424z" class="st0"></path>
    <path
      d="M-27.6,391h6.8l7.5,14.8l7.5-14.8H1v33h-7.7v-10c0-3,0.3-6,0.8-9l-6,11.4h-2.7l-6-11.4c0.5,3,0.7,5.9,0.7,9v10h-7.7L-27.6,391L-27.6,391z"
      class="st0"></path>
  </g>
</svg>
