<svg width="100" height="100" viewBox="0 0 100 100" fill="none" xmlns="http://www.w3.org/2000/svg">
<path d="M40.5 36.2999C27.5 29.1999 19 34.0999 15.1 37.7999C15 37.8999 15 37.8999 15 37.9999C15 38.1999 15.1 38.2999 15.3 38.2999H15.4C17.2 37.4999 19.9 37.1999 23.6 38.7999C31.2 42.1999 32.3 51.7999 32 60.8999C32 61.1999 32 61.3999 32 61.6999C32 61.9999 32 62.2999 32 62.4999C32.5 69.3999 38.4 74.4999 45.3 74.0999C52 73.6999 57 68.2999 57.1 61.6999C57.1 61.0999 58.9 46.2999 40.5 36.2999Z" fill="#00BAC6"/>
<path d="M84.8 31.3999C83.6 30.1999 82.2 28.7999 80.7 27.2999C75.7 22.6999 68.1 18.5999 51.1 26.1999C46.4 28.2999 42.6 30.8999 39.6 33.6999C40.2 33.9999 40.9 34.2999 41.5 34.6999C51.5 40.1999 55.8 47.0999 57.6 51.9999C59.5 57.0999 59.2 61.0999 59.1 61.9999C59 69.9999 52.5 76.3999 44.5 76.2999C37 75.9999 30.8 70.1999 30.2 62.6999C30.2 62.3999 30.1 61.9999 30.2 61.5999C30.2 61.2999 30.2 61.0999 30.2 60.7999C30.3 56.8999 30.1 53.4999 29.6 50.7999C29.6 50.6999 29.5 50.6999 29.5 50.6999C29.5 50.6999 29.4 50.6999 29.4 50.7999C27.5 58.2999 28.3 64.1999 28.3 64.1999C30.2 72.5999 35.6 77.9999 44.7 77.9999C53.4 77.9999 60.6 71.2999 61.2 62.6999C61.2 62.2999 61.3 61.9999 61.2 61.5999C61.2 61.2999 61.2 60.8999 61.2 60.5999C60.8 48.6999 62.5 36.6999 72.3 31.5999C77.9 28.6999 81.8 30.8999 84.2 31.9999C84.4 32.0999 84.7 31.9999 84.8 31.7999C85 31.6999 84.9 31.4999 84.8 31.3999Z" fill="#002D56"/>
</svg>
