<svg width="100" height="100" viewBox="0 0 100 100" fill="none" xmlns="http://www.w3.org/2000/svg">
<path d="M81.6647 57.646L42.3021 17.9931C38.8467 14.518 37.9802 9 37.9802 9V21.5596C37.9802 25.0633 39.3621 28.4187 41.8151 30.8894L68.4778 57.7547C68.5686 57.8461 68.6193 57.9714 68.6193 58.0914C68.6193 58.2112 68.5683 58.3368 68.4778 58.4282C68.2967 58.6107 68.0021 58.6107 67.8209 58.4282C65.17 55.7805 47.2646 37.8799 41.0846 31.4946C38.983 29.3206 37.9805 26.7984 37.9805 26.7984V35.5689C37.9805 38.5876 39.17 41.4806 41.2887 43.6149L55.3253 57.755C55.416 57.8465 55.4667 57.9717 55.4667 58.0918C55.4667 58.2115 55.4157 58.3371 55.3253 58.4285C55.1441 58.6111 54.8495 58.6111 54.6625 58.4285C52.8216 56.5909 43.8095 47.5924 40.6486 44.3057C39.1077 42.7023 37.9805 40.0487 37.9805 40.0487V48.8821C37.9805 52.186 39.2834 55.3585 41.6058 57.6981L45.8881 62.012H80.9852L81.665 61.3271C82.673 60.311 82.673 58.6676 81.6647 57.646Z" fill="#005AAB"/>
<path d="M63.3401 79.5924H63.5384L80.9849 62.0114H31.3245C27.6481 62.0797 24.0344 62.7304 23.4111 66.3652C19.5594 66.3652 17.2085 70.5307 18.2452 74.4167C19.7577 72.7275 22.2387 71.866 25.0256 74.0572L25.0993 74.0458L25.4674 74.4226C25.5013 74.4568 25.5411 74.4909 25.5808 74.5309L26.0452 74.9933L41.6453 90.6001H54.7417L44.4096 80.1861C44.2226 80.0036 44.2226 79.707 44.4041 79.5186C44.5004 79.4272 44.6192 79.3816 44.7384 79.3816C44.8631 79.3816 44.9819 79.4272 45.0727 79.5186L56.073 90.6001H70.3079L59.5908 79.6211L63.3401 79.5924ZM29.8007 68.4482C28.8095 69.2355 26.9515 68.4482 26.9515 68.4482L30.084 65.4237C30.2425 65.7376 30.8032 67.6608 29.8007 68.4482Z" fill="#C7AB73"/>
<path d="M45.8877 62.0114H80.9848L81.6647 61.3265C82.673 60.3108 82.673 58.6674 81.6647 57.6458L80.0789 56.1436C81.277 60.9011 79.3504 60.3332 45.8877 62.0114Z" fill="#014282"/>
</svg>
