<svg width="100" height="100" viewBox="0 0 100 100" fill="none" xmlns="http://www.w3.org/2000/svg">
<path d="M82.6749 57.369C78.9863 56.5762 75.3438 56.5196 71.9013 58.0692C69.6286 59.0988 67.4534 60.324 65.1653 61.3331C64.6481 61.6105 64.0739 61.7639 63.4877 61.7809C61.8301 61.722 60.1724 61.8952 58.5626 62.2958C57.6874 62.5009 56.767 62.355 55.9974 61.8891C52.7602 60.2777 49.7898 58.203 46.6706 56.3857C40.1141 52.5452 33.0958 50.4808 25.4261 51.0317C23.2663 51.1583 21.1229 51.4858 19.0235 52.0098C18.0384 52.2724 17.8384 51.9789 18.0538 51.0523C20.6754 39.9838 27.0575 31.9219 37.513 27.51C57.1466 19.273 78.8631 31.4998 82.403 52.6276C82.7484 54.183 82.8402 55.7842 82.6749 57.369Z" fill="#FEDC21"/>
<path d="M12 57.6419C15.5092 54.4912 19.403 53.0549 23.7279 52.5246C31.5105 51.562 38.6057 53.6521 45.3828 57.2558C49.8462 59.629 54.0376 62.4708 58.4343 64.9779C62.3692 67.2122 66.4273 69.1273 71.0137 69.5752C72.0039 69.673 73.0043 69.6833 74.2304 69.7451C71.6733 72.1531 68.5111 73.8171 65.0831 74.5586C59.1576 75.8301 53.5554 74.6564 48.066 72.3346C44.2182 70.7026 40.8015 68.2985 37.2154 66.1929C31.8953 63.104 26.5188 60.0924 20.4701 58.5994C17.7003 57.9116 14.8529 57.5897 12 57.6419Z" fill="#E21E24"/>
<path d="M58.4958 63.5467C59.4935 63.8097 60.5462 63.7721 61.5227 63.4386C62.7442 63.0596 64.0367 62.9707 65.2984 63.1788C66.56 63.387 67.7561 63.8866 68.7923 64.6382C70.4545 65.7553 72.1886 66.7489 74.2355 66.9754C75.0667 67.0681 75.9029 67.0938 76.8007 67.1504C72.286 70.3731 64.0058 67.9278 58.4958 63.5467Z" fill="#E31F24"/>
<path d="M70.6955 60.1644C74.5894 56.8542 82.0335 57.4874 88 60.0666C86.6712 60.3755 85.6554 61.0962 84.5576 61.6111C82.6594 62.4965 80.7868 62.7076 78.863 61.575C77.0263 60.4991 74.9588 60.2365 72.8656 60.1902C72.2449 60.149 71.6241 60.1644 70.6955 60.1644Z" fill="#E31F25"/>
<path d="M81.6797 63.2018C80.7857 64.1987 79.6413 64.9364 78.3661 65.3376C77.0909 65.7387 75.7317 65.7888 74.4306 65.4824C72.9824 65.1562 71.5749 64.6693 70.234 64.0307C68.7395 63.317 67.1603 62.798 65.5346 62.4862C66.461 61.8039 67.5223 61.3286 68.647 61.0924C69.7718 60.8562 70.934 60.8645 72.0552 61.1168C73.8919 61.4669 75.6105 62.2134 77.3959 62.7385C78.7775 63.1839 80.2352 63.3416 81.6797 63.2018Z" fill="#E31E24"/>
</svg>
