<svg width="100" height="100" viewBox="0 0 100 100" fill="none" xmlns="http://www.w3.org/2000/svg">
<path d="M75.6484 31.4203C75.2593 30.4767 76.0549 30.733 76.2929 31.0184C79.0395 34.3737 80.5724 36.9425 81.2518 42.9657C81.3474 44.492 81.1503 46.0225 80.6712 47.4743C79.1954 52.9614 76.0065 57.8302 71.5721 61.3672C67.9496 64.1391 64.0218 66.4845 59.8659 68.3574C59.6104 68.4797 59.5059 68.9399 59.3317 69.2195C59.5814 69.3243 59.8543 69.5573 60.0807 69.5224C60.7282 69.4199 61.3615 69.242 61.9679 68.9923C67.8313 66.5445 73.0128 62.702 77.0652 57.7964C79.5911 54.68 81.5247 51.1791 82.0415 47.0724C82.0764 46.8278 82.0415 46.4025 82.2912 46.4142C82.4248 46.4724 82.4422 46.6413 82.5061 46.8744C83.3468 50.4003 83.11 54.0985 81.8267 57.4877C80.6336 60.6162 78.9455 63.5313 76.8271 66.1205C74.8355 68.637 72.0715 70.233 69.3191 71.7942C66.0035 73.6757 62.2931 74.532 58.7568 75.8718C57.0148 76.5183 57.6419 77.1533 58.0484 77.1183C60.5788 76.812 63.057 76.1674 65.417 75.2019C68.4191 74.0368 71.4792 72.8718 73.8251 70.5068C73.9239 70.4078 74.1212 70.4136 74.278 70.367C74.278 70.5418 74.4174 70.7864 74.3419 70.8913C73.0065 72.7611 71.6824 74.6019 69.6966 75.9533C66.2343 78.4474 62.3423 80.2782 58.2168 81.3532C54.5179 82.2386 50.7784 82.6697 46.9054 81.9765C42.3936 81.1668 38.2593 79.3901 34.0088 77.8348C31.0532 76.7455 28.0105 75.662 24.782 75.2601C22.1981 74.9397 20.0496 73.4252 18.0115 71.8524C17.4308 71.3806 17.7908 71.4097 18.1799 71.2699C21.7684 70.0525 25.3453 69.3768 28.8815 71.4505C30.615 72.4246 32.5522 72.9773 34.5372 73.0641C36.0611 73.1089 37.575 72.802 38.9619 72.167C43.0962 70.5243 47.1957 68.8292 51.3765 67.3088C51.6924 67.2504 51.9734 67.0716 52.1607 66.8099C52.3479 66.5482 52.4269 66.2239 52.3811 65.905C52.4159 64.2623 52.2475 62.5672 52.6017 60.9944C53.2753 58.0294 55.3889 56.2295 58.0019 54.7499C61.5348 52.7931 64.5461 50.0119 66.7816 46.6413C69.8417 41.9813 69.4062 34.4086 68.6397 32.032C68.0591 30.1563 65.7771 24.4593 58.7162 18.4769C58.5478 18.3313 58.1355 17.8537 58.4084 17.8362C58.5884 17.7954 58.7684 17.7371 58.9542 17.7138C60.342 17.5333 61.5788 18.11 62.7924 18.6167C69.9869 21.5934 74.4407 30.267 74.9865 34.8921C76.2233 46.0006 69.1798 54.4936 65.8003 57.2139C64.3518 58.2922 62.8285 59.2655 61.2421 60.1265C60.7833 60.3886 60.3072 60.6041 60.6614 61.14C60.7888 61.2835 60.9609 61.3795 61.1497 61.4123C61.3384 61.4451 61.5327 61.4128 61.7008 61.3206C63.4272 60.5267 65.0642 59.5503 66.5842 58.4081C80.2473 47.9695 76.4962 33.4708 75.6484 31.4203Z" fill="#165BA4"/>
<path d="M29.8454 54.9013C32.8185 57.9421 36.1747 60.3944 40.251 61.74C40.5074 61.8484 40.7767 61.9229 41.0523 61.9614C42.0162 61.9614 41.5865 60.9187 41.3833 60.7964C39.8329 60.0915 38.1722 59.5847 36.738 58.7168C30.879 55.2217 26.6227 50.4277 25.0608 43.5249C23.7717 37.8163 25.0027 32.7077 27.8944 27.7155C30.5364 23.172 34.5837 20.5565 39.1826 18.4944C39.4322 18.3837 40.3439 18.1274 40.5587 18.4944C40.5675 18.5757 40.5556 18.6578 40.5241 18.7332C40.4926 18.8086 40.4426 18.8747 40.3787 18.9255C39.6297 19.6594 38.8574 20.3934 38.1257 21.1739C35.3379 24.0503 33.2113 27.5038 31.8952 31.2922C30.339 35.8358 30.67 40.1463 32.2959 44.6317C33.9217 49.117 37.2315 51.7092 41.0639 53.9227C42.7786 54.9448 44.5528 55.863 46.377 56.6722C48.5603 57.6042 50.6797 62.6546 49.9713 65.4681C49.9075 65.7302 49.472 65.9574 49.1584 66.0972C45.355 67.7748 41.5807 69.5224 37.7135 71.0078C33.3352 72.7029 26.6808 70.5709 23.6904 66.5865C21.0658 63.0507 18.2205 58.1343 18.4818 49.3209C18.9289 50.2413 19.4399 51.15 19.8115 52.0936C21.6348 56.4508 24.6136 59.9401 28.1499 62.9458C29.2942 63.964 30.6425 64.7247 32.1042 65.1768C32.2433 65.1993 32.3859 65.1832 32.5165 65.1302C32.7023 65.0254 32.6559 64.6584 32.563 64.5943C31.0684 63.7099 29.6827 62.6522 28.4344 61.4429C24.3581 57.2896 20.7929 52.3732 19.7999 46.7578C19.0392 42.4531 21.3096 36.7969 23.0923 34.694C23.162 34.9678 21.2342 45.9715 29.8454 54.9013Z" fill="#165BA4"/>
</svg>
