<svg width="100" height="100" viewBox="0 0 100 100" fill="none" xmlns="http://www.w3.org/2000/svg">
<path d="M36 58.2C35.2 58.2 34.5 58.2 33.7 58.2C33.3 58.2 33.1 58.1 32.9 57.7C32.3 56.6 31.6 55.6 30.6 54.8C29.5 54.1 28.3 53.7 27 53.7C24.1 53.7 21.2 53.7 18.4 53.7C17.9 53.7 17.9 53.7 18.1 53.2C18.8 51.8 19.8 50.6 21.3 49.9C22.1 49.6 22.9 49.3 23.7 49.3C25 49.3 26.3 49.3 27.7 49.3C28.2 49.3 28.2 49.3 28 48.8C25.9 45.2 23.9 41.6 21.8 37.9C21.7 37.8 21.7 37.6 21.5 37.6C21.3 37.6 21.3 37.8 21.2 37.9C18 43.5 14.8 49.1 11.6 54.7C10.4 57 8.49997 58.1 5.99997 58.1C5.49997 58.1 4.89997 58.1 4.39997 58.1C3.99997 58.1 3.99997 58 4.19997 57.7C5.79997 55 7.29997 52.3 8.89997 49.5C12.2 43.8 15.4 38.1 18.7 32.3C19.3 31.3 20.1 30.6 21.3 30.5C22.5 30.4 23.5 31 24.1 32C27 37.1 30 42.2 32.9 47.4C34.8 50.8 36.8 54.2 38.7 57.5C39 58 39 58 38.4 58C37.5 58.2 36.8 58.2 36 58.2Z" fill="#606062"/>
<path d="M77.2001 53.8C75.6001 53.8 74.0001 53.7 72.4001 53.8C70.2001 53.9 68.5001 55 67.5001 56.9C67.0001 57.9 66.4001 58.3 65.3001 58.2C64.1001 58.1 62.8001 58.2 61.6001 58.2C61.1001 58.2 61.0001 58.2 61.3001 57.7C63.5001 53.9 65.7001 50 67.9001 46.2C70.5001 41.6 73.1001 37.1 75.7001 32.5C76.5001 31.1 77.7001 30.5 79.1001 30.8C80.1001 31 80.7001 31.6 81.2001 32.4C82.3001 34.3 83.4001 36.3 84.5001 38.2C87.6001 43.6 90.7001 49.1 93.8001 54.5C94.4001 55.6 95.1001 56.7 95.7001 57.8C95.9001 58.1 95.9001 58.2 95.5001 58.2C94.6001 58.2 93.7001 58.3 92.9001 58.1C90.9001 57.8 89.4001 56.7 88.4001 54.9C85.2001 49.4 82.1001 43.8 78.9001 38.3C78.8001 38.1 78.7001 37.8 78.5001 37.8C78.3001 37.8 78.2001 38.1 78.1001 38.3C76.1001 41.8 74.1001 45.3 72.1001 48.8C71.8001 49.4 71.8001 49.4 72.5001 49.4C73.6001 49.4 74.8001 49.4 75.9001 49.4C78.4001 49.4 80.3001 50.5 81.5001 52.7C81.7001 53 82.1001 53.5 82.0001 53.7C81.8001 54 81.3001 53.8 80.9001 53.8C79.6001 53.8 78.4001 53.8 77.2001 53.8Z" fill="#606062"/>
<path d="M76.5 71.6C76.6 71.4 76.6 71.2 76.6 71.1C76.6 68.5 76.6 65.9 76.6 63.3C76.6 62.9 76.7 62.8 77.1 62.8C77.5 62.8 77.8 62.8 78.2 62.8C78.5 62.8 78.5 62.9 78.5 63.1C78.5 66.4 78.5 69.6001 78.5 72.9001C78.5 73.2001 78.4 73.2 78.2 73.2C77.4 73.2 76.6001 73.2 75.8001 73.2C75.5001 73.2 75.4001 73.1001 75.3001 72.8001C74.4001 70.1001 73.4 67.4 72.5 64.7C72.4 64.6 72.5 64.4001 72.2 64.3001C72.1 64.5001 72.1 64.7001 72.1 64.9001C72.1 67.5001 72.1 70.1 72.1 72.7C72.1 73.1 72 73.3 71.6 73.2C71.2 73.1 70.6001 73.4 70.3001 73.1C70.1001 72.8 70.2 72.3001 70.2 71.9001C70.2 69.0001 70.2 66.1 70.2 63.3C70.2 62.9 70.3 62.8 70.7 62.8C71.4 62.8 72.1001 62.8 72.9001 62.8C73.3001 62.8 73.5 62.9 73.6 63.3C74.5 65.9 75.3 68.5 76.2 71.2C76.3 71.2 76.3 71.5 76.5 71.6Z" fill="#606062"/>
<path d="M49 67.9C49 66.3 49 64.8 49 63.2C49 62.9 49.1 62.7 49.4 62.7C50.8 62.7 52.1 62.7 53.5 62.7C55 62.7 56 63.4999 56.4 64.6999C56.9 66.3999 56.5 68 55.3 68.9C55 69.1 55 69.3 55.1 69.5C55.5 70.6 56 71.6999 56.4 72.6999C56.6 73.0999 56.5 73.1999 56.1 73.1999C55.6 73.1999 55 73.3999 54.6 73.0999C54.3 72.7999 54.2 72.2 54 71.8C53.8 71.2 53.5 70.6 53.3 69.9C53.2 69.6 53.1 69.5 52.7 69.5C52.2 69.5 51.7 69.5 51.2 69.5C50.9 69.5 50.7 69.6 50.8 69.9C50.8 70.8 50.8 71.7999 50.8 72.6999C50.8 72.9999 50.7 73.0999 50.4 73.0999C50.1 73.0999 49.7 73.0999 49.4 73.0999C49.1 73.0999 49 72.9999 49 72.6999C49 71.1999 49 69.5 49 67.9ZM52.2 64.3C51.8 64.3 51.4 64.3 51.1 64.3C50.9 64.3 50.8 64.3999 50.8 64.5999C50.8 65.5999 50.8 66.5999 50.8 67.5999C50.8 67.7999 50.9 67.9 51.1 67.9C51.9 67.9 52.6 68 53.4 67.8C53.9 67.7 54.3 67.4 54.5 67C54.7 66.4 54.7 65.7999 54.5 65.1999C54.3 64.7999 54 64.5 53.5 64.4C53.1 64.3 52.6 64.4 52.2 64.3Z" fill="#606062"/>
<path d="M30.8001 73.2C29.9001 73.2 29.9001 73.2 29.7001 72.3C29.3001 71 29.3001 71 28.0001 71C27.3001 71 26.6001 71 25.8001 71C25.5001 71 25.3001 71.1 25.2001 71.4C25.1001 71.9 25.0001 72.3 24.9001 72.8C24.8001 73 24.7001 73.1 24.5001 73.1C23.0001 73.2 23.0001 73.2 23.4001 71.7C24.1001 68.8 24.8001 65.9 25.5001 63C25.6001 62.6 25.7001 62.5 26.1001 62.5C27.0001 62.5 27.8001 62.5 28.7001 62.5C29.1001 62.5 29.2001 62.6 29.2001 63C30.0001 66.1 30.7001 69.3 31.5001 72.4C31.6001 73 31.8001 73 31.0001 73C30.9001 73.2 30.9001 73.2 30.8001 73.2ZM27.4001 69.5C27.8001 69.5 28.2001 69.5 28.7001 69.5C29.0001 69.5 29.1001 69.4 29.0001 69.1C28.6001 67.6 28.3001 66.1 27.9001 64.5C27.8001 64.2 27.7001 64.2 27.4001 64.2C27.2001 64.2 27.0001 64.2 27.0001 64.5C26.6001 66 26.3001 67.5 25.9001 69.1C25.8001 69.4 25.9001 69.5 26.2001 69.5C26.5001 69.4 26.9001 69.5 27.4001 69.5Z" fill="#606062"/>
<path d="M8.4 62.7C8.9 62.7 9.6 62.4999 9.9 62.7999C10.2 63.0999 10.2 63.8 10.4 64.4C11.1 67.2 11.7 69.9999 12.4 72.6999C12.5 73.0999 12.4 73.1999 12 73.1999C10.7 73.1999 10.7 73.1999 10.4 71.9999C10.2 70.9999 10.2 70.9999 9.1 70.9999C8.3 70.9999 7.4 70.9999 6.6 70.9999C6.3 70.9999 6.2 71.1 6.1 71.4C6 71.9 5.9 72.4 5.7 72.9C5.6 73.1 5.5 73.1999 5.3 73.1999C4.9 73.1999 4.6 73.1999 4.2 73.1999C4 73.1999 4 73.1 4 72.8C4.8 69.6 5.6 66.3999 6.3 63.0999C6.4 62.7999 6.5 62.7 6.9 62.7C7.4 62.8 7.8 62.7 8.4 62.7ZM8.2 69.4999C8.6 69.4999 9 69.4999 9.5 69.4999C9.8 69.4999 9.9 69.3999 9.8 69.0999C9.4 67.5999 9.1 66.0999 8.7 64.4999C8.6 64.1999 8.5 64.1999 8.2 64.1999C8 64.1999 7.8 64.1999 7.7 64.4999C7.3 65.9999 7 67.5999 6.6 69.0999C6.5 69.3999 6.6 69.4 6.9 69.4C7.4 69.4 7.8 69.4999 8.2 69.4999Z" fill="#606062"/>
<path d="M38.8999 62.7C39.0999 62.7 39.3999 62.7 39.5999 62.7C40.5999 62.7 40.5999 62.7 40.8999 63.7C41.5999 66.7 42.3999 69.7 43.0999 72.7C43.1999 73.1 43.0999 73.2 42.6999 73.2C41.3999 73.2 41.3999 73.2 41.0999 72C40.8999 71 40.8999 71 39.8999 71C38.9999 71 38.1999 71 37.3999 71C37.0999 71 36.8999 71.1 36.8999 71.4C36.7999 71.9 36.6999 72.4 36.5999 72.8C36.4999 73.1 36.3999 73.1 36.1999 73.1C35.8999 73.1 35.5999 73.1 35.2999 73.1C34.7999 73.2 34.7999 73 34.8999 72.6C35.5999 69.6 36.3999 66.5 37.0999 63.5C37.2999 62.6 37.2999 62.6 38.1999 62.6C38.2999 62.7 38.5999 62.7 38.8999 62.7ZM38.8999 69.5C39.2999 69.5 39.6999 69.5 40.1999 69.5C40.4999 69.5 40.5999 69.4 40.4999 69.2C40.0999 67.7 39.6999 66.1 39.3999 64.6C39.2999 64.3 39.1999 64.3 38.9999 64.3C38.7999 64.3 38.5999 64.3 38.4999 64.6C38.0999 66.1 37.7999 67.7 37.3999 69.2C37.2999 69.4 37.3999 69.6 37.6999 69.6C38.0999 69.4 38.4999 69.5 38.8999 69.5Z" fill="#606062"/>
<path d="M80.8 68C80.8 66.4 80.8 64.8001 80.8 63.2001C80.8 62.9001 80.8 62.8 81.2 62.8C83.1 62.8 85.1 62.8 87 62.8C87.4 62.8 87.5 62.9 87.5 63.3C87.5 64.4 87.5 64.4001 86.4 64.4001C85.3 64.4001 84.2 64.4001 83.1 64.4001C82.8 64.4001 82.7 64.5001 82.7 64.8001C82.7 65.5001 82.7 66.1001 82.7 66.8001C82.7 67.1001 82.8 67.2 83.1 67.2C84.1 67.2 85.1 67.2 86.1 67.2C86.5 67.2 86.6 67.3 86.6 67.6C86.6 68.8 86.6 68.8001 85.4 68.8001C84.6 68.8001 83.9 68.8001 83.1 68.8001C82.8 68.8001 82.7 68.9 82.7 69.2C82.7 69.9 82.7 70.5 82.7 71.2C82.7 71.6 82.8 71.7 83.2 71.7C84.5 71.7 85.8 71.7 87.1 71.7C87.4 71.7 87.5 71.8 87.5 72.1C87.5 73.3 87.5 73.3001 86.3 73.3001C84.6 73.3001 82.9 73.3001 81.3 73.3001C80.9 73.3001 80.9 73.2001 80.9 72.9001C80.8 71.2001 80.8 69.6 80.8 68Z" fill="#606062"/>
<path d="M17.8 73.2C17.3 73.2 16.9 73.2 16.4 73.2C16.1 73.2 16 73.1001 16 72.9001C15.2 69.6001 14.4 66.4 13.6 63.1C13.5 62.8 13.6 62.8 13.9 62.8C14.3 62.8 14.7 62.8 15 62.8C15.4 62.8 15.5 62.9 15.6 63.3C16.2 65.8 16.7 68.4001 17.3 70.9001C17.3 71.0001 17.4 71.2001 17.4 71.3001C17.4 71.6001 17.5 71.7 17.9 71.7C18.2 71.7 18.3 71.5001 18.4 71.3001C19 68.7001 19.6 66.0001 20.2 63.4001C20.3 63.0001 20.4 62.8001 20.8 62.9001C21.2 62.9001 21.5 62.9001 21.9 62.9001C22.2 62.9001 22.2 62.9001 22.2 63.2001C21.4 66.5001 20.6 69.7 19.8 73C19.7 73.3 19.6 73.3001 19.4 73.3001C18.8 73.2001 18.3 73.2 17.8 73.2Z" fill="#606062"/>
<path d="M92.7999 62.8C93.6999 62.8 94.5999 62.9 95.4999 63.1C95.6999 63.1 95.7999 63.2 95.7999 63.5C95.7999 63.7 95.6999 64 95.6999 64.2C95.6999 64.5 95.4999 64.6 95.1999 64.6C94.3999 64.5 93.4999 64.4 92.6999 64.4C92.3999 64.4 91.9999 64.4 91.6999 64.5C90.7999 64.8 90.5999 65.7 91.2999 66.3C91.6999 66.7 92.1999 66.9 92.6999 67C93.1999 67.1 93.5999 67.3 93.9999 67.5C95.4999 68.1 96.0999 69.2 95.7999 70.9C95.5999 72.2 94.4999 73.1 93.0999 73.3C91.7999 73.4 90.5999 73.2 89.3999 73C89.1999 73 89.0999 72.8 89.1999 72.7C89.1999 72.4 89.2999 72.1 89.2999 71.8C89.2999 71.5 89.5999 71.6 89.6999 71.6C90.4999 71.7 91.2999 71.8 92.0999 71.8C92.4999 71.8 92.7999 71.8 93.1999 71.7C93.7999 71.5 93.9999 71.1 94.0999 70.5C94.0999 69.9 93.8999 69.6 93.3999 69.3C92.5999 68.9 91.6999 68.7 90.8999 68.4C89.1999 67.7 88.4999 65.8 89.4999 64.2C89.9999 63.3 90.9999 63 91.9999 62.9C92.2999 62.7 92.4999 62.8 92.7999 62.8Z" fill="#606062"/>
<path d="M58.6001 68C58.6001 66.4 58.6001 64.9 58.6001 63.3C58.6001 62.9 58.7001 62.7 59.2001 62.8C59.5001 62.8 59.8001 62.8 60.0001 62.8C60.4001 62.8 60.5001 62.9 60.5001 63.3C60.5001 65.9 60.5001 68.4 60.5001 71C60.5001 71.7 60.5001 71.7 61.2001 71.7C62.2001 71.7 63.2001 71.7 64.2001 71.7C64.5001 71.7 64.6001 71.8 64.6001 72.1C64.6001 73.4 64.6001 73.4 63.4001 73.4C62.0001 73.4 60.7001 73.4 59.3001 73.4C58.9001 73.4 58.7001 73.3 58.7001 72.8C58.6001 71.1 58.6001 69.5 58.6001 68Z" fill="#606062"/>
<path d="M66.1001 68.0001C66.1001 66.4001 66.1001 64.8001 66.1001 63.2001C66.1001 62.9001 66.2001 62.7001 66.5001 62.8001C66.9001 62.8001 67.3001 62.7001 67.6001 62.8001C67.7001 62.8001 67.9001 63.0001 67.9001 63.1001C68.0001 63.4001 67.9001 63.8001 67.9001 64.2001C67.9001 67.1001 67.9001 69.9001 67.9001 72.8001C67.9001 73.2001 67.8001 73.3001 67.4001 73.3001C67.1001 73.3001 66.8001 73.3001 66.5001 73.3001C66.1001 73.3001 66.1001 73.2001 66.1001 72.9001C66.2001 71.2001 66.1001 69.6001 66.1001 68.0001Z" fill="#606062"/>
<path d="M44.8 68C44.8 66.4 44.8 64.8 44.8 63.2C44.8 62.7 44.9001 62.6 45.4001 62.7C45.7001 62.7 46 62.7 46.3 62.7C46.6 62.7 46.7001 62.8 46.7001 63.1C46.7001 64.1 46.7001 65 46.7001 66C46.7001 68.3 46.7001 70.5 46.7001 72.8C46.7001 73.1 46.6 73.3 46.3 73.2C45.9 73.2 45.6001 73.2 45.2001 73.2C44.9001 73.2 44.8 73.1 44.8 72.8C44.8 71.2 44.8 69.6 44.8 68Z" fill="#606062"/>
<path d="M50.4999 31.1C51.7999 31.1 51.7999 33.1 50.4999 33.1C49.1999 33.1 49.1999 31.1 50.4999 31.1Z" fill="#F42C39"/>
<path d="M39.3 30.6999C39.2 29.3999 41.2 29.3999 41.2 30.5999C41.2 31.8999 39.3 31.9999 39.3 30.6999Z" fill="#F42C39"/>
<path d="M66.2999 40.6C66.2999 41.8 64.3999 41.8 64.3999 40.6C64.3999 39.4 66.3999 39.4 66.2999 40.6Z" fill="#F42C39"/>
<path d="M52 29.5C52 28.3 53.8 28.3 53.8 29.5C53.9 30.7 52 30.8 52 29.5Z" fill="#F42C39"/>
<path d="M55.4 53.7999C56.6 53.7999 56.6 55.5999 55.4 55.5999C54.2 55.5999 54.2 53.7999 55.4 53.7999Z" fill="#F42C39"/>
<path d="M34.4 40.3C34.4 41.5 32.5 41.4 32.6 40.2C32.6 39.1 34.5 39.1 34.4 40.3Z" fill="#F42C39"/>
<path d="M60.8 39.2999C60.8 40.4999 59 40.4999 59 39.2999C59 38.0999 60.9 38.0999 60.8 39.2999Z" fill="#F42C39"/>
<path d="M62.5998 35.6C62.5998 36.8 60.7998 36.8 60.7998 35.6C60.7998 34.4 62.5998 34.4 62.5998 35.6Z" fill="#F42C39"/>
<path d="M46.5999 32.6C47.6999 32.6 47.7999 34.4 46.6999 34.4C45.4999 34.4 45.3999 32.6 46.5999 32.6Z" fill="#F42C39"/>
<path d="M38.7 38.6C37.5 38.7 37.5 36.8 38.6 36.8C39.8 36.7 39.9 38.6 38.7 38.6Z" fill="#F42C39"/>
<path d="M60.2999 33.3C60.2999 34.4 58.4999 34.5 58.4999 33.3C58.3999 32.2 60.2999 32.2 60.2999 33.3Z" fill="#F42C39"/>
<path d="M48.5 37.1999C48.5 38.2999 46.7 38.2999 46.7 37.1999C46.7 35.9999 48.5 35.9999 48.5 37.1999Z" fill="#F42C39"/>
<path d="M50.0999 57.2999C50.0999 56.0999 51.8999 56.0999 51.8999 57.2999C51.8999 58.4999 50.0999 58.4999 50.0999 57.2999Z" fill="#F42C39"/>
<path d="M36.3999 38.6C36.3999 39.8 34.5999 39.8 34.5999 38.6C34.5999 37.5 36.3999 37.4 36.3999 38.6Z" fill="#F42C39"/>
<path d="M46.1999 36.1C46.1999 37.3 44.3999 37.2 44.3999 36.1C44.3999 34.9 46.1999 34.9 46.1999 36.1Z" fill="#F42C39"/>
<path d="M40.2 36.6C40.2 35.4 42 35.5 42 36.7C41.9 37.8 40.2 37.8 40.2 36.6Z" fill="#F42C39"/>
<path d="M35.8999 43.8C35.8999 44.9 34.0999 45 34.0999 43.8C34.0999 42.7 35.8999 42.7 35.8999 43.8Z" fill="#F42C39"/>
<path d="M58.9 28.7999C60 28.7999 60.1 30.5999 58.9 30.5999C57.7 30.5999 57.7 28.7999 58.9 28.7999Z" fill="#F42C39"/>
<path d="M63.1 37.7999C64.2 37.7999 64.3 39.5999 63.2 39.5999C62 39.5999 62 37.7999 63.1 37.7999Z" fill="#F42C39"/>
<path d="M39.7999 33.2999C39.8999 32.0999 41.5999 32.2999 41.5999 33.3999C41.4999 34.5999 39.6999 34.3999 39.7999 33.2999Z" fill="#F42C39"/>
<path d="M55.7998 31.6999C54.5998 31.6999 54.6998 29.8999 55.8998 29.8999C56.9998 29.9999 56.9998 31.6999 55.7998 31.6999Z" fill="#F42C39"/>
<path d="M61.2 45.2999C62.3 45.2999 62.4 46.9999 61.2 46.9999C60.1 47.0999 60.1 45.2999 61.2 45.2999Z" fill="#F42C39"/>
<path d="M55.4 35C54.3 35 54.3 33.2 55.4 33.2C56.6 33.2 56.6 35.1 55.4 35Z" fill="#F42C39"/>
<path d="M39.8 47.9C39.8 49 38 49.1 38.1 47.9C38 46.8 39.8 46.8 39.8 47.9Z" fill="#F42C39"/>
<path d="M35.6999 35.2999C35.5999 34.0999 37.4999 34.1999 37.3999 35.2999C37.4999 36.3999 35.6999 36.3999 35.6999 35.2999Z" fill="#F42C39"/>
<path d="M33.9999 37.5999C34.0999 38.7999 32.2999 38.7999 32.2999 37.5999C32.1999 36.4999 33.9999 36.4999 33.9999 37.5999Z" fill="#F42C39"/>
<path d="M62.9 41.1C64.1 41.1 64 42.8 62.9 42.8C61.8 42.8 61.8 41 62.9 41.1Z" fill="#F42C39"/>
<path d="M36.9 32.1999C36.9 30.9999 38.7 31.1999 38.6 32.2999C38.6 33.3999 36.8 33.3999 36.9 32.1999Z" fill="#F42C39"/>
<path d="M45.1999 32.1999C45.1999 33.2999 43.3999 33.2999 43.4999 32.1999C43.3999 31.0999 45.1999 30.9999 45.1999 32.1999Z" fill="#F42C39"/>
<path d="M51.0999 33.8999C52.1999 33.8999 52.2999 35.5999 51.0999 35.5999C49.9999 35.6999 49.9999 33.7999 51.0999 33.8999Z" fill="#F42C39"/>
<path d="M58.6999 35C59.8999 35 59.7999 36.8 58.5999 36.8C57.4999 36.8 57.5999 35 58.6999 35Z" fill="#F42C39"/>
<path d="M60.3 48.5999C60.3 49.6999 58.5 49.6999 58.6 48.5999C58.5 47.4999 60.3 47.4999 60.3 48.5999Z" fill="#F42C39"/>
<path d="M37.6998 44C38.7998 44 38.7998 45.8 37.6998 45.7C36.4998 45.7 36.5998 43.9 37.6998 44Z" fill="#F42C39"/>
<path d="M43.8998 34.6999C43.8998 35.7999 42.0998 35.7999 42.1998 34.6999C42.1998 33.4999 43.9998 33.5999 43.8998 34.6999Z" fill="#F42C39"/>
<path d="M63.0999 31.7999C64.1999 31.7999 64.2999 33.4999 63.0999 33.4999C61.9999 33.5999 61.9999 31.7999 63.0999 31.7999Z" fill="#F42C39"/>
<path d="M37.0999 41.1C38.1999 41.1 38.1999 42.8 37.0999 42.8C35.9999 42.8 35.9999 41.1 37.0999 41.1Z" fill="#F42C39"/>
<path d="M55.7999 51.2999C55.7999 50.1999 57.5999 50.2999 57.4999 51.2999C57.4999 52.4999 55.6999 52.4999 55.7999 51.2999Z" fill="#F42C39"/>
<path d="M64.7999 36.8999C63.6999 36.8999 63.6999 35.0999 64.7999 35.1999C65.9999 35.1999 65.8999 36.8999 64.7999 36.8999Z" fill="#F42C39"/>
<path d="M63.3998 30.0999C63.3998 31.1999 61.5998 31.1999 61.6998 30.0999C61.6998 28.9999 63.4998 28.9999 63.3998 30.0999Z" fill="#F42C39"/>
<path d="M60.8 44.2C59.7 44.2 59.7 42.4 60.9 42.5C62 42.5 61.9 44.2 60.8 44.2Z" fill="#F42C39"/>
<path d="M33.9999 35.1C33.9999 36 32.5999 35.9 32.5999 35.1C32.6999 34.1 34.0999 34.1 33.9999 35.1Z" fill="#F42C39"/>
<path d="M53.1999 57.0999C52.2999 57.0999 52.2999 55.7 53.1999 55.7C54.0999 55.7 54.0999 57.0999 53.1999 57.0999Z" fill="#F42C39"/>
<path d="M63.3 47.9999C63.3 48.8999 61.9 48.7999 62 47.8999C62 47.0999 63.3 47.0999 63.3 47.9999Z" fill="#F42C39"/>
<path d="M43.3 30.4C43.3 31.2 41.9 31.3 42 30.4C41.9 29.5 43.4 29.5 43.3 30.4Z" fill="#F42C39"/>
<path d="M35.3998 33C35.3998 33.8 34.0998 33.7 34.1998 32.9C34.1998 32.1 35.4998 32.2 35.3998 33Z" fill="#F42C39"/>
<path d="M59.3 51.8C59.4 52.7 58.1 52.8 58.1 51.9C58 51.1 59.3 51.1 59.3 51.8Z" fill="#F42C39"/>
<path d="M61.6 28.6999C61.5 29.4999 60.3 29.3999 60.4 28.5999C60.4 27.7999 61.7 27.8999 61.6 28.6999Z" fill="#F42C39"/>
<path d="M49.5 29.7C49.5 29 50.7 28.9 50.7 29.7C50.7 30.6 49.5 30.6 49.5 29.7Z" fill="#F42C39"/>
<path d="M48.2999 58.2C48.9999 58.2 48.9999 59.5 48.1999 59.4C47.3999 59.4 47.3999 58.2 48.2999 58.2Z" fill="#F42C39"/>
<path d="M49.6999 35.8999C50.4999 35.8999 50.4999 37.1999 49.6999 37.0999C48.8999 37.1999 48.8999 35.8999 49.6999 35.8999Z" fill="#F42C39"/>
<path d="M65.2999 32.2999C65.9999 32.2999 65.8999 33.5999 65.1999 33.4999C64.3999 33.4999 64.3999 32.1999 65.2999 32.2999Z" fill="#F42C39"/>
<path d="M56.6 29.3999C55.8 29.3999 55.8 28.0999 56.6 28.1999C57.5 28.1999 57.5 29.3999 56.6 29.3999Z" fill="#F42C39"/>
<path d="M66.6 37.9999C66.6 38.6999 65.3 38.6999 65.4 37.8999C65.4 36.9999 66.6 37.0999 66.6 37.9999Z" fill="#F42C39"/>
<path d="M54.7 28.4C53.9 28.4 53.9 27.2 54.6 27.2C55.5 27.2 55.6 28.4 54.7 28.4Z" fill="#F42C39"/>
<path d="M61.3 31.6C61.3 32.5 60 32.4 60.1 31.6C60.1 30.8 61.3 30.9 61.3 31.6Z" fill="#F42C39"/>
<path d="M41.3 49.2C41.4 50 40.1 50 40.1 49.2C40 48.4 41.3 48.4 41.3 49.2Z" fill="#F42C39"/>
<path d="M63.9998 46.2C63.9998 47 62.7998 47 62.7998 46.2C62.7998 45.4 63.9998 45.4 63.9998 46.2Z" fill="#F42C39"/>
<path d="M37.6 40.3C36.9 40.3 36.8 39.1 37.6 39.1C38.4 39.1 38.5 40.3 37.6 40.3Z" fill="#F42C39"/>
<path d="M53.9 32C54.3 32.6 53.5 33.4 53 32.7C52.5 32.1 53.5 31.4 53.9 32Z" fill="#F42C39"/>
<path d="M57.6 27.9C56.8 27.9 56.8 26.7 57.6 26.7C58.4 26.7 58.3 27.9 57.6 27.9Z" fill="#F42C39"/>
<path d="M49.4999 34.6C49.4999 35.4 48.1999 35.3 48.2999 34.5C48.2999 33.8 49.4999 33.9 49.4999 34.6Z" fill="#F42C39"/>
<path d="M63.9999 45.0999C63.2999 45.0999 63.2999 43.8999 63.9999 43.9999C64.7999 43.8999 64.8999 45.0999 63.9999 45.0999Z" fill="#F42C39"/>
<path d="M39.5998 34.5999C40.3998 34.6999 40.1998 35.8999 39.4998 35.6999C38.6998 35.6999 38.7998 34.4999 39.5998 34.5999Z" fill="#F42C39"/>
<path d="M42.2 50.7C42.2 49.9 43.3999 50 43.2999 50.7C43.3999 51.4 42.2 51.4 42.2 50.7Z" fill="#F42C39"/>
<path d="M60.6999 50.2C61.3999 50.2 61.3999 51.4 60.6999 51.4C59.8999 51.4 59.8999 50.2 60.6999 50.2Z" fill="#F42C39"/>
<path d="M36.4 45.7999C37 45.8999 37.1 46.8999 36.4 46.8999C35.7 46.8999 35.7 45.8999 36.4 45.7999Z" fill="#F42C39"/>
<path d="M53.7998 35.9C53.7998 36.5 52.7999 36.5 52.8999 35.9C52.7999 35.3 53.7998 35.3 53.7998 35.9Z" fill="#F42C39"/>
<path d="M57.6999 31.4C58.2999 31.4 58.1999 32.3 57.5999 32.3C57.0999 32.3 57.0999 31.3 57.6999 31.4Z" fill="#F42C39"/>
<path d="M47.7998 39.1999C47.8998 38.4999 48.9998 38.5999 48.6998 39.3999C48.3998 39.7999 47.7998 39.6999 47.7998 39.1999Z" fill="#F42C39"/>
<path d="M60.3999 37C60.9999 36.8 61.3999 37.6 60.7999 37.8C60.1999 38.1 59.8999 37.3 60.3999 37Z" fill="#F42C39"/>
<path d="M44.1 37C44.6 37.4 43.9 38.2 43.5 37.6C43.2 37.2 43.7 36.8 44.1 37Z" fill="#F42C39"/>
<path d="M60.7 41.4C60.7 42 59.7 42 59.8 41.4C59.8 40.7 60.8 40.8 60.7 41.4Z" fill="#F42C39"/>
<path d="M48.2 31.4C47.9 30.9 48.7 30.4 49 30.9C49.3 31.4 48.5 31.9 48.2 31.4Z" fill="#F42C39"/>
<path d="M53.7 33.9999C53.7 34.4999 52.9 34.5999 52.8 34.0999C52.7 33.4999 53.7 33.3999 53.7 33.9999Z" fill="#F42C39"/>
<path d="M54.2999 53.2C53.9999 52.7 54.3999 52.3 54.8999 52.5C55.3999 52.9 54.7999 53.6 54.2999 53.2Z" fill="#F42C39"/>
<path d="M58.4999 38.1999C57.8999 38.2999 57.7999 37.3999 58.3999 37.2999C58.9999 37.2999 58.9999 38.1999 58.4999 38.1999Z" fill="#F42C39"/>
<path d="M34.9 41.8999C34.9 42.4999 34 42.4999 34 41.8999C34.1 41.3999 34.9 41.3999 34.9 41.8999Z" fill="#F42C39"/>
<path d="M57.7 53.1C58.1 53.3 58.1 53.6 57.8 53.9C57.2 54.3 57 53.2 57.7 53.1Z" fill="#F42C39"/>
<path d="M59.3998 28.0999C58.8998 28.2999 58.4998 27.5999 58.9998 27.2999C59.4998 26.9999 59.8998 27.7999 59.3998 28.0999Z" fill="#F42C39"/>
<path d="M59.1 44.9C59.5 44.5 60.1 45 59.8 45.4C59.5 45.9 58.8 45.3 59.1 44.9Z" fill="#F42C39"/>
<path d="M46.9999 35.6C46.4999 35.1 47.1999 34.5 47.5999 35C47.8999 35.4 47.3999 35.8 46.9999 35.6Z" fill="#F42C39"/>
<path d="M45.7 59.9C45.8 59.4 46.5 59.4 46.5 60C46.5 60.5 45.7 60.5 45.7 59.9Z" fill="#F42C39"/>
<path d="M57.4998 36.7C58.0998 37.3 56.7998 37.8 56.7998 36.9C56.9998 36.6 57.1998 36.5 57.4998 36.7Z" fill="#F42C39"/>
<path d="M36.5 31.7C36.5 32.2 35.8 32.3 35.7 31.8C35.6 31.2 36.4 31.1 36.5 31.7Z" fill="#F42C39"/>
<path d="M39.2999 40.3999C39.2999 40.8999 38.3999 40.8999 38.4999 40.3999C38.4999 39.8999 39.2999 39.8999 39.2999 40.3999Z" fill="#F42C39"/>
<path d="M37.3999 30.4C37.0999 30 37.6999 29.5 37.9999 30C38.2999 30.4 37.6999 30.8 37.3999 30.4Z" fill="#F42C39"/>
<path d="M40.2999 39.4C39.8999 39.6 39.3999 39.1 39.8999 38.7C40.1999 38.4 40.6999 39.1 40.2999 39.4Z" fill="#F42C39"/>
<path d="M66.3998 34.7999C65.8998 35.0999 65.4998 34.4999 65.8998 34.1999C66.2998 33.8999 66.6998 34.3999 66.3998 34.7999Z" fill="#F42C39"/>
<path d="M34.7998 36.6C34.5998 36.2 35.0998 35.8 35.3998 36.1C35.7998 36.5 35.0998 36.9 34.7998 36.6Z" fill="#F42C39"/>
<path d="M48.4 32.2C48.9 32.8 47.9 33.3 47.7 32.5C47.9 32.1 48.1 32 48.4 32.2Z" fill="#F42C39"/>
<path d="M57.2998 35.7999C57.1998 36.4999 56.1998 36.0999 56.5998 35.4999C56.9998 35.1999 57.1998 35.2999 57.2998 35.7999Z" fill="#F42C39"/>
<path d="M57 49.7999C57 49.2999 57.8 49.2999 57.8 49.7999C57.8 50.2999 57.1 50.2999 57 49.7999Z" fill="#F42C39"/>
<path d="M38.4999 34.2999C38.0999 34.3999 37.8999 33.9999 38.0999 33.6999C38.5999 33.1999 39.1999 34.0999 38.4999 34.2999Z" fill="#F42C39"/>
<path d="M59.5999 47.1999C59.0999 47.1999 58.9999 46.4999 59.4999 46.3999C59.9999 46.3999 60.0999 47.1999 59.5999 47.1999Z" fill="#F42C39"/>
<path d="M62.2998 44.9C61.7998 44.9 61.6998 44.2 62.1998 44.1C62.7998 44.1 62.7998 44.9 62.2998 44.9Z" fill="#F42C39"/>
<path d="M55.2 29.5C54.7 29.5 54.7 28.7 55.2 28.7C55.7 28.7 55.7 29.5 55.2 29.5Z" fill="#F42C39"/>
<path d="M44.7998 34.3999C44.2998 34.3999 44.1998 33.6999 44.6998 33.5999C45.1998 33.4999 45.2998 34.2999 44.7998 34.3999Z" fill="#F42C39"/>
<path d="M44.4999 61.1999C44.0999 61.5999 43.5999 61.0999 43.8999 60.6999C44.2999 60.2999 44.7999 60.7999 44.4999 61.1999Z" fill="#F42C39"/>
<path d="M51.9 55.9999C51.5 55.8999 51.4 55.4999 51.6 55.2999C52.2 54.8999 52.6 55.7999 51.9 55.9999Z" fill="#F42C39"/>
<path d="M42.7999 32.8C42.1999 33.1 41.8999 32.3 42.4999 32.1C42.8999 32.3 42.9999 32.5 42.7999 32.8Z" fill="#F42C39"/>
<path d="M57.2 33.2C57.3 32.7 58 32.7 58 33.2C57.9 33.7 57.2 33.7 57.2 33.2Z" fill="#F42C39"/>
<path d="M65.6999 43.2C65.6999 43.7 64.8999 43.6 64.8999 43.1C64.8999 42.6 65.6999 42.7 65.6999 43.2Z" fill="#F42C39"/>
<path d="M46.1 31C46.4 31.4 45.9 31.8 45.5 31.5C45.2 31.1 45.8 30.6 46.1 31Z" fill="#F42C39"/>
<path d="M53.5 54.3999C54 54.3999 54 55.1999 53.5 55.1999C53.1 55.0999 53.1 54.3999 53.5 54.3999Z" fill="#F42C39"/>
<path d="M61.3999 41.1999C60.8999 41.1999 60.8999 40.3999 61.3999 40.3999C61.8999 40.3999 61.8999 41.1999 61.3999 41.1999Z" fill="#F42C39"/>
<path d="M64.3999 42.4C63.8999 42.4 63.8999 41.6 64.3999 41.6C64.8999 41.6 64.8999 42.4 64.3999 42.4Z" fill="#F42C39"/>
<path d="M52.5 36.2999C52.4 36.7999 51.7 36.6999 51.8 36.1999C51.8 35.6999 52.5 35.7999 52.5 36.2999Z" fill="#F42C39"/>
<path d="M45.8999 37.6C46.3999 37.6 46.3999 38.3 45.8999 38.3C45.4999 38.3 45.4999 37.6 45.8999 37.6Z" fill="#F42C39"/>
<path d="M63.3998 34.5C63.8998 34.6 63.7998 35.3 63.2998 35.2C62.8998 35.1 62.9998 34.5 63.3998 34.5Z" fill="#F42C39"/>
<path d="M44.5 30.3C44.5 29.9 45.1 29.8 45.2 30.2C45.2 30.7 44.5 30.7 44.5 30.3Z" fill="#F42C39"/>
<path d="M61.1998 34.1999C60.6998 34.2999 60.4998 33.5999 60.9998 33.4999C61.4998 33.3999 61.5998 33.9999 61.1998 34.1999Z" fill="#F42C39"/>
<path d="M58.5998 47.2999C58.3998 47.6999 57.7998 47.4999 57.8998 47.0999C58.0998 46.5999 58.6998 46.8999 58.5998 47.2999Z" fill="#F42C39"/>
<path d="M60.7 48.8C60.8 48.5 60.9999 48.5 61.2999 48.6C61.7999 49.1 60.8 49.5 60.7 48.8Z" fill="#F42C39"/>
<path d="M51.7 27.9C51.8 27.5 52.3 27.5 52.4 27.9C52.4 28.4 51.7 28.4 51.7 27.9Z" fill="#F42C39"/>
<path d="M53.2998 27.5C53.2998 27.9 52.7998 28 52.5998 27.7C52.4998 27.2 53.1998 27.1 53.2998 27.5Z" fill="#F42C39"/>
<path d="M59.6998 50.7C59.3998 50.9 58.9998 50.6 59.1998 50.2C59.4998 49.9 59.9998 50.3 59.6998 50.7Z" fill="#F42C39"/>
<path d="M34.6999 34.1C35.0999 34.1 35.0999 34.7 34.6999 34.8C34.2999 34.8 34.1999 34.1 34.6999 34.1Z" fill="#F42C39"/>
<path d="M51.9999 30.7999C52.4999 30.8999 52.4999 31.4999 51.9999 31.4999C51.6999 31.3999 51.6999 30.8999 51.9999 30.7999Z" fill="#F42C39"/>
<path d="M62.6 49.3999C62.4 49.6999 62.2 49.6999 62 49.4999C61.7 48.9999 62.5 48.7999 62.6 49.3999Z" fill="#F42C39"/>
<path d="M49.6 58.2C50.1 58.2 50.1 58.7999 49.6 58.7999C49.3 58.7999 49.2 58.3 49.6 58.2Z" fill="#F42C39"/>
<path d="M58.2 49.7C58.4 49.8 58.6 49.7999 58.7 50.0999C58.5 50.6999 57.8 50.1 58.2 49.7Z" fill="#F42C39"/>
<path d="M35.4999 40.2C35.6999 40.5 35.2999 40.9 34.9999 40.6C34.7999 40.3 35.1999 39.9 35.4999 40.2Z" fill="#F42C39"/>
<path d="M64.3 31.4999C64.4657 31.4999 64.6 31.3656 64.6 31.1999C64.6 31.0342 64.4657 30.8999 64.3 30.8999C64.1343 30.8999 64 31.0342 64 31.1999C64 31.3656 64.1343 31.4999 64.3 31.4999Z" fill="#F42C39"/>
<path d="M64.8 39.1C64.9657 39.1 65.1 38.9657 65.1 38.8C65.1 38.6343 64.9657 38.5 64.8 38.5C64.6343 38.5 64.5 38.6343 64.5 38.8C64.5 38.9657 64.6343 39.1 64.8 39.1Z" fill="#F42C39"/>
<path d="M64.6999 34.7C64.8656 34.7 64.9999 34.5657 64.9999 34.4C64.9999 34.2343 64.8656 34.1 64.6999 34.1C64.5342 34.1 64.3999 34.2343 64.3999 34.4C64.3999 34.5657 64.5342 34.7 64.6999 34.7Z" fill="#F42C39"/>
</svg>
