<svg width="100" height="100" viewBox="0 0 100 100" fill="none" xmlns="http://www.w3.org/2000/svg">
<path d="M29.7887 55.249C29.5699 54.5216 29.515 53.7544 29.628 53.0031C29.6969 51.8917 29.8461 50.7803 29.9781 49.6689C30.0033 49.3679 30.061 49.0705 30.1502 48.782C30.188 48.6539 30.253 48.5354 30.3407 48.4347C30.4283 48.3341 30.5367 48.2537 30.6582 48.199C30.7798 48.1443 30.9117 48.1166 31.0449 48.1178C31.1782 48.1191 31.3095 48.1492 31.4301 48.2062C31.8892 48.4365 32.0556 48.1256 32.1532 47.8434C32.3767 47.3059 32.5571 46.7513 32.6927 46.1849C32.7501 45.8509 32.8361 45.609 33.3412 45.7703C34.3685 46.0582 35.2408 45.5169 36.0328 44.9583C37.261 44.0648 38.3466 42.989 39.2525 41.768C40.4003 40.2938 41.617 38.8887 42.8222 37.4491C44.1536 35.8827 45.5138 34.3394 46.983 32.9055C49.3847 30.465 52.1615 28.4274 55.2071 26.8705C57.1493 25.8985 59.2099 25.186 61.3365 24.7513C61.8254 24.6801 62.3178 24.6359 62.8115 24.6188C62.2547 24.9286 61.6421 25.1243 61.0094 25.1947C59.0743 25.721 57.2148 26.4952 55.4769 27.4982C53.3417 28.7579 51.4071 30.3322 49.7378 32.1684C48.3068 33.7362 47.0018 35.4153 45.8352 37.1899C43.9872 39.9713 42.2999 42.8391 40.5093 45.6436C39.5337 47.1408 38.5351 48.6669 37.0085 49.7149C36.4346 50.1181 36.4001 50.1353 36.1591 49.4961C35.7057 48.2926 34.6267 48.0853 33.5134 49.0182C32.2971 50.0838 31.3442 51.4184 30.7299 52.9167C30.3626 53.6654 30.0642 54.4428 29.7887 55.249Z" fill="#F0680C"/>
<path d="M73.5265 8.21252C73.8651 8.535 73.5667 8.82869 73.5724 9.11662C73.6633 10.9533 73.5458 12.7945 73.2223 14.6046C72.9256 16.0359 72.1937 17.3397 71.1275 18.3362C70.0595 19.4365 68.8628 20.4033 67.5636 21.2155C66.1088 21.9827 64.5897 22.6205 63.0239 23.1216C61.3481 23.6974 59.6321 24.1812 58.0022 24.9068C57.8989 24.9586 57.7784 25.1659 57.6521 24.9759C57.5259 24.7858 57.7153 24.6822 57.853 24.6015C59.5747 23.6111 61.1759 22.3787 62.8288 21.25C66.0312 19.0617 68.9754 16.5855 71.1333 13.3031C72.0971 11.9612 72.8054 10.452 73.2223 8.85172C73.3024 8.62909 73.4043 8.41498 73.5265 8.21252Z" fill="#F0680C"/>
<path d="M65.6465 23.4958C72.0054 20.5474 77.3714 16.4472 81.4003 10.6656C80.5337 13.4585 79.8507 16.3091 78.3528 18.8544C77.1132 20.9678 75.2193 22.0676 72.8949 22.655C70.6666 23.1454 68.3974 23.4251 66.1171 23.4901C65.9621 23.5016 65.8072 23.4958 65.6465 23.4958Z" fill="#F0680C"/>
<path d="M53.801 36.9538C54.5443 36.8676 55.2963 37.0081 55.9589 37.3569C58.1808 38.3715 60.2812 39.635 62.2202 41.1231C63.7879 42.2542 65.534 43.1127 67.3854 43.6626C68.9808 44.1696 70.642 44.4373 72.3153 44.4573C72.4416 44.4573 72.6252 44.3709 72.6769 44.561C72.6769 44.6301 72.608 44.751 72.5334 44.8086C71.6381 45.5342 70.7772 46.3519 69.6294 46.6629C68.4538 46.9814 67.2099 46.9373 66.0597 46.5362C64.2741 45.8609 62.6395 44.8372 61.2503 43.5244C59.586 42.0502 58.0996 40.386 56.4295 38.9175C55.781 38.2924 55.0604 37.7472 54.2831 37.2936C54.1165 37.1889 53.9556 37.0755 53.801 36.9538Z" fill="#F0680C"/>
<path d="M78.4563 35.8538C77.9914 36.3951 77.538 36.948 77.0445 37.4662C76.7119 37.8754 76.3258 38.2376 75.8966 38.5431C74.525 39.3379 73.1304 39.2572 71.6612 38.8022C68.9696 37.9615 66.6108 36.4988 64.2004 35.0994C62.1802 33.9477 60.183 32.7096 57.83 32.2201C57.83 32.2201 57.7898 32.151 57.7439 32.0646C58.0015 31.9642 58.283 31.9421 58.5531 32.0013C60.8275 32.1539 63.0748 32.5851 65.2449 33.2855C67.2249 33.9535 69.1073 34.8806 71.1102 35.4853C72.5058 35.9314 73.9521 36.1985 75.4146 36.2801C76.4435 36.284 77.4678 36.1404 78.4563 35.8538Z" fill="#F0680C"/>
<path d="M55.6086 34.6101C56.4523 34.5525 57.0032 34.9498 57.6059 35.1226C58.8283 35.4739 59.9876 36.0324 61.2043 36.378C63.6204 37.0632 65.9562 38.0019 68.3667 38.6814C69.3795 38.9677 70.3758 39.3099 71.351 39.7064C72.4754 40.1625 73.6874 40.3593 74.8978 40.2823C75.0527 40.2823 75.2651 40.2132 75.3397 40.3975C75.4143 40.5818 75.2765 40.7315 75.1503 40.8582C74.0824 42.0301 72.6575 42.8139 71.0985 43.0868C70.1515 43.2307 69.2792 42.8046 68.4413 42.4245C66.1902 41.3276 64.072 39.975 62.1283 38.3935C60.1262 36.8564 57.9349 35.5847 55.6086 34.6101Z" fill="#F0680C"/>
<path d="M34.6379 65.3669L36.7384 66.5186C38.6179 67.507 40.5645 68.3614 42.5636 69.0755C45.129 70.0602 47.7288 71.0161 50.2999 71.9145C52.3231 72.5852 54.252 73.5142 56.039 74.6786C57.8543 75.8807 59.4992 77.3239 60.9287 78.9688C62.5357 80.7789 63.8874 82.8018 64.9461 84.9808C65.5058 86.1684 65.9702 87.3989 66.3349 88.6606C66.3608 88.8514 66.3723 89.0439 66.3694 89.2364C66.0281 88.5689 65.7439 87.8734 65.52 87.1576C64.5281 84.7724 63.1363 82.5754 61.4051 80.6618C59.8149 78.9451 57.9979 77.4551 56.0046 76.2334C54.4462 75.2565 52.7703 74.4825 51.0173 73.93C49.0763 73.2895 47.1735 72.5377 45.3184 71.6784C43.3154 70.803 41.3699 69.8241 39.4645 68.799C38.2363 68.1195 37.0885 67.296 35.9177 66.4956C35.405 66.2309 34.9654 65.8431 34.6379 65.3669Z" fill="#F0680C"/>
<path d="M62.3178 94.6668C62.0635 94.349 61.9293 93.9513 61.939 93.5439C61.6951 92.1484 61.2906 90.786 60.7338 89.484C59.9572 87.6317 58.9423 85.8893 57.715 84.3013C55.2506 81.182 52.1103 78.6671 48.5325 76.9475C46.397 75.8144 44.3397 74.5389 42.3744 73.1295C40.8541 72.1131 39.3922 71.0114 37.9955 69.8298C36.8114 68.9276 35.74 67.8855 34.8045 66.7259C34.764 66.654 34.7295 66.5789 34.7012 66.5013C35.6998 67.1981 36.5263 67.9525 37.456 68.5802C38.9769 69.6052 40.5379 70.5497 42.1219 71.4595C45.2038 73.1871 48.3488 74.8341 51.3676 76.6423C53.1384 77.7563 54.726 79.1395 56.0736 80.7424C57.6734 82.5687 59.0244 84.6 60.091 86.7832C60.979 88.6524 61.664 90.612 62.1341 92.6282C62.2446 93.3024 62.306 93.9837 62.3178 94.6668Z" fill="#F0680C"/>
<path d="M81.0559 31.2125C79.7876 32.1166 78.7603 33.1761 77.555 34.0112C76.8994 34.463 76.1486 34.7569 75.3611 34.8697C74.5737 34.9826 73.7709 34.9115 73.0154 34.6619C70.9462 34.0298 68.9449 33.1926 67.041 32.1626C65.6344 31.3526 64.1191 30.7494 62.5416 30.3717C62.4612 30.3717 62.3923 30.2968 62.3177 30.2796C62.2431 30.2623 62.0193 30.1989 62.0595 30.0147C62.0996 29.8304 62.2603 29.911 62.3694 29.9052C63.321 29.922 64.2695 30.0203 65.2045 30.1989C66.6852 30.3659 68.1429 30.6827 69.6121 30.8957C70.3123 30.9936 71.0067 31.1261 71.7012 31.2643C72.694 31.4601 73.7098 31.4543 74.7142 31.6098C76.5015 31.8866 78.3251 31.8162 80.086 31.4025C80.3729 31.3334 80.591 31.0339 81.0559 31.2125Z" fill="#F0680C"/>
<path d="M83.9999 18.578C83.7931 19.1677 83.5516 19.7446 83.2768 20.3056C82.8234 21.417 82.3356 22.5112 81.7904 23.5765C81.4537 24.2942 80.9658 24.9299 80.3603 25.44C79.7549 25.95 79.0464 26.3221 78.2838 26.5307C77.229 26.781 76.1364 26.8279 75.0641 26.6689C73.6868 26.4904 72.3151 26.2543 70.9377 26.093C68.9693 25.8304 66.9885 25.6708 65.0035 25.6151C64.9305 25.6179 64.858 25.6013 64.7935 25.5669C64.729 25.5325 64.6747 25.4816 64.6362 25.4193C65.0551 25.0853 65.5774 25.235 66.0365 25.1429C68.8978 24.647 71.7935 24.3774 74.6968 24.3367C76.9006 24.2445 78.7142 23.2368 80.3958 21.8892C81.6557 20.8514 82.8588 19.746 83.9999 18.578Z" fill="#F0680C"/>
<path d="M40.0903 57.3048C39.6083 56.5504 39.1377 55.7845 38.6269 55.0474C38.1702 54.2528 37.5888 53.5372 36.9051 52.9283C36.7158 52.7843 36.4977 52.5655 36.2165 52.8189C35.9352 53.0722 36.0558 53.2565 36.0845 53.5329C36.2452 54.9611 37.1003 56.1358 37.4331 57.5006C37.5788 57.9318 37.6316 58.3892 37.5881 58.8424C37.2616 58.3906 37.0239 57.8805 36.8879 57.3394C36.314 55.9976 35.7745 54.6271 34.7128 53.5675C34.6481 53.5039 34.5993 53.426 34.5704 53.3399C34.5415 53.2538 34.5332 53.1621 34.5464 53.0722C34.5707 52.9513 34.569 52.8266 34.5413 52.7064C34.5136 52.5862 34.4605 52.4733 34.3857 52.3754C34.1676 52.6346 33.4502 56.6138 33.4445 57.6849C33.4445 59.5334 34.2078 61.2207 34.5005 63.0289C33.8175 62.0211 33.1346 61.0134 32.4688 59.9941C32.3535 59.7543 32.3059 59.4875 32.3311 59.2225C32.3193 57.7326 32.4056 56.2437 32.5893 54.7653C32.5893 54.5983 32.7328 54.3679 32.4688 54.3046C32.2048 54.2412 32.1589 54.4946 32.1073 54.6443C31.8526 55.4296 31.6852 56.2408 31.608 57.063C31.5333 57.9383 31.5506 58.8251 31.4817 59.7004C31.4473 60.0862 31.7514 60.4375 31.4817 60.9097C31.0753 60.447 30.7789 59.8976 30.6151 59.3031C30.1994 58.1477 30.2096 56.8812 30.6438 55.7327C31.176 53.8398 32.1793 52.1138 33.5593 50.717C33.8244 50.4689 34.1341 50.2735 34.4718 50.1411C35.017 49.9223 35.3097 50.1411 35.4876 50.8149C35.7172 51.6671 35.7172 51.6671 36.5493 51.3907C37.3815 51.1143 37.3643 51.1085 37.7603 51.9666C38.4375 53.4523 39.1606 54.915 39.8608 56.3892C40.0385 56.6595 40.1195 56.9823 40.0903 57.3048Z" fill="#F0680C"/>
<path d="M60.9233 57.4488C60.3529 57.4814 59.7819 57.3961 59.2458 57.1979C58.7097 56.9998 58.2199 56.6932 57.8069 56.2971C55.7006 54.4872 53.8644 52.383 52.3548 50.0489C51.3107 48.4069 50.0758 46.8952 48.676 45.5457C48.5527 45.4373 48.4376 45.3199 48.3317 45.1944C48.3094 45.1739 48.2916 45.149 48.2795 45.1212C48.2673 45.0935 48.261 45.0635 48.261 45.0332C48.261 45.0029 48.2673 44.9729 48.2795 44.9451C48.2916 44.9174 48.3094 44.8924 48.3317 44.8719C48.3755 44.8505 48.4236 44.8394 48.4723 44.8394C48.521 44.8394 48.5691 44.8505 48.6129 44.8719C49.6746 45.8394 50.9085 46.5995 51.9588 47.5497C53.9847 49.4443 55.8155 51.5807 58.1111 53.1471C59.7995 54.4067 61.7702 55.2313 63.8502 55.5484C64.0052 55.5484 64.1601 55.5945 64.2175 55.7212C64.2749 55.8479 64.0626 55.917 63.9765 56.0034C63.1282 56.7844 62.0635 57.2885 60.9233 57.4488Z" fill="#F0680C"/>
<path d="M70.1803 48.5229C69.8532 48.8742 69.4285 48.8799 69.0784 49.0469C68.2004 49.4731 67.2993 49.8359 66.427 50.2735C65.5546 50.7112 64.6077 50.4866 63.7526 50.1468C61.17 49.0988 59.1326 47.3712 57.2674 45.3038C55.5456 43.415 53.9444 41.3937 51.8956 39.8274C51.8669 39.8274 51.8956 39.7525 51.8611 39.7122C52.0505 39.5337 52.2112 39.7122 52.3375 39.7871C53.3646 40.4748 54.4321 41.0998 55.5342 41.6586C56.6177 42.3162 57.6278 43.0884 58.5472 43.9621C60.0834 45.3317 61.8269 46.4474 63.7124 47.2675C65.5568 48.0939 67.5647 48.4878 69.5835 48.4192C69.7268 48.4106 69.8706 48.4106 70.0139 48.4192C70.0311 48.4135 70.0656 48.448 70.1803 48.5229Z" fill="#F0680C"/>
<path d="M46.2484 47.0199L47.7233 48.1716C49.9731 49.9511 51.7407 52.1681 53.5944 54.3564C55.1986 56.4121 57.2954 58.0267 59.6894 59.0497C60.0222 59.1764 60.3781 59.2512 60.7224 59.3549C60.8372 59.3895 61.0266 59.28 61.0438 59.5219C61.0489 59.5938 61.0311 59.6655 60.9929 59.7266C60.9547 59.7876 60.8982 59.835 60.8314 59.8617C60.2445 60.2413 59.6042 60.5305 58.9318 60.7197C56.8772 61.1631 55.4482 60.259 54.1454 58.7387C52.4237 56.7002 51.184 54.3679 49.8411 52.0817C48.8716 50.4315 47.7329 48.8875 46.4435 47.4748C46.3574 47.3712 46.1795 47.3021 46.2484 47.0199Z" fill="#F0680C"/>
<path d="M63.1843 28.0107C63.2065 27.9438 63.2514 27.887 63.3112 27.8501C63.3711 27.8132 63.4419 27.7987 63.5114 27.8091C65.9952 27.6523 68.4853 27.6216 70.9722 27.717C72.694 27.8034 74.4673 27.9819 76.2235 27.9358C78.3341 27.9011 80.3978 27.305 82.2036 26.2082C82.3414 26.1218 82.4619 25.9836 82.6857 26.1333C82.1692 26.8474 81.6642 27.5615 81.1304 28.2583C80.769 28.7887 80.366 29.2894 79.9252 29.7555C78.9381 30.7057 77.7157 30.5387 76.5334 30.4408C75.1635 30.3441 73.8008 30.1633 72.4529 29.8995C71.3051 29.6691 70.2491 29.3236 69.1529 29.0587C67.5261 28.5507 65.8436 28.2432 64.1427 28.1431C63.8205 28.1219 63.5002 28.0777 63.1843 28.0107Z" fill="#F0680C"/>
<path d="M50.0935 42.0848C50.7478 42.557 51.3848 43.0637 52.0677 43.4956C53.4454 44.419 54.7277 45.4781 55.8957 46.6571C56.7958 47.5604 57.7775 48.3778 58.8284 49.0988C60.5099 50.2141 62.3555 51.0574 64.2978 51.598C64.9617 51.8069 65.6384 51.9724 66.3237 52.0933C66.691 52.1508 66.8517 52.2948 66.5073 52.6691C65.74 53.5052 64.7037 54.0434 63.5804 54.1894C62.4958 54.2414 61.4311 53.8839 60.596 53.1874C58.6132 51.669 56.8379 49.8955 55.3161 47.9125C54.1683 46.5304 52.9917 45.1887 51.775 43.8815C51.2011 43.3056 50.5584 42.7873 49.9443 42.2402L50.0935 42.0848Z" fill="#F0680C"/>
<path d="M57.9791 62.5222C56.6017 63.4379 55.3219 64.1174 53.7608 63.4379C53.0779 63.0735 52.4885 62.555 52.0391 61.9233C50.1897 59.5867 48.6733 57.0032 47.5338 54.2471C46.6632 52.3202 45.4562 50.565 43.9698 49.0643C43.8943 49.0038 43.8353 48.925 43.7982 48.8354C43.761 48.7458 43.7471 48.6483 43.7576 48.5518C44.3659 49.1277 44.9053 49.5653 45.4218 50.0721C47.6658 52.3007 49.3589 54.9669 51.2701 57.4662C52.7465 59.4749 54.6942 61.087 56.9403 62.1594C57.233 62.2919 57.5429 62.3725 57.9791 62.5222Z" fill="#F0680C"/>
<path d="M39.8435 23.6744C40.3494 23.4236 40.9036 23.2861 41.4677 23.2713C42.6958 23.1273 43.9412 23.1158 45.1694 22.9949C47.2125 22.7933 49.2786 22.8855 51.3045 22.5112C53.0219 22.275 54.7019 21.8183 56.3032 21.1521C56.7566 20.9448 57.2158 20.7548 57.6519 20.5129C58.0881 20.2711 58.1857 20.3862 58.2258 20.7836C58.2905 21.5161 58.2421 22.2542 58.0824 22.9719C58.0265 23.2722 57.8825 23.5489 57.6688 23.7664C57.455 23.984 57.1814 24.1324 56.8829 24.1927C55.82 24.4415 54.7318 24.5652 53.6403 24.5612C51.2414 24.5612 48.8539 24.2388 46.4607 24.0718C44.5955 23.9393 42.7188 23.9451 40.8536 23.7781C40.5092 23.7608 40.1993 23.9623 39.8435 23.6744Z" fill="#F0680C"/>
<path d="M26.4369 42.0905C26.9018 42.4188 26.9075 43.0004 27.2117 43.4092C27.5206 43.8782 27.7802 44.3781 27.9865 44.9007C28.0668 45.0677 28.1013 45.3096 28.3079 45.2866C28.4077 45.2607 28.4945 45.1988 28.5516 45.1127C28.6088 45.0267 28.6324 44.9225 28.6178 44.8201C28.6512 44.3146 28.7555 43.8164 28.9277 43.3401C28.9564 43.225 28.9277 42.9774 29.163 42.9774C29.3983 42.9774 29.4155 43.2192 29.4614 43.3632C29.5074 43.5071 29.4614 43.8354 29.7484 43.8124C30.0354 43.7893 29.932 43.4726 29.978 43.271C30.1846 42.2863 29.4959 41.7796 28.9047 41.2325C28.6006 40.9503 28.5834 41.2786 28.4628 41.4571C28.3423 41.6356 28.4628 42.2518 28.0554 42.1999C27.7282 42.1539 27.9922 41.6759 27.9004 41.3995C27.7951 41.1377 27.6249 40.9071 27.406 40.7298C27.187 40.5524 26.9266 40.4341 26.6493 40.386C26.3218 40.3601 25.9939 40.4288 25.704 40.5839C25.4142 40.739 25.1747 40.974 25.0136 41.2613C24.7548 41.8623 24.4457 42.4402 24.0896 42.9889C23.9863 43.1386 23.9117 43.3114 23.6936 43.3229C23.3723 41.4456 24.6004 39.7525 26.6608 39.2918C27.3318 39.1276 28.0363 39.1669 28.685 39.4047C29.3338 39.6426 29.8976 40.0682 30.3051 40.6278C31.2922 41.7796 31.4529 43.2998 32.0785 44.8259C31.3611 44.3709 31.1774 44.5552 31.0799 45.1714C30.9421 46.0121 30.6609 46.8241 30.4084 47.7628C30.2421 47.4167 30.1465 47.0408 30.1272 46.6571C30.1272 46.5074 30.1272 46.3404 29.9493 46.3116C29.7714 46.2828 29.6967 46.4901 29.6508 46.6226C29.4213 47.2618 29.2319 47.9183 28.9966 48.5517C28.9507 48.6784 28.9507 48.903 28.7268 48.9145C28.503 48.926 28.5088 48.6957 28.4399 48.5747C27.9004 47.6418 27.3954 46.6859 26.8559 45.7473C26.4484 45.0332 26.1213 44.3421 26.5115 43.4899C26.6722 43.058 26.2648 42.5915 26.4369 42.0905Z" fill="#F0680C"/>
<path d="M52.7448 64.123C51.5281 64.3131 50.3917 64.4685 49.2611 63.9388C48.1406 63.4055 47.234 62.5059 46.69 61.3877C45.8919 59.673 45.1924 57.9137 44.5952 56.1185C44.0855 54.5541 43.3383 53.0778 42.3799 51.742C42.3243 51.645 42.2782 51.5427 42.2422 51.4368C42.7415 51.4368 42.885 51.8802 43.1088 52.122C44.3519 53.4026 45.4088 54.8527 46.2481 56.4295C46.7474 57.443 47.6312 58.1571 48.3314 59.0382C49.4356 60.5397 50.6276 61.9742 51.9011 63.3341C52.1536 63.5817 52.5267 63.7027 52.7448 64.123Z" fill="#F0680C"/>
<path d="M40.6182 20.9794C41.3471 20.6051 42.1793 20.6454 42.9598 20.4035C44.8546 19.9703 46.7701 19.634 48.6989 19.3958C50.335 19.1605 51.9317 18.7033 53.4451 18.0367C54.6307 17.46 55.6751 16.6283 56.5041 15.6008C56.6188 15.4626 56.682 15.2841 56.9517 15.2495C57.0148 16.2573 57.5256 17.2017 57.2444 18.2555C57.0657 18.6854 56.7921 19.0689 56.4441 19.3772C56.0962 19.6854 55.683 19.9104 55.2357 20.035C52.7794 20.6108 50.2657 20.5705 47.7749 20.7778C45.3947 20.9745 43.0057 21.0418 40.6182 20.9794Z" fill="#F0680C"/>
<path d="M39.5566 16.4819C38.7186 17.2017 37.9439 17.8179 37.2207 18.4916C34.8448 20.703 33.123 23.2886 32.6696 26.594C32.4297 28.1651 32.49 29.7677 32.8475 31.3161C32.9142 31.4843 32.9125 31.672 32.8428 31.8389C32.773 32.0058 32.6408 32.1386 32.4745 32.2087C31.9924 32.4851 31.4759 32.6924 30.9766 32.9285C30.6896 33.061 30.5634 32.8882 30.5978 32.6579C30.8216 31.247 30.5978 29.8362 30.7069 28.431C30.8159 26.9165 30.879 25.4078 31.5276 23.9739C32.0822 22.831 32.7867 21.7678 33.6223 20.8124C34.9518 19.3495 36.5009 18.104 38.2136 17.1211C38.5843 16.7733 39.0536 16.5499 39.5566 16.4819Z" fill="#F0680C"/>
<path d="M27.0624 49.1967C27.1034 50.8932 26.6246 52.5615 25.6908 53.9763C25.5301 54.2182 25.3235 54.4946 24.9906 54.08C24.7666 53.8461 24.5227 53.6322 24.2617 53.4408C24.2224 53.3943 24.1711 53.3595 24.1134 53.3403C24.0557 53.321 23.9939 53.3179 23.9346 53.3314C23.7624 53.3774 23.7911 53.5387 23.8313 53.6308C24.3593 54.9899 23.6878 56.2337 23.4583 57.5121C23.2287 58.7906 22.9877 59.9999 22.7409 61.2437C22.7409 61.3474 22.7811 61.5259 22.6261 61.5547C22.4711 61.5835 22.431 61.4165 22.3449 61.3013C21.5701 60.2878 21.5701 59.1361 21.6964 57.944C21.8094 56.9455 22.0248 55.9613 22.3391 55.0071C22.3616 54.8158 22.3616 54.6226 22.3391 54.4313C21.7652 54.7768 21.7997 55.4678 21.3176 55.8594L22.6204 50.8264H22.8499C22.8499 51.0797 22.8499 51.3274 22.8499 51.5807C22.8499 52.0645 23.1024 52.1566 23.5329 51.9493C24.1068 51.6614 24.2101 51.0452 24.5085 50.5557C24.6692 50.2908 24.5774 49.7783 24.9103 49.7668C25.2431 49.7553 25.2202 50.2678 25.4096 50.5212C25.599 50.7745 25.5875 51.2928 25.9835 51.2813C26.3795 51.2698 26.4426 50.74 26.5861 50.406C26.7296 50.072 26.9017 49.6113 27.0624 49.1967Z" fill="#F0680C"/>
<path d="M33.5017 67.5264C34.0756 67.941 34.6496 68.3211 35.2235 68.7702C37.2723 70.4633 38.9654 72.5191 40.842 74.3907C42.284 75.863 44.0874 76.9277 46.0704 77.4773C46.2138 77.5118 46.3975 77.5349 46.4262 77.6616C46.4549 77.7883 46.2827 77.9322 46.1277 77.9956C45.7735 78.1869 45.4305 78.3983 45.1004 78.629C43.7001 79.3661 42.6785 78.7327 41.6914 77.8343C39.6139 75.9513 38.1447 73.6075 36.6927 71.2407C35.9793 70.0955 35.0701 69.0857 34.0068 68.2577C33.8785 68.1755 33.7677 68.0685 33.681 67.943C33.5943 67.8174 33.5334 67.6758 33.5017 67.5264Z" fill="#F0680C"/>
<path d="M39.1033 26.6688C39.551 26.2657 40.1191 26.3924 40.5783 26.3751C42.1795 26.306 43.7635 26.0584 45.3647 25.9375C47.2414 25.7935 49.1238 25.9375 50.9947 25.8223C52.3434 25.7359 53.6864 25.7301 55.0121 25.7186C55.1211 25.7186 55.2818 25.6438 55.3277 25.7935C55.3737 25.9432 55.2359 26.0181 55.1154 26.1045C54.4597 26.5608 53.7503 26.9341 53.0034 27.2159C52.4776 27.4176 51.9888 27.7056 51.5572 28.0681C50.9832 28.5634 50.3749 28.2582 49.8354 28.166C47.976 27.8551 46.1165 27.5153 44.2628 27.1698C42.541 26.83 40.825 26.9395 39.1033 26.6688Z" fill="#F0680C"/>
<path d="M25.7081 64.6471C24.5028 63.4954 23.6305 62.2976 23.4641 60.6851C23.5008 60.2692 23.5876 59.8593 23.7223 59.4643C23.8189 58.8456 23.9628 58.2353 24.1528 57.6388C24.1987 59.09 25.1973 58.8942 26.0868 58.8712C26.1479 58.8654 26.2094 58.8654 26.2705 58.8712C26.6378 58.8712 27.1371 58.756 27.3322 58.946C27.5274 59.1361 27.1314 59.5219 27.0567 59.8617C27.0171 60.0312 27.0204 60.2081 27.0663 60.376C27.1123 60.544 27.1995 60.6977 27.32 60.8231C27.4404 60.9485 27.5902 61.0417 27.7558 61.094C27.9214 61.1464 28.0974 61.1563 28.2677 61.1228C28.4456 61.0825 28.6178 61.0249 28.7727 61.1919C28.9277 61.3589 28.7727 61.5029 28.7153 61.6411C28.3136 63.1786 27.7741 64.6816 27.4585 66.248C27.0567 66.248 27.0969 65.8506 27.051 65.6721C26.7284 64.5363 26.4716 63.3826 26.282 62.2169C26.1573 61.7952 25.9483 61.4033 25.6679 61.0652C25.5818 60.927 25.467 60.7715 25.2834 60.8521C25.0997 60.9328 25.1514 61.1689 25.1915 61.2898C25.378 62.0141 25.5104 62.7513 25.5875 63.4954C25.7504 63.8562 25.7927 64.2602 25.7081 64.6471Z" fill="#F0680C"/>
<path d="M39.7747 53.6021C40.4519 53.9937 40.647 54.6272 41.0201 55.1109C41.8465 56.1993 42.6729 57.2992 43.4535 58.4221C43.8793 59.1017 44.2388 59.8209 44.5267 60.57C45.0641 61.8068 45.8139 62.9393 46.742 63.9157C46.8567 64.0367 47.0002 64.1518 46.9199 64.3361C46.8395 64.5204 46.6903 64.4455 46.5526 64.4743C45.6697 64.6065 44.7687 64.5437 43.9126 64.2901C43.6126 64.196 43.3454 64.0182 43.1422 63.7776C42.939 63.537 42.8081 63.2434 42.7648 62.931C42.2597 60.9788 41.9728 58.9748 41.2956 57.063C40.971 56.1259 40.5876 55.2103 40.1477 54.3218C40.0157 54.1203 39.9354 53.9131 39.7747 53.6021Z" fill="#F0680C"/>
<path d="M41.9438 18.2786C42.5177 18.0828 43.04 17.8697 43.6024 17.7027C44.8822 17.3226 46.1506 16.9138 47.4533 16.6258C48.4687 16.4202 49.4293 16.0015 50.272 15.3971C51.1147 14.7927 51.8205 14.0163 52.3431 13.1188C52.7591 12.4911 53.0874 11.8091 53.3187 11.0918C53.3437 11 53.3871 10.9144 53.4463 10.8401C53.5056 10.7658 53.5793 10.7045 53.663 10.6599C53.8065 12.1284 54.0246 13.5392 53.6344 14.9616C53.3474 15.9924 52.4865 16.5625 51.5568 16.9829C50.2483 17.5587 48.8479 17.5587 47.4648 17.6797C45.9731 17.7449 44.4912 17.9551 43.04 18.3074C42.7071 18.4053 42.3226 18.3707 41.9668 18.4628L41.9438 18.2786Z" fill="#F0680C"/>
<path d="M28.0553 50.285C28.1798 50.4317 28.2506 50.6166 28.2562 50.8091C28.216 54.0224 29.14 57.0572 30.0296 60.092C30.0755 60.2475 30.2075 60.4145 30.0755 60.5354C29.9435 60.6563 29.7828 60.426 29.6279 60.3742C29.5934 60.3742 29.5647 60.3051 29.5303 60.2993C28.3308 60.0978 28.2275 59.0382 27.8889 58.1744C27.6536 57.5985 27.447 56.9823 27.2174 56.3892C27.183 56.3028 27.1141 56.1876 27.0395 56.1704C26.9649 56.1531 26.8444 56.274 26.7755 56.3719C26.4886 56.7981 26.7755 57.1378 26.942 57.4891C27.0166 57.6503 27.2461 57.7022 27.2576 57.9728C26.7181 58.0247 26.1787 58.1456 25.7712 57.6388C25.5996 57.4066 25.4967 57.1305 25.4743 56.8422C25.452 56.5539 25.5111 56.2652 25.6449 56.0091C25.8356 55.5018 26.0881 55.0202 26.3967 54.5752C27.1198 53.491 27.5888 52.2566 27.7684 50.9646C27.7744 50.7097 27.877 50.4667 28.0553 50.285Z" fill="#F0680C"/>
<path d="M36.4517 16.7929C37.6188 15.1499 38.4508 13.2916 38.9 11.325C39.3491 9.35839 39.4064 7.32207 39.0687 5.33313C39.1926 5.41415 39.2971 5.52179 39.3745 5.64827C39.4519 5.77475 39.5004 5.91691 39.5163 6.06447C39.7344 7.41199 40.337 8.6501 40.6068 9.97458C40.9755 11.3524 40.8641 12.8152 40.2911 14.1208C39.7172 15.2726 38.5694 15.8483 37.5077 16.4242C37.2035 16.551 36.9452 16.9368 36.4517 16.7929Z" fill="#F0680C"/>
<path d="M40.0844 37.927C39.6177 39.0188 39.0141 40.0464 38.2881 40.9849C37.8998 41.4802 37.4612 41.9337 36.9796 42.3381C36.8352 42.4654 36.6612 42.5542 36.4737 42.5965C36.2862 42.6387 36.0911 42.6331 35.9064 42.58C34.7586 42.2345 33.6739 41.8314 32.5662 41.4283C32.3756 41.3693 32.1989 41.272 32.0469 41.1423C31.895 41.0126 31.771 40.8533 31.6824 40.6739C31.4245 40.2831 31.1113 39.932 30.7527 39.6316C30.6895 39.5625 30.5633 39.5107 30.6149 39.384C30.6248 39.36 30.6395 39.3383 30.6581 39.3202C30.6767 39.3022 30.6988 39.2881 30.723 39.279C30.7471 39.2698 30.773 39.2657 30.7988 39.2669C30.8246 39.2681 30.85 39.2747 30.8732 39.2861C32.021 39.6604 33.209 39.6431 34.3626 39.9368C35.2138 40.2147 36.1253 40.2493 36.995 40.0367C37.8647 39.8241 38.6582 39.3728 39.2867 38.7332C39.4991 38.5202 39.677 38.2726 39.8606 38.0422C39.9291 37.9929 40.0045 37.9541 40.0844 37.927Z" fill="#F0680C"/>
<path d="M25.9261 49.7092C25.7293 49.2561 25.6408 48.7631 25.6679 48.2695C25.6679 48.068 25.6392 47.8376 25.4096 47.7858C25.1801 47.734 25.1399 48.0219 25.0653 48.1831C24.6482 49.0239 24.2484 49.8647 23.8658 50.7054L23.7166 50.6594C23.8142 49.9856 23.883 49.3118 24.0208 48.6438C24.0667 48.425 24.0609 48.2522 23.8945 48.1716C23.7281 48.091 23.619 48.2868 23.5157 48.4077C23.0697 49.0147 22.6852 49.6648 22.3679 50.3484C22.2089 50.6873 22.0021 51.0015 21.7538 51.2813C21.6978 50.9033 21.7927 50.5184 22.0178 50.2102C22.6663 49.2773 22.5286 48.258 22.3277 47.2906C22.167 46.4901 22.7696 46.1043 22.9762 45.5169C23.0222 45.3787 23.1656 45.4305 23.2288 45.5918C23.3011 45.755 23.3815 45.9146 23.4698 46.0697C23.5329 46.2022 23.6248 46.3404 23.7855 46.277C23.8421 46.2536 23.8896 46.2122 23.9207 46.1592C23.9518 46.1062 23.9648 46.0444 23.9576 45.9833C23.949 45.901 23.949 45.818 23.9576 45.7357C23.9863 45.5515 23.8486 45.2635 24.1298 45.2232C24.3192 45.2232 24.4168 45.442 24.434 45.6206C24.4512 45.7991 24.6004 45.8048 24.7381 45.8163C24.8759 45.8279 24.9333 45.7184 24.9448 45.586C25.0107 45.2914 25.0301 44.9883 25.0021 44.6877C24.8601 44.0105 24.9159 43.3067 25.1628 42.6606C25.2088 42.5397 25.2547 42.413 25.3809 42.4303C25.5072 42.4475 25.5244 42.58 25.5359 42.6664C25.6332 43.0619 25.6795 43.4683 25.6736 43.8757C25.6588 44.6068 25.7398 45.3367 25.9147 46.0467C25.9147 46.1388 25.9147 46.3231 26.0237 46.2828C26.7296 46.0467 26.4025 46.6456 26.391 46.8126C26.3451 47.6188 26.15 48.4077 26.1385 49.2255C26.1614 49.3637 26.0237 49.4961 25.9261 49.7092Z" fill="#F0680C"/>
<path d="M37.9038 34.7771C37.5395 35.5408 37.055 36.2408 36.469 36.8502C35.924 37.558 35.2574 38.1626 34.5005 38.6353C34.2894 38.8036 34.0397 38.9164 33.7742 38.9637C33.5087 39.0109 33.2356 38.9911 32.9797 38.906C31.8319 38.405 30.5979 38.549 29.3927 38.5317C28.9738 38.5317 28.4286 38.6526 28.2966 38.1343C28.199 37.7082 28.75 37.6449 29.0254 37.4491C29.4181 37.1701 29.8637 36.975 30.3346 36.8759C30.8055 36.7768 31.2917 36.7759 31.763 36.8732C32.9452 37.069 34.0931 36.6774 35.2064 36.2973C36.179 35.9347 37.0891 35.4217 37.9038 34.7771Z" fill="#F0680C"/>
<path d="M41.5078 78.7672C39.258 79.4468 37.5535 77.9553 36.8361 76.2565C36.1187 74.5577 35.6252 72.7092 34.7701 71.0392C34.4946 70.5094 34.1961 70.0026 33.9436 69.4498C34.6654 70.0397 35.2908 70.7392 35.7974 71.5229C36.7902 72.9625 37.7142 74.454 38.7473 75.8649C39.3894 76.8738 40.2385 77.7336 41.238 78.3872C41.3069 78.4281 41.3665 78.4831 41.413 78.5486C41.4594 78.614 41.4917 78.6885 41.5078 78.7672Z" fill="#F0680C"/>
<path d="M37.72 55.7097C38.1676 56.0207 38.2365 56.5159 38.4661 56.9017C39.4951 58.4782 40.2843 60.1997 40.8076 62.0096C41.02 62.8619 41.6398 63.5529 42.1161 64.3131C42.2022 64.434 42.3744 64.5377 42.2711 64.7047C42.2211 64.768 42.1559 64.8176 42.0817 64.8488C42.0074 64.8801 41.9264 64.8919 41.8464 64.8832C41.0166 64.8848 40.2193 64.5591 39.6267 63.9763C39.034 63.3935 38.6935 62.6003 38.6784 61.7678C38.5867 60.2898 38.4201 58.8176 38.1791 57.3567C38.0988 56.8096 37.8175 56.3028 37.72 55.7097Z" fill="#F0680C"/>
<path d="M38.7874 29.3753C39.4875 28.8801 40.2623 28.9838 40.9797 28.955C43.0228 28.8686 45.0717 28.8974 47.1148 28.955C47.8207 28.955 48.5323 29.0529 49.2497 29.0471C49.3645 29.0471 49.5137 29.0126 49.5769 29.145C49.64 29.2774 49.4736 29.3926 49.3817 29.4732C48.9054 29.9224 48.4233 30.3601 47.9355 30.7977C47.7877 30.923 47.61 31.0074 47.4198 31.0428C47.2296 31.0781 47.0335 31.0631 46.8508 30.9993C46.0244 30.792 45.2094 30.5271 44.3772 30.3543C43.0138 30.034 41.6319 29.7994 40.2393 29.6518C39.75 29.5909 39.265 29.4985 38.7874 29.3753Z" fill="#F0680C"/>
<path d="M42.6384 15.5663C43.2684 15.0411 44.0241 14.6898 44.8307 14.547C45.5405 14.3217 46.1969 13.9532 46.7594 13.464C47.322 12.9747 47.7789 12.3752 48.102 11.7022C48.6721 10.5741 48.9858 9.33306 49.0202 8.06859C49.0202 7.95341 48.9801 7.82097 49.1924 7.71155C49.3875 8.63293 49.4392 9.56007 49.6745 10.4526C49.8552 11.1688 49.8552 11.9189 49.6745 12.6351C49.5236 13.129 49.255 13.5784 48.892 13.9447C48.529 14.3109 48.0825 14.5829 47.5912 14.737C46.0187 15.382 44.3027 15.3244 42.6384 15.5663Z" fill="#F0680C"/>
<path d="M33.5706 32.0992C33.4362 32.6969 33.1824 33.2611 32.8245 33.7577C32.4649 34.4488 32.0088 35.0848 31.4701 35.6465C30.9994 36.0899 30.437 35.8884 29.9262 36.0381C29.0357 36.3282 28.2416 36.858 27.6306 37.5699C27.529 37.7012 27.3933 37.8018 27.2383 37.8607C27.0834 37.9197 26.9153 37.9346 26.7525 37.9039C26.498 37.8338 26.2359 37.7951 25.972 37.7887C25.8572 37.7887 25.708 37.829 25.6965 37.6448C25.6927 37.5953 25.7044 37.5458 25.7302 37.5034C25.756 37.461 25.7944 37.4279 25.84 37.4086C27.0739 36.7406 27.929 35.6523 28.876 34.6675C29.2197 34.3339 29.6363 34.0854 30.0927 33.942C31.3472 33.5289 32.5231 32.9058 33.5706 32.0992Z" fill="#F0680C"/>
<path d="M33.0484 65.0675V66.1616C33.0484 66.2422 33.0484 66.3286 32.9508 66.3631C32.8533 66.3977 32.8016 66.3286 32.75 66.2652C32.6065 66.0925 32.595 65.6894 32.2162 65.8909C32.0415 65.9692 31.8906 66.0925 31.7787 66.2483C31.6668 66.404 31.598 66.5867 31.5792 66.7778C31.5327 67.4498 31.585 68.125 31.7342 68.7818C31.8106 69.5316 31.8412 70.2855 31.826 71.0391C31.826 71.1255 31.8719 71.258 31.7399 71.2983C31.6079 71.3386 31.539 71.2983 31.4529 71.1716C30.9364 70.4172 30.4027 69.6801 29.869 68.9372C29.7312 68.7472 29.7771 68.5975 29.869 68.3614C30.4084 66.7605 31.1603 65.2402 31.6596 63.622C31.7916 63.2074 32.1072 62.8619 32.1072 62.3897C32.1072 62.2975 32.2162 62.1881 32.3081 62.2227C32.4165 62.274 32.5037 62.3615 32.5549 62.4703C32.9794 63.2653 33.1517 64.1715 33.0484 65.0675Z" fill="#F0680C"/>
<path d="M44.6529 6.05872C44.8035 6.58787 44.8522 7.14097 44.7964 7.68841C44.871 8.74224 44.9169 9.80183 44.9628 10.8614C45.0024 11.5125 44.866 12.1623 44.568 12.7421C44.27 13.3218 43.8214 13.8101 43.2698 14.1553C42.736 14.5239 42.0875 14.4835 41.4907 14.6218C41.2037 14.6909 41.2381 14.4087 41.3874 14.2129C42.4295 12.6985 43.2418 11.0373 43.7978 9.28355C44.1533 8.36953 44.3793 7.41002 44.4693 6.43303C44.4817 6.28961 44.5472 6.15607 44.6529 6.05872Z" fill="#F0680C"/>
<path d="M29.0827 62.597C29.1803 62.954 28.9048 63.242 28.9852 63.5702C29.0196 63.7084 28.9852 63.8639 29.1573 63.9273C29.2347 63.9563 29.3201 63.956 29.3972 63.9263C29.4744 63.8966 29.5381 63.8396 29.5763 63.766C29.8173 63.3514 30.2248 63.0404 30.3109 62.5394C30.3568 62.2457 30.4371 62.0269 30.8044 62.0787C30.9614 62.0795 31.1124 62.1389 31.2281 62.2454C31.3438 62.3519 31.4157 62.4978 31.43 62.6546C31.4962 63.0809 31.4364 63.5174 31.2578 63.91C30.6552 65.1999 29.8116 66.3631 29.1803 67.6416C29.0483 67.9065 28.922 68.1771 28.79 68.4478C28.7097 68.6205 28.6236 68.7991 28.394 68.753C28.1645 68.7069 28.1472 68.4881 28.1415 68.3268C28.1013 67.5288 28.1013 66.7293 28.1415 65.9313C28.1989 65.125 28.3653 64.3246 28.4916 63.5241C28.5163 63.3355 28.582 63.1547 28.6842 62.9945C28.7863 62.8342 28.9224 62.6985 29.0827 62.597Z" fill="#F0680C"/>
<path d="M24.0496 37.3569C24.5329 36.6894 24.8729 35.9286 25.0482 35.1226C25.1974 34.3279 25.9033 34.0227 26.3797 33.5217C27.2212 32.6535 27.9554 31.6868 28.5663 30.6424C28.6294 30.5329 28.6179 30.3429 28.8245 30.3602C29.0311 30.3775 28.9852 30.5617 29.0254 30.6827C29.1868 31.4684 29.0605 32.2863 28.6696 32.9861C28.0555 34.4488 26.9077 35.4739 25.6967 36.4413C25.3179 36.7408 24.9105 37.0172 24.5489 37.2878C24.3882 37.3742 24.2619 37.4779 24.0496 37.3569Z" fill="#F0680C"/>
<path d="M58.4095 42.2747C57.6863 42.1538 57.342 41.6644 56.8943 41.3534C54.4898 39.6368 51.8566 38.268 49.0719 37.2877C48.8617 37.2108 48.6582 37.1164 48.4636 37.0056C48.2685 36.8904 47.9586 36.8444 48.0389 36.5046C48.0656 36.354 48.1406 36.2163 48.2525 36.1124C48.3644 36.0084 48.507 35.9439 48.6587 35.9287C49.1606 35.9058 49.6585 36.0278 50.0935 36.2801C52.3709 37.2966 54.4804 38.6558 56.3491 40.311C57.0931 40.9023 57.7827 41.5595 58.4095 42.2747Z" fill="#F0680C"/>
<path d="M23.533 30.1471C23.9526 30.8334 24.2295 31.5978 24.3471 32.3943C24.4648 33.1907 24.4207 34.0028 24.2175 34.7818C24.0143 35.5607 23.6562 36.2903 23.1648 36.9268C22.6734 37.5633 22.0587 38.0936 21.3579 38.4856C22.5631 35.8539 22.982 32.9746 23.533 30.1471Z" fill="#F0680C"/>
<path d="M35.3439 56.0092C35.7686 57.2589 36.4918 58.3933 36.6295 59.7408C36.6976 61.0876 37.0705 62.4012 37.7199 63.5818C37.8118 63.7373 37.9495 63.864 37.7773 64.0656C37.6052 64.2671 37.4732 64.0656 37.3469 64.0252C35.7399 63.4494 35.166 62.2516 35.166 60.6564C35.166 59.0613 35.166 57.5871 35.166 56.0495L35.3439 56.0092Z" fill="#F0680C"/>
<path d="M53.778 47.8722C53.0491 47.59 52.6015 46.9681 52.0276 46.5016C50.3407 45.0803 48.5594 43.7758 46.6959 42.5973C46.1851 42.2808 45.6944 41.9327 45.2267 41.555C44.8824 41.2728 44.6528 40.9388 45.0373 40.4666C45.2841 40.1671 45.508 40.1729 45.7433 40.3802C47.5453 41.935 49.6229 43.1616 51.2758 44.8892C52.2099 45.7945 53.0485 46.7941 53.778 47.8722Z" fill="#F0680C"/>
<path d="M55.8726 45.1541C55.4715 45.0094 55.1194 44.7538 54.8568 44.417C53.0451 42.7535 51.039 41.3168 48.8824 40.1383C48.2351 39.8779 47.6078 39.5699 47.0057 39.2169C46.7417 39.0154 46.2654 38.8254 46.5121 38.3704C46.6217 38.2 46.7876 38.0738 46.9807 38.0138C47.1738 37.9537 47.3817 37.9638 47.5681 38.0422C48.3676 38.3559 49.1102 38.7995 49.7662 39.3552C51.0035 40.2018 52.1566 41.166 53.2097 42.2345C54.2013 43.1068 55.0943 44.0859 55.8726 45.1541Z" fill="#F0680C"/>
<path d="M60.9004 38.9118C60.5044 38.9751 60.1888 38.572 59.8272 38.3704C57.7161 37.1697 55.4695 36.2263 53.1354 35.5602C52.2688 35.3241 51.3792 35.1744 50.5069 34.9556C50.197 34.875 49.6977 34.9556 49.7092 34.4431C49.7092 34.0918 50.4839 33.752 50.9258 33.8672C52.0737 34.1839 53.2215 34.5985 54.3234 35.0189C56.52 35.8164 58.5932 36.9214 60.4814 38.3013C60.6493 38.4838 60.7903 38.6894 60.9004 38.9118Z" fill="#F0680C"/>
<path d="M19.5903 42.5339C19.774 43.6454 20.1068 43.8987 21.2432 43.9736C21.5244 43.9736 21.9778 43.8066 22.0639 44.1464C22.1499 44.4861 21.6793 44.6301 21.4326 44.8431C21.266 44.976 21.0711 45.0685 20.863 45.1135C20.655 45.1584 20.4394 45.1546 20.2331 45.1023C18.5113 44.7913 18.0694 45.7645 17.8112 47.1984C17.8112 47.279 17.8112 47.3597 17.8112 47.446C17.8112 47.7282 17.8112 48.1774 17.5529 48.1889C17.2086 48.1889 17.1225 47.7225 17.1053 47.4518C16.98 46.7947 16.9664 46.121 17.0651 45.4593C17.0924 45.3023 17.1531 45.1531 17.243 45.0217C17.9663 44.1382 18.7507 43.3069 19.5903 42.5339Z" fill="#F0680C"/>
<path d="M63.1213 35.589C61.8645 35.1283 60.6248 34.6619 59.3852 34.2185C57.8666 33.6967 56.29 33.3641 54.6906 33.228C53.7092 33.1301 52.7164 32.9746 51.7235 32.9746C51.4767 32.9746 51.1496 32.9746 51.2414 32.6003C51.3332 32.226 51.3792 32.0244 51.7866 32.0244C52.5551 31.9825 53.3257 32.0328 54.0823 32.1742C55.804 32.5773 57.5257 32.9516 59.1614 33.5217C60.455 33.946 61.7043 34.4956 62.8918 35.1629C62.9721 35.1978 63.0385 35.2588 63.0801 35.3361C63.1218 35.4134 63.1363 35.5025 63.1213 35.589Z" fill="#F0680C"/>
<path d="M23.1485 38.9521C22.7295 39.2976 22.322 39.6604 21.8858 39.9829C21.6046 40.1902 21.5243 40.386 21.7366 40.6912C21.949 40.9964 22.1269 41.0424 22.4081 40.7775C22.5733 40.6597 22.7503 40.5593 22.9361 40.4781C23.0566 40.4032 23.137 40.1499 23.3206 40.3169C23.5043 40.4839 23.2862 40.5645 23.2403 40.6912C23.067 41.1717 22.974 41.6775 22.9648 42.1884C22.9679 42.5174 22.8422 42.8346 22.6146 43.0715C22.3871 43.3084 22.0759 43.4463 21.7481 43.4553C21.4175 43.4528 21.0995 43.3281 20.8549 43.1049C20.6103 42.8819 20.4563 42.576 20.4224 42.246C20.4224 41.9581 20.4224 41.6989 20.0838 41.5492C19.7452 41.3995 19.9747 41.2152 20.0838 41.0309C20.6921 39.7755 21.8285 39.2457 23.1485 38.9521Z" fill="#F0680C"/>
<path d="M43.7749 56.9593C43.3329 56.3834 42.9197 55.8076 42.5237 55.2317C41.4065 53.65 40.2166 52.1144 38.954 50.6248C38.7933 50.429 38.4949 50.2217 38.6441 49.8359C38.8679 49.26 39.3902 49.1564 39.8952 49.6516C40.5603 50.3368 41.1263 51.1122 41.5768 51.9551C42.406 53.4263 43.144 54.9476 43.7863 56.5101C43.8239 56.5794 43.8426 56.6574 43.8406 56.7363C43.8386 56.8151 43.8159 56.892 43.7749 56.9593Z" fill="#F0680C"/>
<path d="M48.9859 52.7267C48.4808 52.1508 48.016 51.7189 47.6028 51.2237C46.3471 49.7279 44.9305 48.3761 43.3788 47.1927C42.9536 46.8403 42.5564 46.4552 42.1908 46.0409C42.0681 45.9285 41.9935 45.7727 41.9828 45.6062C41.9721 45.4398 42.0261 45.2757 42.1334 45.1483C42.3744 44.8431 42.6097 44.9641 42.9197 45.1483C44.0675 45.8394 44.8882 46.9105 45.7318 47.9125C46.7927 49.1917 47.7704 50.5382 48.6588 51.9435C48.831 52.1732 48.9435 52.4424 48.9859 52.7267Z" fill="#F0680C"/>
<path d="M38.0874 32.1857C39.7957 32.1279 41.506 32.1857 43.2067 32.3584C44.0216 32.4218 44.8423 32.3584 45.663 32.3584C45.8294 32.3584 46.0647 32.249 46.1508 32.4678C46.2369 32.6867 45.9844 32.7155 45.8926 32.8364C45.5677 33.2499 45.2087 33.6351 44.8193 33.9881C44.7305 34.0854 44.613 34.1517 44.4841 34.1776C44.3551 34.2035 44.2213 34.1876 44.102 34.1321C42.1464 33.339 40.1363 32.6885 38.0874 32.1857Z" fill="#F0680C"/>
<path d="M55.0694 30.1471C56.9826 30.1879 58.8848 30.4468 60.7397 30.9188C61.6235 31.1434 62.5131 31.3507 63.3969 31.5925C63.5231 31.6271 63.8445 31.5407 63.7642 31.8517C63.6838 32.1626 63.5059 31.8862 63.3739 31.8517C61.744 31.7653 60.183 31.247 58.5531 31.1606C57.124 31.1031 55.6835 31.1203 54.266 31.1606C53.8298 31.1606 53.4338 30.9821 53.0034 31.0109C52.9312 31.0157 52.8601 30.9918 52.8053 30.9444C52.7505 30.897 52.7165 30.8299 52.7107 30.7575C52.7107 30.5617 52.7968 30.4754 52.9747 30.4063C53.6484 30.1791 54.3609 30.091 55.0694 30.1471Z" fill="#F0680C"/>
<path d="M46.6556 55.1453C46.2805 54.8253 45.9723 54.4339 45.7489 53.9936C44.3572 52.0401 42.7368 50.2614 40.9223 48.6957C40.6238 48.448 40.3139 48.1831 40.423 47.7225C40.4343 47.6204 40.4759 47.5241 40.5424 47.4461C40.609 47.368 40.6973 47.3119 40.796 47.2848C40.9797 47.2387 41.083 47.3481 41.2035 47.4806C42.4552 48.7148 43.6067 50.0474 44.647 51.4656C45.3777 52.5751 46.0569 53.7057 46.6843 54.8574C46.7245 54.938 46.8221 55.0244 46.6556 55.1453Z" fill="#F0680C"/>
<path d="M33.1516 69.8702C33.5418 70.0372 33.5992 70.3654 33.7255 70.6188C34.4374 71.8645 34.9944 73.1932 35.3841 74.575C35.5212 75.0342 35.7389 75.4651 36.0269 75.8476C36.1129 75.9686 36.2507 76.0895 36.1244 76.2795C35.9982 76.4696 35.8834 76.2795 35.7629 76.2795C35.6423 76.2795 35.5161 76.2795 35.3956 76.2795C34.1387 75.9743 34.001 75.8879 33.9206 74.6786C33.886 73.0479 33.6273 71.4298 33.1516 69.8702Z" fill="#F0680C"/>
<path d="M67.0524 29.6404C65.7783 29.721 64.6936 29.41 63.609 29.3236C62.8399 29.2603 62.0651 29.2257 61.3133 29.1912C59.2587 29.0982 57.1999 29.1636 55.1553 29.387C55.0871 29.3974 55.0174 29.389 54.9537 29.3626C54.89 29.3362 54.8347 29.2929 54.7937 29.2373C54.7478 29.1048 54.8511 29.0012 55.006 28.8975C55.93 28.2813 56.9631 28.385 57.9559 28.4829C58.8455 28.5635 59.7408 28.5635 60.6304 28.6499C62.6796 28.8047 64.7196 29.0642 66.7425 29.4273C66.7999 29.4446 66.8688 29.5194 67.0524 29.6404Z" fill="#F0680C"/>
<path d="M67.988 26.7207C67.0553 26.6904 66.1215 26.7231 65.1931 26.8186C63.4511 26.8708 61.7188 27.0985 60.0222 27.4981C59.3103 27.6682 58.5774 27.7322 57.847 27.6882C57.7208 27.6882 57.583 27.6882 57.583 27.5154C57.583 27.3427 57.6921 27.3599 57.7954 27.3254C59.371 26.8032 60.9993 26.4575 62.6507 26.2946C64.0925 26.2148 65.5381 26.2302 66.978 26.3407C67.3509 26.3319 67.7128 26.4681 67.988 26.7207Z" fill="#F0680C"/>
<path d="M39.459 34.4834C40.4824 34.6207 41.4978 34.813 42.5007 35.0592C42.782 35.1168 43.2468 34.8807 43.3387 35.3184C43.4305 35.756 42.9886 35.8942 42.7647 36.1188C41.9785 36.9423 41.99 36.9077 41.043 36.2628C40.5594 35.8761 40.006 35.5867 39.4131 35.4105C39.2803 35.3905 39.1607 35.3189 39.0802 35.2112C38.9996 35.1034 38.9646 34.9681 38.9827 34.8346C39.0036 34.7268 39.0642 34.6308 39.1525 34.5657C39.2408 34.5006 39.3502 34.4712 39.459 34.4834Z" fill="#F0680C"/>
<path d="M50.1281 49.26C49.5542 48.7245 48.9057 48.2177 48.349 47.6533C47.1108 46.4421 45.779 45.331 44.3661 44.3306C44.0602 44.0955 43.776 43.8334 43.5167 43.5474C43.4538 43.4867 43.4044 43.4133 43.3717 43.3321C43.339 43.2509 43.3238 43.1637 43.3271 43.0761C43.3303 42.9886 43.352 42.9028 43.3906 42.8242C43.4292 42.7457 43.4839 42.6762 43.5511 42.6203C43.884 42.269 44.0504 42.6203 44.2628 42.8161C46.0361 44.7107 47.821 46.588 49.5944 48.4768C49.8067 48.7014 49.9961 48.949 50.197 49.1851L50.1281 49.26Z" fill="#F0680C"/>
<path d="M32.5548 42.8737C32.463 42.3957 32.5548 42.2978 33.0254 42.4763C33.7198 42.7355 34.3913 43.0522 35.0628 43.3516C35.3727 43.4899 35.5276 43.6684 35.189 43.9736C34.9192 44.2986 34.5798 44.5584 34.1962 44.7337C33.4558 44.9698 32.8532 44.7337 32.7155 43.9909C32.595 43.6313 32.5405 43.2528 32.5548 42.8737Z" fill="#F0680C"/>
<path d="M32.6582 70.6764C32.8518 71.1155 32.9136 71.6018 32.8361 72.0757C32.6949 72.5467 32.7152 73.0515 32.8935 73.5096C32.9098 73.5354 32.9207 73.5644 32.9255 73.5946C32.9304 73.6248 32.9289 73.6557 32.9214 73.6854C32.9139 73.715 32.9004 73.7428 32.8818 73.7671C32.8632 73.7913 32.8398 73.8115 32.8131 73.8263C32.6697 73.9185 32.5778 73.7918 32.509 73.7227C32.3675 73.597 32.2556 73.4414 32.1812 73.2672C32.1068 73.093 32.0717 72.9044 32.0785 72.7149C32.1718 72.0107 32.3671 71.3239 32.6582 70.6764Z" fill="#F0680C"/>
</svg>
