<svg width="100" height="100" viewBox="0 0 100 100" fill="none" xmlns="http://www.w3.org/2000/svg">
<path d="M68.8 43.7L75 32.2H85V67.6999H75.7V43.7H68.8Z" fill="#070A8D"/>
<path d="M31.6 39.1H21.3L15 67.8H20.9C21.4 67.8 21.8 67.5 21.9 67L23.4 59.7H29C29.5 59.7 29.8 60 29.9 60.5L31.4 67C31.5 67.4 31.9 67.8 32.3 67.8H38.5L31.6 39.1ZM24.5 53.4C24.9 49.5 26.5 43 26.5 43C27.5 44.8 29 53.4 29 53.4H24.5Z" fill="#FC294A"/>
<path d="M42.8999 67.8V49.4C42.8999 48.9 43.2999 48.4 43.8999 48.4H48.7999V67.7H42.8999V67.8Z" fill="#FC294A"/>
<path d="M42.8999 41.4V45.3H48.7999V39H45.1999C43.8999 39.1 42.8999 40.1 42.8999 41.4Z" fill="#FC294A"/>
<path d="M52.8999 48.5L58.5999 43.6H67.1999L63.9999 50.1H59.3999V67.8H52.8999V48.5Z" fill="#FC294A"/>
</svg>
