<svg width="100" height="100" viewBox="0 0 100 100" fill="none" xmlns="http://www.w3.org/2000/svg">
<path d="M72.0999 27.7001C70.1999 27.7001 56.5999 35.1001 55.0999 35.1001C53.5999 35.1001 51.8999 33.2001 50.9999 33.2001C50.0999 33.2001 48.0999 35.1001 47.4999 35.1001C46.8999 35.1001 44.4999 32.5001 43.7999 32.5001C43.0999 32.5001 37.0999 38.9001 37.0999 38.9001C48.6999 38.9001 71.5999 38.9001 72.4999 38.6001C72.9048 38.5068 73.273 38.2955 73.5578 37.9929C73.8427 37.6903 74.0313 37.31 74.0999 36.9001V28.8001C74.0999 28.7001 74.0999 27.7001 72.0999 27.7001ZM68.6999 33.7001C67.9138 33.4742 67.1935 33.0627 66.5999 32.5001C66.5999 32.5001 67.7999 31.3001 68.6999 31.3001C69.5999 31.3001 70.7999 32.5001 70.7999 32.5001C70.7999 32.5001 69.5999 33.7001 68.6999 33.7001Z" fill="#051759"/>
<path d="M54.7 56.5C51.3 56.5 43.5 54.7 43.5 54.7C43.5 54.7 46.1 56.2 47.9 57C49.6986 57.8959 51.5725 58.6321 53.5 59.2C55.3829 59.8336 57.3268 60.2693 59.3 60.5H59.4C62.0769 60.999 64.8231 60.999 67.5 60.5C69.1479 60.1896 70.7349 59.6156 72.2 58.8C73.603 58.2041 74.864 57.318 75.9 56.2C76.9357 55.192 77.7824 54.0066 78.4 52.7C78.6961 52.0571 78.8494 51.3578 78.8494 50.65C78.8494 49.9422 78.6961 49.2428 78.4 48.6C78.0433 48.0735 77.5421 47.6612 76.9567 47.4128C76.3712 47.1645 75.7265 47.0905 75.1 47.2C73.5 47.3 71 49.6 70.8 49.7C68.8075 51.6241 66.5917 53.3027 64.2 54.7C61.2245 56.0564 57.9654 56.6739 54.7 56.5Z" fill="#06567B"/>
<path d="M21.6 45.1C16 46 8.19995 50.6 8.19995 50.6C11.8754 49.3539 15.6582 48.4501 19.5 47.9C22.0244 47.6 24.5755 47.6 27.1 47.9C29.5378 48.1973 31.9462 48.6991 34.2999 49.4L38.5999 50.6C40.2999 51.1 41.0999 51.5 42.7999 52.1C44.4716 52.6918 46.1741 53.1925 47.9 53.6C49.1831 53.8974 50.4868 54.098 51.7999 54.2H51.9C53.9558 54.4996 56.0441 54.4996 58.0999 54.2C59.5357 53.9869 60.944 53.618 62.2999 53.1C64.1194 52.3952 65.7838 51.3422 67.1999 50C68.1795 49.22 69.1144 48.3853 70 47.5C70.6895 46.7917 71.5029 46.2155 72.4 45.8C73.0833 45.4485 73.8328 45.2441 74.6 45.2C75.3592 45.0491 76.1407 45.0491 76.9 45.2C77.8844 45.3409 78.7966 45.797 79.5 46.5C80.3533 47.2027 80.9796 48.1421 81.3 49.2C81.5003 50.0551 81.5003 50.9449 81.3 51.8C81.0112 52.7939 80.5728 53.7381 80 54.6C79.2068 55.8116 78.2662 56.9201 77.2 57.9C75.9613 59.3012 74.4683 60.4549 72.8 61.3C70.6 62.5 69.0999 62.6 66.5999 63C64.1792 63.3501 61.7207 63.3501 59.2999 63C54.7 62.5 52.1 61.4 47.9 59.5C45.6724 58.4871 43.5024 57.3521 41.4 56.1C38.9564 54.7189 36.4165 53.5158 33.7999 52.5C31.4139 51.7467 28.9733 51.1783 26.5 50.8C23.7004 50.2343 20.823 50.1666 18 50.6C15.8622 51.1149 13.7842 51.8523 11.8 52.8C14.9682 52.248 18.1915 52.0802 21.4 52.3C23.1951 52.5125 24.9685 52.8805 26.7 53.4C29.335 53.983 31.8877 54.8899 34.2999 56.1C36.2479 56.9403 38.1213 57.9438 39.9 59.1L45 61.9C47.3426 63.247 49.7828 64.417 52.2999 65.4C55.0201 66.4974 57.8818 67.2044 60.7999 67.5C63.6771 67.9028 66.6066 67.6984 69.4 66.9C72.1247 66.239 74.6799 65.0125 76.9 63.3C79.1682 61.8313 81.0536 59.843 82.4 57.5C83.8246 55.3579 84.7789 52.938 85.2 50.4C85.8483 47.5363 85.8483 44.5638 85.2 41.7C84.6805 38.6976 83.4075 35.8761 81.5 33.5C79.8426 31.6195 78 29.9109 76 28.4C76 28.4 75.8999 36 75.7 37.2C75.5503 37.9234 75.1983 38.5894 74.6849 39.1205C74.1715 39.6516 73.5178 40.0259 72.8 40.2C71.4 40.7 67.4 40.5 67.4 40.5C67.4 40.5 65.2999 44.4 63.2999 46.1C61.3784 47.9186 58.9256 49.075 56.2999 49.4C53.9948 49.8835 51.618 49.9175 49.2999 49.5H49.2C44.7999 49 42.1999 46.9 38.0999 45.9C35.0836 44.9985 31.9479 44.5602 28.7999 44.6C26.3891 44.5181 23.9763 44.6857 21.6 45.1Z" fill="#051759"/>
<path d="M23.0999 55.3C20.8769 55.0289 18.6393 54.8953 16.3999 54.9C16.3999 54.9 20.3999 55.7 22.5999 56.3L25.6999 57.4C27.0748 57.8633 28.4121 58.4317 29.6999 59.1C31.4999 59.9 32.3999 60.5 34.0999 61.4L39.4999 64.8C42.2999 66.4 43.7999 67.4 46.7999 68.8C48.805 69.7785 50.8769 70.614 52.9999 71.3C55.022 72.0181 57.0943 72.5863 59.1999 73L61.8999 73.3L58.6999 68.8C58.6999 68.8 54.3999 68 51.6999 67.3C49.329 66.593 47.021 65.6898 44.7999 64.6L36.6999 60.3C34.85 59.1748 32.91 58.2048 30.8999 57.4C28.4023 56.3639 25.7801 55.658 23.0999 55.3Z" fill="#F89E2C"/>
<path d="M64.3001 73.6L61.3 69.3L64.4001 69.5L67.4001 69.3L64.3001 73.6Z" fill="#F89E2C"/>
<path d="M74.9999 71.5L70.0999 68.4L73.3999 67.3L76.2999 65.8L74.9999 71.5Z" fill="#F89E2C"/>
<path d="M83.8999 65.3001L78.3999 64.5C79.2441 63.8164 80.0456 63.0817 80.7999 62.3C81.5259 61.5159 82.1943 60.6804 82.7999 59.8L83.8999 65.3001Z" fill="#F89E2C"/>
<path d="M89.7 56.2L84.3 57.5C84.3 57.5 85.3 55.7 85.8 54.5C86.1984 53.5229 86.5325 52.5207 86.8 51.5L89.7 56.2Z" fill="#F89E2C"/>
<path d="M91.8 45.7L87.3 49C87.3 49 87.5 47 87.5 45.7C87.4666 44.6281 87.3664 43.5594 87.2 42.5L91.8 45.7Z" fill="#F89E2C"/>
<path d="M89.5999 35.2L86.6999 40C86.4189 38.9382 86.051 37.9014 85.5999 36.9C85.1617 35.9348 84.6606 34.9995 84.0999 34.1L89.5999 35.2Z" fill="#F89E2C"/>
<path d="M83.3999 26.4L82.5999 31.9C82.5999 31.9 81.2999 30.3 80.3999 29.4L77.8999 27.4L83.3999 26.4Z" fill="#F89E2C"/>
</svg>
