<svg width="100" height="100" viewBox="0 0 100 100" fill="none" xmlns="http://www.w3.org/2000/svg">
<path d="M47.8701 30.8527L58.2551 19L65.4499 26.9506C65.0528 27.078 64.6273 27.0897 64.2237 26.9842C63.8201 26.8787 63.4554 26.6606 63.1727 26.3555C62.5641 25.7946 61.5629 25.7409 60.3262 27.5896C59.0894 29.4382 57.1115 29.6382 55.6048 28.0481C54.0981 26.458 51.9436 25.6092 51.443 28.6919C51.1583 30.4333 49.9215 30.9991 47.8701 30.8527Z" fill="#7E2249"/>
<path d="M93.248 57.6702H24.3665L46.5303 32.3843C49.8921 33.1452 51.9289 32.916 52.297 30.5893C52.7878 27.5115 54.9031 28.3602 56.3754 29.9504C57.8478 31.5405 59.7814 31.3356 60.9937 29.487C62.2059 27.6384 63.1875 27.6969 63.7813 28.2578C63.9671 28.4655 64.1923 28.6346 64.4441 28.7555C64.6959 28.8763 64.9693 28.9464 65.2484 28.9619C65.5276 28.9773 65.8071 28.9376 66.0708 28.8453C66.3345 28.7529 66.5772 28.6096 66.7849 28.4237L93.248 57.6702Z" fill="url(#paint0_linear_7869_20199)"/>
<path d="M5 40.5739C8.38641 45.0029 11.8121 47.1246 14.1531 48.2367C22.732 52.3047 29.5049 48.7977 37.3378 53.4998C39.8742 55.057 42.0489 57.1319 43.718 59.5871C41.9865 58.8037 40.212 58.1181 38.4028 57.5336C27.5172 53.9924 21.986 56.2117 15.9887 53.6315C12.6857 52.1974 8.3766 48.944 5 40.5739Z" fill="#7E2249"/>
<path d="M10.6294 54.9094C14.5164 58.9091 18.1727 60.6163 20.6266 61.4406C29.6325 64.4745 35.944 60.2017 44.2628 63.9477C46.9772 65.1927 49.3945 66.9966 51.3546 69.24C49.5335 68.6654 47.6821 68.1899 45.8088 67.8157C34.5796 65.5769 29.3528 68.4303 23.0953 66.5719C19.6402 65.5476 14.9777 62.8259 10.6294 54.9094Z" fill="#7E2249"/>
<path d="M17.991 68.3767C22.1774 72.0691 25.9515 73.4885 28.4643 74.1177C37.6763 76.4541 43.6345 71.713 52.2379 74.8152C55.0358 75.8503 57.5803 77.4648 59.7027 79.5514C57.842 79.126 55.9596 78.8003 54.0636 78.5759C42.6922 77.2004 37.7009 80.444 31.3158 79.0636C27.7969 78.2978 22.9381 75.9371 17.991 68.3767Z" fill="#7E2249"/>
<path d="M38.864 49.6025C53.8722 44.4029 63.3002 71.552 73.5527 71.552C81.8076 71.552 82.6371 56.9873 87.7265 56.9873C92.8159 56.9873 94.9999 60.4602 94.9999 60.4602C83.6775 60.6163 92.0552 82 77.4544 82C61.4401 82.0146 63.4032 60.3382 38.864 49.6025Z" fill="#7E2249"/>
<defs>
<linearGradient id="paint0_linear_7869_20199" x1="58.8097" y1="65.3671" x2="58.8097" y2="47.9636" gradientUnits="userSpaceOnUse">
<stop offset="0.48" stop-color="#7E2249" stop-opacity="0"/>
<stop offset="1" stop-color="#7E2249"/>
</linearGradient>
</defs>
</svg>
